<svg xmlns="http://www.w3.org/2000/svg" width="300" height="300" viewBox="0 0 300 300"><defs><style>.a{fill:#5c8a69}.a,.b,.c,.d,.e,.f,.g,.h,.i,.j{fill-rule:evenodd}.b{fill:#1c6237}.c{fill:#ad3123}.d{fill:#f58056}.e{fill:#65592d}.f{fill:#a99231}.g{fill:#7c722c}.h{fill:#ed4815}.i{fill:#f47539}.j{fill:#fb8a06}</style></defs><path class="a" d="M151.112 80.179a2.547 2.547 0 11-2.522 2.546 2.534 2.534 0 012.522-2.546z"/><path class="a" d="M145.769 99.356a2.547 2.547 0 11-2.522 2.547 2.536 2.536 0 012.522-2.547z"/><path class="a" d="M130.731 140.649a1.966 1.966 0 11-1.948 1.967 1.957 1.957 0 011.948-1.967z"/><path class="a" d="M135.384 144.147a3.17 3.17 0 11-3.141 3.171 3.154 3.154 0 013.141-3.171z"/><path class="a" d="M153.995 142.34a3.17 3.17 0 11-3.14 3.169 3.155 3.155 0 013.14-3.169z"/><path class="a" d="M197.303 150.651a3.17 3.17 0 11-3.141 3.169 3.154 3.154 0 013.141-3.169z"/><path class="a" d="M193.959 186.862a3.462 3.462 0 11-3.423 3.459 3.447 3.447 0 013.428-3.463z"/><path class="a" d="M126.295 234.83a5.076 5.076 0 11-5.027 5.076 5.052 5.052 0 015.027-5.076z"/><path class="a" d="M193.33 163.136a2.575 2.575 0 11-2.55 2.575 2.564 2.564 0 012.55-2.575z"/><path class="a" d="M196.921 203.638a2.575 2.575 0 11-2.55 2.575 2.563 2.563 0 012.55-2.575z"/><path class="a" d="M184.538 209.789a1.926 1.926 0 11-1.908 1.926 1.916 1.916 0 011.908-1.926z"/><path class="a" d="M177.603 229.215a2.289 2.289 0 11-2.268 2.29 2.28 2.28 0 012.268-2.29z"/><path class="a" d="M81.937 183.514a1.926 1.926 0 11-1.908 1.926 1.916 1.916 0 011.908-1.926z"/><path class="a" d="M93.07 191.85a1.926 1.926 0 11-1.908 1.927 1.918 1.918 0 011.908-1.927z"/><path class="a" d="M89.194 222.236a3.753 3.753 0 11-3.717 3.753 3.736 3.736 0 013.717-3.753z"/><path class="a" d="M84.064 208.341a6.91 6.91 0 11-6.845 6.91 6.878 6.878 0 016.845-6.91z"/><path class="a" d="M113.593 227.288a6.911 6.911 0 11-6.845 6.91 6.878 6.878 0 016.845-6.91z"/><path class="a" d="M103.833 184.893a6.353 6.353 0 11-6.293 6.353 6.323 6.323 0 016.293-6.353z"/><path class="a" d="M148.502 227.594a7.363 7.363 0 11-7.294 7.363 7.328 7.328 0 017.294-7.363z"/><path class="a" d="M171.041 211.514a3.325 3.325 0 11-3.293 3.325 3.31 3.31 0 013.293-3.325z"/><path class="a" d="M176.068 139.015a3.965 3.965 0 11-3.928 3.966 3.946 3.946 0 013.928-3.966z"/><path class="a" d="M164.136 135.956a6.061 6.061 0 11-6 6.06 6.033 6.033 0 016-6.06z"/><path class="a" d="M202.074 158.478a5.7 5.7 0 11-5.644 5.7 5.674 5.674 0 015.644-5.7z"/><path class="a" d="M203.314 180.267a5.914 5.914 0 11-5.858 5.915 5.888 5.888 0 015.858-5.915z"/><path class="a" d="M186.596 192.911a7.522 7.522 0 11-7.451 7.521 7.487 7.487 0 017.451-7.521z"/><path class="a" d="M185.172 157.714a5.421 5.421 0 11-5.368 5.42 5.4 5.4 0 015.368-5.42z"/><path class="a" d="M144.88 78.98a2.547 2.547 0 11-2.524 2.547 2.536 2.536 0 012.524-2.547z"/><path class="a" d="M193.851 80.777a2.547 2.547 0 11-2.522 2.547 2.536 2.536 0 012.522-2.547z"/><path class="a" d="M188.955 64.747a3.745 3.745 0 11-3.71 3.745 3.728 3.728 0 013.71-3.745z"/><path class="a" d="M209.137 63.249a3.745 3.745 0 11-3.71 3.745 3.728 3.728 0 013.71-3.745z"/><path class="b" d="M139.388 98.734a2.358 2.358 0 11-2.334 2.358 2.346 2.346 0 012.334-2.358z"/><path class="b" d="M135.935 137.388a2.357 2.357 0 11-2.334 2.356 2.347 2.347 0 012.334-2.356z"/><path class="b" d="M99.714 180.207a2.357 2.357 0 11-2.334 2.356 2.346 2.346 0 012.334-2.356z"/><path class="b" d="M107.271 198.585a2.357 2.357 0 11-2.336 2.356 2.346 2.346 0 012.336-2.356z"/><path class="b" d="M75.506 206.207a2.356 2.356 0 11-2.334 2.356 2.345 2.345 0 012.334-2.356z"/><path class="b" d="M182.798 137.975a2.357 2.357 0 11-2.334 2.356 2.346 2.346 0 012.334-2.356z"/><path class="b" d="M171.759 147.32a3.178 3.178 0 11-3.149 3.178 3.163 3.163 0 013.149-3.178z"/><path class="b" d="M95.261 216.532a3.179 3.179 0 11-3.149 3.179 3.164 3.164 0 013.149-3.179z"/><path class="b" d="M136.899 238.822A3.178 3.178 0 11133.75 242a3.163 3.163 0 013.149-3.178z"/><path class="b" d="M124.891 227.482a3.179 3.179 0 11-3.145 3.179 3.164 3.164 0 013.147-3.179z"/><path class="b" d="M203.907 171.563a3.765 3.765 0 11-3.729 3.766 3.748 3.748 0 013.729-3.766z"/><path class="b" d="M135.35 228.655a4.352 4.352 0 11-4.31 4.351 4.332 4.332 0 014.31-4.351z"/><path class="b" d="M99.327 223.572a5.72 5.72 0 11-5.666 5.719 5.692 5.692 0 015.666-5.719z"/><path class="b" d="M177.569 206.171a3.765 3.765 0 11-3.729 3.764 3.748 3.748 0 013.729-3.764z"/><path class="b" d="M193.062 157.075a2.808 2.808 0 11-2.783 2.809 2.795 2.795 0 012.783-2.809z"/><path class="b" d="M159.365 234.89a2.808 2.808 0 11-2.783 2.809 2.8 2.8 0 012.783-2.809z"/><path class="b" d="M107.845 222.203a2.4 2.4 0 11-2.374 2.4 2.385 2.385 0 012.374-2.4z"/><path class="b" d="M185.702 184.859a3.179 3.179 0 11-3.147 3.179 3.164 3.164 0 013.147-3.179z"/><path class="b" d="M176.795 152.915a1.885 1.885 0 11-1.867 1.884 1.875 1.875 0 011.867-1.884z"/><path class="b" d="M173.114 233.078a1.884 1.884 0 11-1.865 1.884 1.876 1.876 0 011.865-1.884z"/><path class="b" d="M154.209 133.727a3.774 3.774 0 11-3.739 3.773 3.755 3.755 0 013.739-3.773z"/><path class="b" d="M212.489 73.54a4.633 4.633 0 11-4.589 4.632 4.61 4.61 0 014.589-4.632z"/><path class="b" d="M125.292 144.361a4.633 4.633 0 11-4.589 4.633 4.611 4.611 0 014.589-4.633z"/><path class="b" d="M201.21 193.312a5.148 5.148 0 11-5.1 5.148 5.123 5.123 0 015.1-5.148z"/><path class="b" d="M192.11 208.367a5.148 5.148 0 11-5.1 5.148 5.124 5.124 0 015.1-5.148z"/><path class="b" d="M144.313 135.477a5.287 5.287 0 11-5.239 5.287 5.264 5.264 0 015.239-5.287z"/><path class="b" d="M90.473 179.286a5.861 5.861 0 11-5.806 5.861 5.833 5.833 0 015.806-5.861z"/><path class="b" d="M185.331 143.736a6.767 6.767 0 11-6.7 6.766 6.735 6.735 0 016.7-6.766z"/><path class="b" d="M180.641 214.517a6.919 6.919 0 11-6.854 6.919 6.888 6.888 0 016.854-6.919z"/><path class="b" d="M96.44 196.226a7.267 7.267 0 11-7.2 7.267 7.232 7.232 0 017.2-7.267z"/><path class="b" d="M190.95 168.657a8.049 8.049 0 11-7.973 8.049 8.011 8.011 0 017.973-8.049z"/><path class="b" d="M164.805 219.102a8.049 8.049 0 11-7.973 8.048 8.01 8.01 0 017.973-8.048z"/><path class="b" d="M80.947 190.361a8.049 8.049 0 11-7.973 8.048 8.01 8.01 0 017.973-8.048z"/><path class="b" d="M199.606 67.688a6.909 6.909 0 11-6.842 6.907 6.875 6.875 0 016.842-6.907z"/><path class="b" d="M144.54 84.755a6.909 6.909 0 11-6.842 6.909 6.877 6.877 0 016.842-6.909z"/><path class="c" d="M133.155 104.089a2.687 2.687 0 11-2.661 2.687 2.675 2.675 0 012.661-2.687z"/><path class="c" d="M171.937 78.946a3.072 3.072 0 11-3.041 3.072 3.058 3.058 0 013.041-3.072z"/><path class="c" d="M158.438 62.44a3.071 3.071 0 11-3.041 3.071 3.058 3.058 0 013.041-3.071z"/><path class="c" d="M142.47 105.432a5.374 5.374 0 11-5.323 5.374 5.35 5.35 0 015.323-5.374z"/><path class="c" d="M220.225 63.593a5.95 5.95 0 11-5.893 5.949 5.922 5.922 0 015.893-5.949z"/><path class="c" d="M134.676 122.322a7.1 7.1 0 11-7.035 7.1 7.068 7.068 0 017.035-7.1z"/><path class="c" d="M168.136 64.744a7.1 7.1 0 11-7.035 7.1 7.068 7.068 0 017.035-7.1z"/><path class="d" d="M159.199 70.742a1.613 1.613 0 11-1.6 1.613 1.6 1.6 0 011.6-1.613z"/><path class="d" d="M229.134 64.652a1.792 1.792 0 11-1.774 1.792 1.784 1.784 0 011.774-1.792z"/><path class="d" d="M180.677 66.262a3.226 3.226 0 11-3.2 3.226 3.211 3.211 0 013.2-3.226z"/><path class="d" d="M125.119 136.328a3.226 3.226 0 11-3.2 3.226 3.211 3.211 0 013.2-3.226z"/><path class="d" d="M142.336 117.155a3.047 3.047 0 11-3.016 3.046 3.032 3.032 0 013.016-3.046z"/><path class="d" d="M158.488 76.297a4.122 4.122 0 11-4.082 4.123 4.1 4.1 0 014.082-4.123z"/><path class="d" d="M134.172 113.392a4.122 4.122 0 11-4.083 4.122 4.1 4.1 0 014.083-4.122z"/><path class="d" d="M149.969 65.188a6.452 6.452 0 11-6.39 6.451 6.421 6.421 0 016.39-6.451z"/><path class="d" d="M184.049 73.072a6.63 6.63 0 11-6.568 6.631 6.6 6.6 0 016.568-6.631z"/><path class="e" d="M136.737 56.631a1.775 1.775 0 11-1.76 1.776 1.767 1.767 0 011.757-1.776z"/><path class="e" d="M185.949 104.243a1.479 1.479 0 11-1.464 1.479 1.472 1.472 0 011.464-1.479z"/><path class="e" d="M178.022 127.213a1.479 1.479 0 11-1.464 1.479 1.471 1.471 0 011.464-1.479z"/><path class="e" d="M203.379 81.917a1.922 1.922 0 11-1.9 1.923 1.914 1.914 0 011.9-1.923z"/><path class="e" d="M148.333 129.207a2.794 2.794 0 11-2.766 2.793 2.781 2.781 0 012.766-2.793z"/><path class="e" d="M198.106 98.774a1.922 1.922 0 11-1.9 1.921 1.913 1.913 0 011.9-1.921z"/><path class="e" d="M160.759 46.133a2.957 2.957 0 11-2.93 2.956 2.942 2.942 0 012.93-2.956z"/><path class="e" d="M134.541 82.065a3.7 3.7 0 11-3.662 3.7 3.678 3.678 0 013.662-3.7z"/><path class="e" d="M142.448 49.978a3.845 3.845 0 11-3.809 3.844 3.826 3.826 0 013.809-3.844z"/><path class="e" d="M165.737 52.936a5.619 5.619 0 11-5.565 5.618 5.593 5.593 0 015.565-5.618z"/><path class="e" d="M125.02 77.185a5.619 5.619 0 11-5.565 5.618 5.594 5.594 0 015.565-5.618z"/><path class="e" d="M173.608 115.575a6.055 6.055 0 11-6 6.055 6.026 6.026 0 016-6.055z"/><path class="e" d="M187.853 48.944a7.246 7.246 0 11-7.176 7.245 7.211 7.211 0 017.176-7.245z"/><path class="e" d="M207.187 96.257a6.063 6.063 0 11-6 6.063 6.034 6.034 0 016-6.063z"/><path class="f" d="M131.125 59.377a3.9 3.9 0 11-3.86 3.9 3.88 3.88 0 013.86-3.9z"/><path class="f" d="M141.161 59.768a3.9 3.9 0 11-3.86 3.9 3.879 3.879 0 013.86-3.9z"/><path class="f" d="M190.193 95.816a3.9 3.9 0 11-3.86 3.9 3.879 3.879 0 013.86-3.9z"/><path class="f" d="M201.383 107.705a3.507 3.507 0 11-3.473 3.507 3.49 3.49 0 013.473-3.507z"/><path class="f" d="M175.718 46.712a4.677 4.677 0 11-4.633 4.676 4.654 4.654 0 014.633-4.676z"/><path class="f" d="M200.612 57.234a4.677 4.677 0 11-4.633 4.677 4.656 4.656 0 014.633-4.677z"/><path class="f" d="M163.36 122.904a5.651 5.651 0 11-5.6 5.652 5.626 5.626 0 015.6-5.652z"/><path class="f" d="M129.388 88.997a6.821 6.821 0 11-6.756 6.82 6.789 6.789 0 016.756-6.82z"/><path class="f" d="M210.648 82.956a5.651 5.651 0 11-5.6 5.652 5.625 5.625 0 015.6-5.652z"/><path class="f" d="M168.184 46.906a2.534 2.534 0 11-2.509 2.534 2.522 2.522 0 012.509-2.534z"/><path class="f" d="M177.449 110.433a2.338 2.338 0 11-2.317 2.339 2.328 2.328 0 012.317-2.339z"/><path class="f" d="M183.241 122.712a2.728 2.728 0 11-2.7 2.728 2.715 2.715 0 012.7-2.728z"/><path class="g" d="M126.205 70.129a2.816 2.816 0 11-2.788 2.816 2.8 2.8 0 012.788-2.816z"/><path class="g" d="M155.253 93.435a2.816 2.816 0 11-2.786 2.819 2.8 2.8 0 012.788-2.816z"/><path class="g" d="M154.867 126.645a2.428 2.428 0 11-2.4 2.428 2.418 2.418 0 012.4-2.428z"/><path class="g" d="M196.038 103.727a2.816 2.816 0 11-2.79 2.816 2.8 2.8 0 012.79-2.816z"/><path class="g" d="M173.145 129.752a4.176 4.176 0 11-4.136 4.176 4.157 4.157 0 014.136-4.176z"/><path class="g" d="M136.21 68.182a6.507 6.507 0 11-6.444 6.507 6.476 6.476 0 016.444-6.507z"/><path class="g" d="M189.689 108a8.06 8.06 0 11-7.983 8.06 8.023 8.023 0 017.983-8.06z"/><path class="g" d="M153.429 51.873a5.826 5.826 0 11-5.771 5.827 5.8 5.8 0 015.771-5.827z"/><path class="g" d="M177.28 57.7a4.272 4.272 0 11-4.232 4.273 4.253 4.253 0 014.232-4.273z"/><path class="g" d="M198.826 86.054a6.021 6.021 0 11-5.963 6.021 5.992 5.992 0 015.963-6.021z"/><path class="h" d="M119.33 4.531a8.2 8.2 0 11-8.12 8.2 8.158 8.158 0 018.12-8.2z"/><path class="h" d="M158.793 1.286a7.816 7.816 0 11-7.742 7.815 7.779 7.779 0 017.742-7.815z"/><path class="h" d="M235.074 29.117a7.816 7.816 0 11-7.74 7.816 7.778 7.778 0 017.74-7.816z"/><path class="h" d="M258.321 95.972a7.816 7.816 0 11-7.742 7.816 7.779 7.779 0 017.742-7.816z"/><path class="h" d="M209.016 142.499a8.091 8.091 0 11-8.015 8.092 8.054 8.054 0 018.015-8.092z"/><path class="h" d="M287.867 173.719a8.091 8.091 0 11-8.014 8.09 8.053 8.053 0 018.014-8.09z"/><path class="h" d="M244.237 247.417a8.091 8.091 0 11-8.014 8.09 8.052 8.052 0 018.014-8.09z"/><path class="h" d="M206.217 205.616a8.091 8.091 0 11-8.014 8.09 8.053 8.053 0 018.014-8.09z"/><path class="h" d="M151.24 27.211a7.816 7.816 0 11-7.741 7.816 7.779 7.779 0 017.741-7.816z"/><path class="h" d="M26.974 66.109a7.107 7.107 0 11-7.039 7.107 7.074 7.074 0 017.039-7.107z"/><path class="h" d="M52.911 105.262a7.107 7.107 0 11-7.039 7.106 7.072 7.072 0 017.039-7.106z"/><path class="h" d="M6.91 122.918a6.73 6.73 0 11-6.665 6.729 6.7 6.7 0 016.665-6.729z"/><path class="h" d="M70.394 91.656a6.8 6.8 0 11-6.737 6.8 6.771 6.771 0 016.737-6.8z"/><path class="h" d="M95.589 104.872a6.3 6.3 0 11-6.244 6.3 6.274 6.274 0 016.244-6.3z"/><path class="h" d="M65.933 135.965a6.3 6.3 0 11-6.244 6.3 6.274 6.274 0 016.244-6.3z"/><path class="h" d="M74.633 155.289a6.3 6.3 0 11-6.244 6.3 6.274 6.274 0 016.244-6.3z"/><path class="h" d="M147.185 199.277a6.909 6.909 0 11-6.842 6.909 6.876 6.876 0 016.842-6.909z"/><path class="h" d="M26.104 161.34a6.3 6.3 0 11-6.244 6.3 6.273 6.273 0 016.244-6.3z"/><path class="h" d="M51.373 38.231a7.107 7.107 0 11-7.039 7.107 7.074 7.074 0 017.039-7.107z"/><path class="h" d="M70.288 68.401a7.107 7.107 0 11-7.039 7.107 7.074 7.074 0 017.039-7.107z"/><path class="h" d="M110.763 78.33a7.107 7.107 0 11-7.039 7.107 7.074 7.074 0 017.039-7.107z"/><path class="h" d="M51.258 127.895a7.827 7.827 0 11-7.752 7.826 7.789 7.789 0 017.752-7.826z"/><path class="h" d="M9.225 169.044a7.943 7.943 0 11-7.867 7.942 7.906 7.906 0 017.867-7.942z"/><path class="h" d="M24.434 210.444a7.944 7.944 0 11-7.867 7.943 7.907 7.907 0 017.867-7.943z"/><path class="h" d="M49.149 217.3a7.943 7.943 0 11-7.868 7.942 7.9 7.9 0 017.868-7.942z"/><path class="h" d="M180.324 246.636a7.943 7.943 0 11-7.867 7.943 7.907 7.907 0 017.867-7.943z"/><path class="h" d="M123.618 155.511a6.943 6.943 0 11-6.876 6.942 6.911 6.911 0 016.876-6.942z"/><path class="h" d="M146.975 171.414a6.943 6.943 0 11-6.878 6.942 6.909 6.909 0 016.878-6.942z"/><path class="h" d="M174.405 178.268a6.943 6.943 0 11-6.876 6.942 6.911 6.911 0 016.876-6.942z"/><path class="h" d="M132.852 269.296a6.943 6.943 0 11-6.876 6.942 6.91 6.91 0 016.876-6.942z"/><path class="h" d="M171.262 283.005a6.943 6.943 0 11-6.878 6.942 6.911 6.911 0 016.878-6.942z"/><path class="h" d="M102.163 246.979a7.6 7.6 0 11-7.527 7.6 7.563 7.563 0 017.527-7.6z"/><path class="h" d="M84.856 260.262a7.126 7.126 0 11-7.059 7.124 7.093 7.093 0 017.058-7.126z"/><path class="h" d="M154.206 110.633a7.345 7.345 0 11-7.275 7.345 7.311 7.311 0 017.275-7.345z"/><path class="h" d="M95.543 163.173a8.037 8.037 0 11-7.961 8.037 8 8 0 017.961-8.037z"/><path class="h" d="M118.375 210.353a8.036 8.036 0 11-7.96 8.036 8 8 0 017.96-8.036z"/><path class="h" d="M201.654 35.98a7.815 7.815 0 11-7.742 7.814 7.778 7.778 0 017.742-7.814z"/><path class="h" d="M197.31 31.596a1.906 1.906 0 11-1.887 1.9 1.9 1.9 0 011.887-1.9z"/><path class="h" d="M235.073 45.701a1.907 1.907 0 11-1.887 1.906 1.9 1.9 0 011.887-1.906z"/><path class="h" d="M225.634 39.411a1.906 1.906 0 11-1.889 1.906 1.9 1.9 0 011.889-1.906z"/><path class="h" d="M196.934 9.677a3.432 3.432 0 11-3.4 3.432 3.415 3.415 0 013.4-3.432z"/><path class="h" d="M169.933 2.049a3.432 3.432 0 11-3.4 3.431 3.415 3.415 0 013.4-3.431z"/><path class="h" d="M249.803 60.188a4.575 4.575 0 11-4.532 4.576 4.554 4.554 0 014.532-4.576z"/><path class="h" d="M214.629 107.612a5.167 5.167 0 11-5.118 5.167 5.142 5.142 0 015.118-5.167z"/><path class="h" d="M231.186 130.412a6.326 6.326 0 11-6.266 6.325 6.3 6.3 0 016.266-6.325z"/><path class="h" d="M227.136 162.913a6.326 6.326 0 11-6.266 6.326 6.3 6.3 0 016.266-6.326z"/><path class="h" d="M196.232 138.629a5.166 5.166 0 11-5.117 5.167 5.143 5.143 0 015.117-5.167z"/><path class="h" d="M273.812 97.886a5.784 5.784 0 11-5.73 5.784 5.757 5.757 0 015.73-5.784z"/><path class="h" d="M292.393 129.274a5.784 5.784 0 11-5.73 5.783 5.756 5.756 0 015.73-5.783z"/><path class="h" d="M243.461 114.699a6.616 6.616 0 11-6.553 6.615 6.585 6.585 0 016.553-6.615z"/><path class="h" d="M265.35 160.993a7.124 7.124 0 11-7.056 7.123 7.09 7.09 0 017.056-7.123z"/><path class="h" d="M279.882 161.546a6.571 6.571 0 11-6.507 6.57 6.539 6.539 0 016.507-6.57z"/><path class="h" d="M237.416 85.045a4.575 4.575 0 11-4.532 4.576 4.555 4.555 0 014.532-4.576z"/><path class="h" d="M271.519 126.423a4.575 4.575 0 11-4.532 4.574 4.554 4.554 0 014.532-4.574z"/><path class="h" d="M153.127 43.033a3.431 3.431 0 11-3.4 3.431 3.415 3.415 0 013.4-3.431z"/><path class="h" d="M222.801 30.07a3.813 3.813 0 11-3.776 3.813 3.794 3.794 0 013.776-3.813z"/><path class="h" d="M269.438 64.382a3.432 3.432 0 11-3.4 3.431 3.415 3.415 0 013.4-3.431z"/><path class="h" d="M292.837 121.662a3.431 3.431 0 11-3.4 3.431 3.416 3.416 0 013.4-3.431z"/><path class="h" d="M218.972 99.738a3.431 3.431 0 11-3.4 3.431 3.415 3.415 0 013.4-3.431z"/><path class="h" d="M285.201 96.586a4.169 4.169 0 11-4.129 4.169 4.148 4.148 0 014.129-4.169z"/><path class="h" d="M280.418 131.683a4.169 4.169 0 11-4.129 4.169 4.15 4.15 0 014.129-4.169z"/><path class="h" d="M201.128 116.458a4.169 4.169 0 11-4.129 4.169 4.149 4.149 0 014.129-4.169z"/><path class="h" d="M215.302 94.359a2.325 2.325 0 11-2.3 2.325 2.315 2.315 0 012.3-2.325z"/><path class="h" d="M253.688 122.15a2.634 2.634 0 11-2.608 2.634 2.622 2.622 0 012.608-2.634z"/><path class="h" d="M268.522 92.507a2.942 2.942 0 11-2.915 2.943 2.929 2.929 0 012.915-2.943z"/><path class="h" d="M296.669 146.69a3.363 3.363 0 11-3.332 3.363 3.346 3.346 0 013.332-3.363z"/><path class="h" d="M255.666 196.686a3.363 3.363 0 11-3.332 3.363 3.347 3.347 0 013.332-3.363z"/><path class="h" d="M238.093 166.938a3.364 3.364 0 11-3.331 3.365 3.349 3.349 0 013.331-3.365z"/><path class="h" d="M259.04 205.51a4.037 4.037 0 11-4 4.036 4.017 4.017 0 014-4.036z"/><path class="h" d="M235.787 213.394a4.037 4.037 0 11-4 4.036 4.017 4.017 0 014-4.036z"/><path class="h" d="M275.368 222.533a4.037 4.037 0 11-4 4.036 4.018 4.018 0 014-4.036z"/><path class="h" d="M238.536 144.882a2.942 2.942 0 11-2.915 2.941 2.927 2.927 0 012.915-2.941z"/><path class="h" d="M235.488 109.486a2.943 2.943 0 11-2.913 2.943 2.93 2.93 0 012.913-2.943z"/><path class="h" d="M118.762 21.683a3.432 3.432 0 11-3.4 3.432 3.416 3.416 0 013.4-3.432z"/><path class="h" d="M71.937 23.78a3.05 3.05 0 11-3.022 3.05 3.035 3.035 0 013.022-3.05z"/><path class="h" d="M84.21 44.94a3.049 3.049 0 11-3.021 3.05 3.035 3.035 0 013.021-3.05z"/><path class="h" d="M40.983 47.433a3.05 3.05 0 11-3.021 3.05 3.035 3.035 0 013.021-3.05z"/><path class="h" d="M39.145 71.121a3.409 3.409 0 11-3.376 3.409 3.392 3.392 0 013.376-3.409z"/><path class="h" d="M15.432 85.837a3.408 3.408 0 11-3.376 3.407 3.391 3.391 0 013.376-3.407z"/><path class="h" d="M35.44 86.085a3.409 3.409 0 11-3.375 3.409 3.392 3.392 0 013.375-3.409z"/><path class="h" d="M26.301 94.315a3.408 3.408 0 11-3.376 3.407 3.391 3.391 0 013.376-3.407z"/><path class="h" d="M100.405 117.684a3.979 3.979 0 11-3.942 3.979 3.961 3.961 0 013.942-3.979z"/><path class="h" d="M74.304 145.987a3.979 3.979 0 11-3.942 3.979 3.961 3.961 0 013.942-3.979z"/><path class="h" d="M66.621 191.012a3.979 3.979 0 11-3.941 3.979 3.961 3.961 0 013.941-3.979z"/><path class="h" d="M198.568 266.487a4.489 4.489 0 11-4.446 4.489 4.468 4.468 0 014.446-4.489z"/><path class="h" d="M150.251 252.728a4.49 4.49 0 11-4.448 4.489 4.469 4.469 0 014.448-4.489z"/><path class="h" d="M155.207 241.779a5.115 5.115 0 11-5.067 5.114 5.091 5.091 0 015.067-5.114z"/><path class="h" d="M175.575 262.935a5.116 5.116 0 11-5.065 5.115 5.091 5.091 0 015.065-5.115z"/><path class="h" d="M185.275 285.849a5.115 5.115 0 11-5.067 5.114 5.091 5.091 0 015.067-5.114z"/><path class="h" d="M125.526 282.534a5.492 5.492 0 11-5.44 5.492 5.464 5.464 0 015.44-5.492z"/><path class="h" d="M252.154 229.588a5.116 5.116 0 11-5.067 5.115 5.092 5.092 0 015.067-5.115z"/><path class="h" d="M227.684 218.332a5.115 5.115 0 11-5.065 5.114 5.091 5.091 0 015.065-5.114z"/><path class="h" d="M246.268 190.813a5.116 5.116 0 11-5.065 5.115 5.091 5.091 0 015.065-5.115z"/><path class="h" d="M278.042 210.371a5.808 5.808 0 11-5.753 5.808 5.78 5.78 0 015.753-5.808z"/><path class="h" d="M223.726 182.775a6.345 6.345 0 11-6.287 6.34 6.315 6.315 0 016.284-6.344z"/><path class="h" d="M274.147 151.414a5.115 5.115 0 11-5.067 5.115 5.091 5.091 0 015.067-5.115z"/><path class="h" d="M56.573 196.828a3.744 3.744 0 11-3.709 3.744 3.726 3.726 0 013.709-3.744z"/><path class="h" d="M11.973 198.553a3.1 3.1 0 11-3.068 3.1 3.082 3.082 0 013.068-3.1z"/><path class="h" d="M28.192 186.704a3.1 3.1 0 11-3.068 3.1 3.082 3.082 0 013.068-3.1z"/><path class="h" d="M126.351 204.149a3.1 3.1 0 11-3.068 3.1 3.082 3.082 0 013.068-3.1z"/><path class="h" d="M139.119 221.974a3.1 3.1 0 11-3.068 3.1 3.083 3.083 0 013.068-3.1z"/><path class="h" d="M107.069 263.65a3.1 3.1 0 11-3.068 3.1 3.083 3.083 0 013.068-3.1z"/><path class="h" d="M156.627 264.275a3.1 3.1 0 11-3.068 3.1 3.084 3.084 0 013.068-3.1z"/><path class="h" d="M171.493 275.22a3.1 3.1 0 11-3.068 3.1 3.083 3.083 0 013.068-3.1z"/><path class="h" d="M209.901 244.888a3.1 3.1 0 11-3.068 3.1 3.083 3.083 0 013.068-3.1z"/><path class="h" d="M229.415 229.879a3.1 3.1 0 11-3.068 3.1 3.083 3.083 0 013.068-3.1z"/><path class="h" d="M133.194 291.313a3.943 3.943 0 11-3.9 3.942 3.924 3.924 0 013.9-3.942z"/><path class="h" d="M206.185 223a3.1 3.1 0 11-3.068 3.1 3.083 3.083 0 013.068-3.1z"/><path class="h" d="M220.122 211.742a3.1 3.1 0 11-3.068 3.1 3.083 3.083 0 013.068-3.1z"/><path class="h" d="M213.618 184.538a3.1 3.1 0 11-3.068 3.1 3.082 3.082 0 013.068-3.1z"/><path class="h" d="M251.406 186.035a2.539 2.539 0 11-2.515 2.539 2.527 2.527 0 012.515-2.539z"/><path class="h" d="M266.273 176.028a2.539 2.539 0 11-2.515 2.539 2.528 2.528 0 012.515-2.539z"/><path class="h" d="M276.568 183.276a1.918 1.918 0 11-1.9 1.918 1.909 1.909 0 011.9-1.918z"/><path class="h" d="M229.53 196.539a1.381 1.381 0 11-1.369 1.382 1.374 1.374 0 011.369-1.382z"/><path class="h" d="M243.663 230.438a2.539 2.539 0 11-2.515 2.539 2.527 2.527 0 012.515-2.539z"/><path class="h" d="M183.883 229.812a2.539 2.539 0 11-2.515 2.54 2.527 2.527 0 012.515-2.54z"/><path class="h" d="M83.984 276.262a3.1 3.1 0 11-3.068 3.1 3.083 3.083 0 013.068-3.1z"/><path class="h" d="M98.665 154.185a3.979 3.979 0 11-3.941 3.979 3.96 3.96 0 013.941-3.979z"/><path class="h" d="M165.714 85.443a3.292 3.292 0 11-3.262 3.293 3.277 3.277 0 013.262-3.293z"/><path class="h" d="M96.672 32.168a2.669 2.669 0 11-2.643 2.668 2.656 2.656 0 012.643-2.668z"/><path class="h" d="M83.454 29.309a2.669 2.669 0 11-2.643 2.668 2.655 2.655 0 012.643-2.668z"/><path class="h" d="M166.723 15.965a2.669 2.669 0 11-2.644 2.668 2.656 2.656 0 012.644-2.668z"/><path class="h" d="M91.384 75.439a2.669 2.669 0 11-2.643 2.668 2.657 2.657 0 012.643-2.668z"/><path class="h" d="M82.492 97.383a2.669 2.669 0 11-2.644 2.669 2.656 2.656 0 012.644-2.669z"/><path class="h" d="M15.982 163.184a2.844 2.844 0 11-2.816 2.843 2.83 2.83 0 012.816-2.843z"/><path class="h" d="M40.735 203.468a2.844 2.844 0 11-2.816 2.844 2.83 2.83 0 012.816-2.844z"/><path class="h" d="M46.439 233.628a2.844 2.844 0 11-2.816 2.844 2.831 2.831 0 012.816-2.844z"/><path class="h" d="M44.536 248.98a2.844 2.844 0 11-2.816 2.844 2.831 2.831 0 012.816-2.844z"/><path class="h" d="M78.758 246.645a2.165 2.165 0 11-2.145 2.165 2.155 2.155 0 012.145-2.165z"/><path class="h" d="M94.51 271.047a2.165 2.165 0 11-2.145 2.165 2.155 2.155 0 012.145-2.165z"/><path class="h" d="M77.942 273.788a2.165 2.165 0 11-2.143 2.165 2.155 2.155 0 012.143-2.165z"/><path class="h" d="M94.238 245a2.165 2.165 0 11-2.145 2.165A2.154 2.154 0 0194.238 245z"/><path class="h" d="M152.358 187.422a2.165 2.165 0 11-2.145 2.164 2.154 2.154 0 012.145-2.164z"/><path class="h" d="M164.579 183.31a2.165 2.165 0 11-2.145 2.164 2.154 2.154 0 012.145-2.164z"/><path class="h" d="M177.888 192.083a2.165 2.165 0 11-2.145 2.164 2.154 2.154 0 012.145-2.164z"/><path class="h" d="M107.818 241.709a2.165 2.165 0 11-2.145 2.165 2.155 2.155 0 012.145-2.165z"/><path class="h" d="M120.117 189.68a2.844 2.844 0 11-2.818 2.844 2.831 2.831 0 012.818-2.844z"/><path class="h" d="M150.848 163.829a2.844 2.844 0 11-2.816 2.844 2.831 2.831 0 012.816-2.844z"/><path class="h" d="M146.101 122.583a2.844 2.844 0 11-2.816 2.844 2.831 2.831 0 012.816-2.844z"/><path class="h" d="M94.289 139.978a3.407 3.407 0 11-3.375 3.406 3.39 3.39 0 013.375-3.406z"/><path class="h" d="M55.501 152.647a2.1 2.1 0 11-2.084 2.1 2.094 2.094 0 012.084-2.1z"/><path class="h" d="M35.012 181.612a2.438 2.438 0 11-2.415 2.437 2.426 2.426 0 012.415-2.437z"/><path class="h" d="M157.768 164.339a2.437 2.437 0 11-2.415 2.437 2.426 2.426 0 012.415-2.437z"/><path class="h" d="M164.83 149.258a2.438 2.438 0 11-2.415 2.439 2.426 2.426 0 012.415-2.439z"/><path class="h" d="M238.85 140.135a1.6 1.6 0 11-1.582 1.6 1.591 1.591 0 011.582-1.6z"/><path class="h" d="M136.856 202.724a2.438 2.438 0 11-2.414 2.437 2.426 2.426 0 012.414-2.437z"/><path class="h" d="M147.681 274.558a1.912 1.912 0 11-1.895 1.912 1.9 1.9 0 011.895-1.912z"/><path class="h" d="M188.031 271.82a1.912 1.912 0 11-1.895 1.912 1.9 1.9 0 011.895-1.912z"/><path class="h" d="M192.295 248.122a1.912 1.912 0 11-1.895 1.912 1.9 1.9 0 011.895-1.912z"/><path class="h" d="M218.292 269.47a1.912 1.912 0 11-1.893 1.912 1.9 1.9 0 011.893-1.912z"/><path class="h" d="M231.099 270.644a1.912 1.912 0 11-1.895 1.912 1.9 1.9 0 011.895-1.912z"/><path class="h" d="M214.219 229.321a2.3 2.3 0 11-2.281 2.3 2.293 2.293 0 012.281-2.3z"/><path class="h" d="M21.568 187.546a2.105 2.105 0 11-2.084 2.1 2.095 2.095 0 012.084-2.1z"/><path class="h" d="M69.946 115.218a2.105 2.105 0 11-2.086 2.1 2.095 2.095 0 012.086-2.1z"/><path class="h" d="M29.536 146.987a1.569 1.569 0 11-1.555 1.57 1.561 1.561 0 011.555-1.57z"/><path class="h" d="M109.532 93.153a2.244 2.244 0 11-2.223 2.243 2.233 2.233 0 012.223-2.243z"/><path class="h" d="M120.652 37.505a3.05 3.05 0 11-3.021 3.05 3.035 3.035 0 013.021-3.05z"/><path class="h" d="M118.763 30.07a3.05 3.05 0 11-3.021 3.05 3.037 3.037 0 013.021-3.05z"/><path class="h" d="M188.437 41.889a3.05 3.05 0 11-3.021 3.05 3.035 3.035 0 013.021-3.05z"/><path class="h" d="M244.515 55.995a2.669 2.669 0 11-2.643 2.669 2.657 2.657 0 012.643-2.669z"/><path class="h" d="M227.9 24.352a3.05 3.05 0 11-3.021 3.05 3.037 3.037 0 013.021-3.05z"/><path class="h" d="M240.551 63.238a3.05 3.05 0 11-3.021 3.05 3.035 3.035 0 013.021-3.05z"/><path class="h" d="M98.56 56.949a3.621 3.621 0 11-3.588 3.62 3.6 3.6 0 013.588-3.62z"/><path class="h" d="M111.4 58.477a4.194 4.194 0 11-4.154 4.194 4.174 4.174 0 014.154-4.194z"/><path class="h" d="M88.928 65.335a4.195 4.195 0 11-4.154 4.2 4.175 4.175 0 014.154-4.2z"/><path class="h" d="M59.042 98.253a4.194 4.194 0 11-4.154 4.194 4.173 4.173 0 014.154-4.194z"/><path class="h" d="M101.771 144.441a4.462 4.462 0 11-4.42 4.461 4.442 4.442 0 014.42-4.461z"/><path class="h" d="M111.778 35.026a4.575 4.575 0 11-4.532 4.574 4.554 4.554 0 014.532-4.574z"/><path class="h" d="M94.029 39.601a5.147 5.147 0 11-5.1 5.148 5.123 5.123 0 015.1-5.148z"/><path class="h" d="M115.401 67.003a5.626 5.626 0 11-5.572 5.625 5.6 5.6 0 015.572-5.625z"/><path class="h" d="M48.907 93.902a5.113 5.113 0 11-5.065 5.109 5.089 5.089 0 015.064-5.112z"/><path class="h" d="M90.541 117.127a5.112 5.112 0 11-5.064 5.111 5.087 5.087 0 015.064-5.111z"/><path class="h" d="M120.768 125.183a5.113 5.113 0 11-5.064 5.112 5.089 5.089 0 015.064-5.112z"/><path class="h" d="M177.377 99.375a5.112 5.112 0 11-5.064 5.112 5.088 5.088 0 015.064-5.112z"/><path class="h" d="M39.403 106.567a5.113 5.113 0 11-5.064 5.112 5.088 5.088 0 015.064-5.112z"/><path class="h" d="M35.028 138.06a4.52 4.52 0 11-4.476 4.52 4.5 4.5 0 014.476-4.52z"/><path class="h" d="M39.281 159.838a5.579 5.579 0 11-5.525 5.578 5.553 5.553 0 015.525-5.578z"/><path class="h" d="M63.45 164.914a5.579 5.579 0 11-5.525 5.578 5.552 5.552 0 015.525-5.578z"/><path class="h" d="M76.757 222.491a5.579 5.579 0 11-5.525 5.578 5.553 5.553 0 015.525-5.578z"/><path class="h" d="M68.88 242.51a5.579 5.579 0 11-5.525 5.578 5.552 5.552 0 015.525-5.578z"/><path class="h" d="M115.857 242.51a5.862 5.862 0 11-5.806 5.862 5.834 5.834 0 015.806-5.862z"/><path class="h" d="M204.997 254.077a6.109 6.109 0 11-6.052 6.109 6.08 6.08 0 016.052-6.109z"/><path class="h" d="M205.188 230.576a6.109 6.109 0 11-6.052 6.109 6.079 6.079 0 016.052-6.109z"/><path class="h" d="M225.366 258.778a6.109 6.109 0 11-6.052 6.109 6.081 6.081 0 016.052-6.109z"/><path class="h" d="M257.657 150.073a5.487 5.487 0 11-5.434 5.487 5.46 5.46 0 015.434-5.487z"/><path class="h" d="M118.301 268.825a5.862 5.862 0 11-5.806 5.861 5.834 5.834 0 015.806-5.861z"/><path class="h" d="M70.773 263.071a5.861 5.861 0 11-5.806 5.862 5.833 5.833 0 015.806-5.862z"/><path class="h" d="M135.15 164.914a5.579 5.579 0 11-5.527 5.578 5.553 5.553 0 015.527-5.578z"/><path class="h" d="M265.858 194.307a5.579 5.579 0 11-5.525 5.578 5.552 5.552 0 015.525-5.578z"/><path class="h" d="M53.26 186.351a5.2 5.2 0 11-5.151 5.2 5.176 5.176 0 015.151-5.2z"/><path class="h" d="M38.749 209.618a5.2 5.2 0 11-5.151 5.2 5.176 5.176 0 015.151-5.2z"/><path class="h" d="M21.15 109.538a4.444 4.444 0 11-4.4 4.445 4.424 4.424 0 014.4-4.445z"/><path class="h" d="M18.108 118.747a4.444 4.444 0 11-4.4 4.444 4.423 4.423 0 014.4-4.444z"/><path class="h" d="M108.031 110.598a5.113 5.113 0 11-5.064 5.112 5.088 5.088 0 015.064-5.112z"/><path class="h" d="M10.894 136.716a5.662 5.662 0 11-5.608 5.662 5.635 5.635 0 015.608-5.662z"/><path class="h" d="M178.43 36.361a5.147 5.147 0 11-5.1 5.146 5.122 5.122 0 015.1-5.146z"/><path class="h" d="M91.384 20.921a5.909 5.909 0 11-5.853 5.909 5.882 5.882 0 015.853-5.909z"/><path class="h" d="M186.927 11.003a6.672 6.672 0 11-6.609 6.672 6.639 6.639 0 016.609-6.672z"/><path class="h" d="M219.025 51.229a5.719 5.719 0 11-5.665 5.719 5.693 5.693 0 015.665-5.719z"/><path class="h" d="M248.846 79.687a6.6 6.6 0 11-6.531 6.6 6.565 6.565 0 016.531-6.6z"/><path class="h" d="M82.511 72.96a4.575 4.575 0 11-4.532 4.574 4.554 4.554 0 014.532-4.574z"/><path class="h" d="M57.019 52.755a4.575 4.575 0 11-4.53 4.574 4.553 4.553 0 014.53-4.574z"/><path class="i" d="M142.504 0a7.85 7.85 0 11-7.776 7.849A7.814 7.814 0 01142.504 0z"/><path class="i" d="M102.188 64.973a7.489 7.489 0 11-7.416 7.489 7.453 7.453 0 017.416-7.489z"/><path class="i" d="M65.583 29.708a7.488 7.488 0 11-7.417 7.488 7.453 7.453 0 017.417-7.488z"/><path class="i" d="M15.043 94.337a7.488 7.488 0 11-7.416 7.488 7.452 7.452 0 017.416-7.488z"/><path class="i" d="M7.513 150.761a7.488 7.488 0 11-7.417 7.488 7.454 7.454 0 017.417-7.488z"/><path class="i" d="M39.094 186.993a7.488 7.488 0 11-7.417 7.488 7.452 7.452 0 017.417-7.488z"/><path class="i" d="M156.033 276.152a7.811 7.811 0 11-7.736 7.811 7.774 7.774 0 017.736-7.811z"/><path class="i" d="M210.904 271.392a7.81 7.81 0 11-7.736 7.81 7.773 7.773 0 017.736-7.81z"/><path class="i" d="M48.357 77.051a7.488 7.488 0 11-7.417 7.488 7.452 7.452 0 017.417-7.488z"/><path class="i" d="M202.197 17.391a7 7 0 11-6.939 7 6.972 6.972 0 016.939-7z"/><path class="i" d="M233.539 50.722a7.005 7.005 0 11-6.938 7.006 6.972 6.972 0 016.938-7.006z"/><path class="i" d="M190.473 6.279a2.174 2.174 0 11-2.153 2.174 2.164 2.164 0 012.153-2.174z"/><path class="i" d="M131.137 8.132a2.174 2.174 0 11-2.152 2.174 2.164 2.164 0 012.152-2.174z"/><path class="i" d="M163.253 28.615a2.379 2.379 0 11-2.358 2.38 2.369 2.369 0 012.358-2.38z"/><path class="i" d="M199.802 52.082a2.38 2.38 0 11-2.356 2.38 2.369 2.369 0 012.356-2.38z"/><path class="i" d="M108.045 7a2.689 2.689 0 11-2.663 2.689A2.676 2.676 0 01108.045 7z"/><path class="i" d="M130.831 1.751a2.689 2.689 0 11-2.662 2.688 2.676 2.676 0 012.662-2.688z"/><path class="i" d="M140.007 32.783a2.689 2.689 0 11-2.663 2.688 2.676 2.676 0 012.663-2.688z"/><path class="i" d="M181.299 4.993a3 3 0 11-2.969 3 2.983 2.983 0 012.969-3z"/><path class="i" d="M76.847 29.229a2.689 2.689 0 11-2.662 2.688 2.676 2.676 0 012.662-2.688z"/><path class="i" d="M89.693 33.246a2.689 2.689 0 11-2.663 2.688 2.676 2.676 0 012.663-2.688z"/><path class="i" d="M103.151 36.273a3.521 3.521 0 11-3.488 3.522 3.5 3.5 0 013.488-3.522z"/><path class="i" d="M47.657 52.88a3.522 3.522 0 11-3.488 3.522 3.5 3.5 0 013.488-3.522z"/><path class="i" d="M57.171 89.897a3.521 3.521 0 11-3.488 3.52 3.5 3.5 0 013.488-3.52z"/><path class="i" d="M72.233 83.093a3.522 3.522 0 11-3.488 3.522 3.5 3.5 0 013.488-3.522z"/><path class="i" d="M117.222 94.098a3.522 3.522 0 11-3.488 3.522 3.506 3.506 0 013.488-3.522z"/><path class="i" d="M117.421 117.709a3.521 3.521 0 11-3.488 3.52 3.5 3.5 0 013.488-3.52z"/><path class="i" d="M158.05 149.105a3.74 3.74 0 11-3.7 3.739 3.722 3.722 0 013.7-3.739z"/><path class="i" d="M59.239 177.356a3.99 3.99 0 11-3.951 3.989 3.97 3.97 0 013.951-3.989z"/><path class="i" d="M32.682 201.686a4.539 4.539 0 11-4.5 4.538 4.516 4.516 0 014.5-4.538z"/><path class="i" d="M179.303 235.878a4.539 4.539 0 11-4.495 4.539 4.519 4.519 0 014.495-4.539z"/><path class="i" d="M224.104 272.235a4.539 4.539 0 11-4.495 4.539 4.518 4.518 0 014.495-4.539z"/><path class="i" d="M164.941 267.258a4.539 4.539 0 11-4.5 4.538 4.516 4.516 0 014.5-4.538z"/><path class="i" d="M237.608 223.547a4.539 4.539 0 11-4.495 4.539 4.518 4.518 0 014.495-4.539z"/><path class="i" d="M249.184 202.335a4.539 4.539 0 11-4.495 4.539 4.518 4.518 0 014.495-4.539z"/><path class="i" d="M230.535 247.608a4.928 4.928 0 11-4.88 4.927 4.9 4.9 0 014.88-4.927z"/><path class="i" d="M189.162 260.981a4.539 4.539 0 11-4.5 4.539 4.518 4.518 0 014.5-4.539z"/><path class="i" d="M200.739 243.886a4.539 4.539 0 11-4.5 4.538 4.517 4.517 0 014.5-4.538z"/><path class="i" d="M216.387 219.433a4.539 4.539 0 11-4.5 4.539 4.519 4.519 0 014.5-4.539z"/><path class="i" d="M77.268 251.677a4.539 4.539 0 11-4.5 4.538 4.516 4.516 0 014.5-4.538z"/><path class="i" d="M42.305 91.308a1.91 1.91 0 11-1.89 1.909 1.9 1.9 0 011.89-1.909z"/><path class="i" d="M82.935 121.122a1.909 1.909 0 11-1.89 1.909 1.9 1.9 0 011.89-1.909z"/><path class="i" d="M110.087 149.134a1.909 1.909 0 11-1.89 1.909 1.9 1.9 0 011.89-1.909z"/><path class="i" d="M62.955 160.245a1.909 1.909 0 11-1.892 1.908 1.9 1.9 0 011.892-1.908z"/><path class="i" d="M56.257 172.563a1.909 1.909 0 11-1.892 1.909 1.9 1.9 0 011.892-1.909z"/><path class="i" d="M136.447 177.543a1.91 1.91 0 11-1.89 1.909 1.9 1.9 0 011.89-1.909z"/><path class="i" d="M36.679 220.541a1.909 1.909 0 11-1.892 1.909 1.9 1.9 0 011.892-1.909z"/><path class="i" d="M24.477 226.82a1.91 1.91 0 11-1.892 1.909 1.9 1.9 0 011.892-1.909z"/><path class="i" d="M68.02 223.438a1.909 1.909 0 11-1.89 1.909 1.9 1.9 0 011.89-1.909z"/><path class="i" d="M155.275 170.34a1.309 1.309 0 11-1.295 1.308 1.3 1.3 0 011.295-1.308z"/><path class="i" d="M227.728 177.403a2.472 2.472 0 11-2.447 2.472 2.461 2.461 0 012.447-2.472z"/><path class="i" d="M252.81 111.593a2.927 2.927 0 11-2.9 2.928 2.914 2.914 0 012.9-2.928z"/><path class="i" d="M288.393 198.611a1.823 1.823 0 11-1.805 1.823 1.814 1.814 0 011.805-1.823z"/><path class="i" d="M289.679 167.665a1.823 1.823 0 11-1.807 1.823 1.814 1.814 0 011.807-1.823z"/><path class="i" d="M266.743 154.464a1.823 1.823 0 11-1.805 1.823 1.814 1.814 0 011.805-1.823z"/><path class="i" d="M296.752 140.809a2.278 2.278 0 11-2.256 2.278 2.267 2.267 0 012.256-2.278z"/><path class="i" d="M251.094 54.895a2.278 2.278 0 11-2.256 2.277 2.266 2.266 0 012.256-2.277z"/><path class="i" d="M221.941 93.416a2.278 2.278 0 11-2.256 2.277 2.266 2.266 0 012.256-2.277z"/><path class="i" d="M239.733 77.423a3.554 3.554 0 11-3.52 3.554 3.538 3.538 0 013.52-3.554z"/><path class="i" d="M227.087 45.589a2.927 2.927 0 11-2.9 2.927 2.912 2.912 0 012.9-2.927z"/><path class="i" d="M258.169 137.129a2.278 2.278 0 11-2.256 2.278 2.267 2.267 0 012.256-2.278z"/><path class="i" d="M238.232 126.742a2.278 2.278 0 11-2.256 2.278 2.267 2.267 0 012.256-2.278z"/><path class="i" d="M248.522 155.546a1.823 1.823 0 11-1.805 1.823 1.814 1.814 0 011.805-1.823z"/><path class="i" d="M152.167 192.807a1.309 1.309 0 11-1.3 1.308 1.3 1.3 0 011.3-1.308z"/><path class="i" d="M144.032 213.82a1.309 1.309 0 11-1.3 1.308 1.3 1.3 0 011.3-1.308z"/><path class="i" d="M195.477 261.863a1.309 1.309 0 11-1.3 1.308 1.3 1.3 0 011.3-1.308z"/><path class="i" d="M42.901 139.13a1.909 1.909 0 11-1.892 1.909 1.9 1.9 0 011.892-1.909z"/><path class="i" d="M53.802 120.321a2.509 2.509 0 11-2.486 2.509 2.5 2.5 0 012.486-2.509z"/><path class="i" d="M63.512 129.725a2.509 2.509 0 11-2.484 2.509 2.5 2.5 0 012.484-2.509z"/><path class="i" d="M134.863 158.938a2.509 2.509 0 11-2.486 2.509 2.5 2.5 0 012.486-2.509z"/><path class="i" d="M144.772 164.94a2.51 2.51 0 11-2.486 2.511 2.5 2.5 0 012.486-2.511z"/><path class="i" d="M70.45 127.941a2.893 2.893 0 11-2.866 2.893 2.879 2.879 0 012.866-2.893z"/><path class="i" d="M181.438 130.743a2.893 2.893 0 11-2.866 2.893 2.879 2.879 0 012.866-2.893z"/><path class="i" d="M187.577 86.723a2.893 2.893 0 11-2.865 2.893 2.88 2.88 0 012.865-2.893z"/><path class="i" d="M117.021 149.951a2.893 2.893 0 11-2.865 2.893 2.879 2.879 0 012.865-2.893z"/><path class="i" d="M117.223 168.759a2.893 2.893 0 11-2.865 2.893 2.879 2.879 0 012.865-2.893z"/><path class="i" d="M173.966 197.579a3.1 3.1 0 11-3.068 3.1 3.081 3.081 0 013.068-3.1z"/><path class="i" d="M259.065 187.625a3.1 3.1 0 11-3.068 3.1 3.081 3.081 0 013.068-3.1z"/><path class="i" d="M234.628 190.199a3.768 3.768 0 11-3.732 3.767 3.751 3.751 0 013.732-3.767z"/><path class="i" d="M268.497 205.998a3.768 3.768 0 11-3.731 3.767 3.749 3.749 0 013.731-3.767z"/><path class="i" d="M274.285 174.184a3.768 3.768 0 11-3.732 3.769 3.751 3.751 0 013.732-3.769z"/><path class="i" d="M295.721 166.611a3.768 3.768 0 11-3.732 3.767 3.75 3.75 0 013.732-3.767z"/><path class="i" d="M56.972 144.348a2.893 2.893 0 11-2.866 2.893 2.88 2.88 0 012.866-2.893z"/><path class="i" d="M17.495 204.975a2.894 2.894 0 11-2.865 2.893 2.88 2.88 0 012.865-2.893z"/><path class="i" d="M34.378 171.543a3.31 3.31 0 11-3.278 3.31 3.294 3.294 0 013.278-3.31z"/><path class="i" d="M62.132 221.127a2.759 2.759 0 11-2.733 2.759 2.747 2.747 0 012.733-2.759z"/><path class="i" d="M59.988 242.767a2.76 2.76 0 11-2.734 2.759 2.746 2.746 0 012.734-2.759z"/><path class="i" d="M192.248 275.445a2.76 2.76 0 11-2.734 2.759 2.746 2.746 0 012.734-2.759z"/><path class="i" d="M61.489 264.625a2.759 2.759 0 11-2.734 2.759 2.745 2.745 0 012.734-2.759z"/><path class="i" d="M101.145 284.533a2.76 2.76 0 11-2.733 2.76 2.748 2.748 0 012.733-2.76z"/><path class="i" d="M100.503 236.666a4.533 4.533 0 11-4.491 4.533 4.512 4.512 0 014.491-4.533z"/><path class="i" d="M52.057 239.046a4.533 4.533 0 11-4.491 4.533 4.512 4.512 0 014.491-4.533z"/><path class="i" d="M105.676 215.33a2.759 2.759 0 11-2.732 2.759 2.745 2.745 0 012.732-2.759z"/><path class="i" d="M144.047 278.954a2.759 2.759 0 11-2.734 2.759 2.745 2.745 0 012.734-2.759z"/><path class="i" d="M142.118 256.219a2.339 2.339 0 11-2.317 2.339 2.328 2.328 0 012.317-2.339z"/><path class="i" d="M160.429 105.914a1.909 1.909 0 11-1.89 1.909 1.9 1.9 0 011.89-1.909z"/><path class="i" d="M164.987 116.92a1.91 1.91 0 11-1.89 1.909 1.9 1.9 0 011.89-1.909z"/><path class="i" d="M67.675 59.111a3.893 3.893 0 11-3.856 3.894 3.876 3.876 0 013.856-3.894z"/><path class="i" d="M129.914 29.849a5.622 5.622 0 11-5.568 5.622 5.6 5.6 0 015.568-5.622z"/><path class="i" d="M166.313 34.636a5.622 5.622 0 11-5.569 5.622 5.6 5.6 0 015.569-5.622z"/><path class="i" d="M189.68 30.656a4.941 4.941 0 11-4.893 4.94 4.917 4.917 0 014.893-4.94z"/><path class="i" d="M89.235 50.631a6.3 6.3 0 11-6.241 6.3 6.272 6.272 0 016.241-6.3z"/><path class="i" d="M31.164 114.859a6.3 6.3 0 11-6.24 6.3 6.271 6.271 0 016.24-6.3z"/><path class="i" d="M117.052 196.258a6.3 6.3 0 11-6.241 6.3 6.271 6.271 0 016.241-6.3z"/><path class="i" d="M167.859 237.376a6.3 6.3 0 11-6.241 6.3 6.271 6.271 0 016.241-6.3z"/><path class="i" d="M225.093 142.678a6.861 6.861 0 11-6.8 6.862 6.829 6.829 0 016.8-6.862z"/><path class="i" d="M249.745 160.638a6.862 6.862 0 11-6.8 6.862 6.83 6.83 0 016.8-6.862z"/><path class="i" d="M278.898 188.773a6.861 6.861 0 11-6.8 6.86 6.829 6.829 0 016.8-6.86z"/><path class="i" d="M215.233 169.513a6.861 6.861 0 11-6.8 6.862 6.828 6.828 0 016.8-6.862z"/><path class="i" d="M131.411 189.423a6.857 6.857 0 11-6.791 6.856 6.823 6.823 0 016.791-6.856z"/><path class="i" d="M112.333 281.397a6.856 6.856 0 11-6.791 6.856 6.823 6.823 0 016.791-6.856z"/><path class="i" d="M80.912 103.914a7.442 7.442 0 11-7.372 7.442 7.407 7.407 0 017.372-7.442z"/><path class="i" d="M87.054 144.932a7.442 7.442 0 11-7.37 7.442 7.407 7.407 0 017.37-7.442z"/><path class="i" d="M161.702 189.617a7.442 7.442 0 11-7.372 7.442 7.408 7.408 0 017.372-7.442z"/><path class="i" d="M266.742 228.353a7.442 7.442 0 11-7.37 7.442 7.407 7.407 0 017.37-7.442z"/><path class="i" d="M268.668 136.813a7.442 7.442 0 11-7.372 7.442 7.408 7.408 0 017.372-7.442z"/><path class="i" d="M279.172 82.28a7.441 7.441 0 11-7.372 7.441 7.406 7.406 0 017.372-7.441z"/><path class="i" d="M231.583 93.965a7.442 7.442 0 11-7.37 7.441 7.406 7.406 0 017.37-7.441z"/><path class="i" d="M227.297 113.715a7.817 7.817 0 11-7.744 7.817 7.781 7.781 0 017.744-7.817z"/><path class="i" d="M220.419 195.857a7.243 7.243 0 11-7.175 7.242 7.209 7.209 0 017.175-7.242z"/><path class="i" d="M220.651 233.822a8.034 8.034 0 11-7.958 8.033 8 8 0 017.958-8.033z"/><path class="i" d="M249.375 212.18a8.034 8.034 0 11-7.958 8.033 8 8 0 017.958-8.033z"/><path class="i" d="M86.461 231.656a7.818 7.818 0 11-7.743 7.818 7.78 7.78 0 017.743-7.818z"/><path class="i" d="M145.126 148.19a7.785 7.785 0 11-7.711 7.785 7.748 7.748 0 017.711-7.785z"/><path class="i" d="M165.143 92.766a6.585 6.585 0 11-6.522 6.584 6.554 6.554 0 016.522-6.584z"/><path class="i" d="M36.317 53.568a6.766 6.766 0 11-6.7 6.764 6.734 6.734 0 016.7-6.764z"/><path class="i" d="M99.175 9.316a5.622 5.622 0 11-5.568 5.621 5.6 5.6 0 015.568-5.621z"/><path class="i" d="M150.1 15.371a4.661 4.661 0 11-4.617 4.661 4.64 4.64 0 014.617-4.661z"/><path class="i" d="M174.417 9.196a4.661 4.661 0 11-4.617 4.661 4.64 4.64 0 014.617-4.661z"/><path class="i" d="M80.977 17.901a5.22 5.22 0 11-5.171 5.22 5.2 5.2 0 015.171-5.22z"/><path class="i" d="M93.068 91.836a5.717 5.717 0 11-5.662 5.718 5.69 5.69 0 015.662-5.718z"/><path class="i" d="M143.066 40.383a4.661 4.661 0 11-4.617 4.661 4.64 4.64 0 014.617-4.661z"/><path class="i" d="M108.581 98.712a4.957 4.957 0 11-4.911 4.957 4.933 4.933 0 014.911-4.957z"/><path class="i" d="M108.976 123.722a5.758 5.758 0 11-5.7 5.758 5.731 5.731 0 015.7-5.758z"/><path class="i" d="M52.492 158.537a5.759 5.759 0 11-5.7 5.759 5.731 5.731 0 015.7-5.759z"/><path class="i" d="M63.094 117.519a5.458 5.458 0 11-5.406 5.459 5.434 5.434 0 015.406-5.459z"/><path class="i" d="M108.679 173.545a5.457 5.457 0 11-5.406 5.458 5.432 5.432 0 015.406-5.458z"/><path class="i" d="M66.809 200.356a5.458 5.458 0 11-5.4 5.456 5.431 5.431 0 015.4-5.456z"/><path class="i" d="M146.548 262.032a5.458 5.458 0 11-5.406 5.458 5.432 5.432 0 015.406-5.458z"/><path class="i" d="M257.803 241.041a5.458 5.458 0 11-5.4 5.458 5.432 5.432 0 015.4-5.458z"/><path class="i" d="M87.603 248.181a5.458 5.458 0 11-5.4 5.458 5.433 5.433 0 015.4-5.458z"/><path class="i" d="M149.591 215.573a5.458 5.458 0 11-5.406 5.458 5.432 5.432 0 015.406-5.458z"/><path class="i" d="M49.825 203.978a5.458 5.458 0 11-5.406 5.458 5.433 5.433 0 015.406-5.458z"/><path class="i" d="M34.031 225.84a5.818 5.818 0 11-5.762 5.818 5.79 5.79 0 015.762-5.818z"/><path class="i" d="M115.379 255.066a5.818 5.818 0 11-5.764 5.818 5.79 5.79 0 015.764-5.818z"/><path class="i" d="M105.303 270.431a5.818 5.818 0 11-5.762 5.818 5.79 5.79 0 015.762-5.818z"/><path class="i" d="M162.588 169.742a5.859 5.859 0 11-5.8 5.858 5.831 5.831 0 015.8-5.858z"/><path class="i" d="M176.462 165.741a5.858 5.858 0 11-5.8 5.858 5.83 5.83 0 015.8-5.858z"/><path class="i" d="M292.43 154.271a5.858 5.858 0 11-5.8 5.858 5.83 5.83 0 015.8-5.858z"/><path class="i" d="M121.503 58.91a4.353 4.353 0 11-4.311 4.352 4.332 4.332 0 014.311-4.352z"/><path class="i" d="M26.37 82.635a5.037 5.037 0 11-4.989 5.037 5.013 5.013 0 014.989-5.037z"/><path class="i" d="M37.271 126.655a5.037 5.037 0 11-4.989 5.037 5.013 5.013 0 014.989-5.037z"/><path class="i" d="M82.855 170.274a5.037 5.037 0 11-4.989 5.036 5.013 5.013 0 014.989-5.036z"/><path class="i" d="M204.635 129.937a5.037 5.037 0 11-4.985 5.036 5.013 5.013 0 014.989-5.036z"/><path class="i" d="M212.353 118.9a5.037 5.037 0 11-4.99 5.037 5.012 5.012 0 014.99-5.037z"/><path class="i" d="M261.012 126.474a5.037 5.037 0 11-4.989 5.037 5.012 5.012 0 014.989-5.037z"/><path class="i" d="M277.303 109.811a5.037 5.037 0 11-4.989 5.036 5.012 5.012 0 014.989-5.036z"/><path class="i" d="M245.15 92.497a5.038 5.038 0 11-4.99 5.037 5.014 5.014 0 014.99-5.037z"/><path class="i" d="M266.372 81.771a4.511 4.511 0 11-4.469 4.51 4.49 4.49 0 014.469-4.51z"/><path class="i" d="M246.437 69.651a4.511 4.511 0 11-4.469 4.511 4.49 4.49 0 014.469-4.511z"/><path class="i" d="M282.436 119.981a5.457 5.457 0 11-5.4 5.458 5.432 5.432 0 015.4-5.458z"/><path class="i" d="M261.208 54.441a6.075 6.075 0 11-6.018 6.075 6.047 6.047 0 016.018-6.075z"/><path class="i" d="M110.206 153.867a5.037 5.037 0 11-4.99 5.036 5.013 5.013 0 014.99-5.036z"/><path class="i" d="M21.217 143.863a5.637 5.637 0 11-5.583 5.636 5.611 5.611 0 015.583-5.636z"/><path class="i" d="M25.578 174.675a5.637 5.637 0 11-5.584 5.637 5.611 5.611 0 015.584-5.637z"/><path class="i" d="M208.52 54.028a3.522 3.522 0 11-3.49 3.522 3.5 3.5 0 013.49-3.522z"/><path class="i" d="M117.985 52.236a3.152 3.152 0 11-3.122 3.151 3.137 3.137 0 013.122-3.151z"/><path class="i" d="M217.988 16.666a6.522 6.522 0 11-6.459 6.522 6.491 6.491 0 016.459-6.522z"/><path class="j" d="M106.954 20.461a7.025 7.025 0 11-6.959 7.025 6.993 6.993 0 016.959-7.025z"/><path class="j" d="M74.796 45.436a7.13 7.13 0 11-7.063 7.129 7.1 7.1 0 017.063-7.129z"/><path class="j" d="M50.103 60.28a7.13 7.13 0 11-7.061 7.131 7.1 7.1 0 017.061-7.131z"/><path class="j" d="M24.28 127.074a7.129 7.129 0 11-7.063 7.129 7.1 7.1 0 017.063-7.129z"/><path class="j" d="M45.769 144.389a7.13 7.13 0 11-7.063 7.13 7.1 7.1 0 017.063-7.13z"/><path class="j" d="M71.592 175.788a7.13 7.13 0 11-7.063 7.13 7.1 7.1 0 017.063-7.13z"/><path class="j" d="M63.264 227.586a7.129 7.129 0 11-7.061 7.129 7.1 7.1 0 017.061-7.129z"/><path class="j" d="M167.724 153.714a7.13 7.13 0 11-7.063 7.129 7.1 7.1 0 017.063-7.129z"/><path class="j" d="M192.981 124.028a7.13 7.13 0 11-7.061 7.129 7.1 7.1 0 017.061-7.129z"/><path class="j" d="M217.862 128.594a7.13 7.13 0 11-7.061 7.13 7.1 7.1 0 017.061-7.13z"/><path class="j" d="M106.954 44.087a7.025 7.025 0 11-6.959 7.025 6.993 6.993 0 016.959-7.025z"/><path class="j" d="M130.69 42.311a7.785 7.785 0 11-7.711 7.785 7.748 7.748 0 017.711-7.785z"/><path class="j" d="M121.83 101.306a7.785 7.785 0 11-7.711 7.785 7.747 7.747 0 017.711-7.785z"/><path class="j" d="M247.933 129.343a7.34 7.34 0 11-7.27 7.339 7.306 7.306 0 017.27-7.339z"/><path class="j" d="M241.146 174.47a8.075 8.075 0 11-8 8.076 8.037 8.037 0 018-8.076z"/><path class="j" d="M81.492 128.708a7.785 7.785 0 11-7.711 7.785 7.747 7.747 0 017.711-7.785z"/><path class="j" d="M125.033 172.666a7.786 7.786 0 11-7.711 7.785 7.748 7.748 0 017.711-7.785z"/><path class="j" d="M56.4 248.772a7.785 7.785 0 11-7.711 7.785 7.748 7.748 0 017.711-7.785z"/><path class="j" d="M46.621 170.573a7.785 7.785 0 11-7.711 7.785 7.748 7.748 0 017.711-7.785z"/><path class="j" d="M131.457 245.769a7.785 7.785 0 11-7.711 7.785 7.748 7.748 0 017.711-7.785z"/><path class="j" d="M175.654 19.528a7.786 7.786 0 11-7.711 7.786 7.749 7.749 0 017.711-7.786z"/><path class="j" d="M260.234 67.29a7.448 7.448 0 11-7.377 7.448 7.412 7.412 0 017.377-7.448z"/><path class="j" d="M224.797 76.74a8.123 8.123 0 11-8.046 8.123 8.084 8.084 0 018.046-8.123z"/><path class="j" d="M132.862 13.5a3.522 3.522 0 11-3.488 3.522 3.5 3.5 0 013.488-3.522z"/><path class="j" d="M80.208 60.415a4.7 4.7 0 11-4.658 4.7 4.682 4.682 0 014.658-4.7z"/><path class="j" d="M80.542 35.021a5.123 5.123 0 11-5.074 5.123 5.1 5.1 0 015.074-5.123z"/><path class="j" d="M83.183 83.006a6.233 6.233 0 11-6.174 6.232 6.2 6.2 0 016.174-6.232z"/><path class="j" d="M114.661 135.908a6.233 6.233 0 11-6.174 6.232 6.2 6.2 0 016.174-6.232z"/><path class="j" d="M134.463 207.697a6.233 6.233 0 11-6.174 6.232 6.2 6.2 0 016.174-6.232z"/><path class="j" d="M144.82 187.003a5.376 5.376 0 11-5.326 5.375 5.35 5.35 0 015.326-5.375z"/><path class="j" d="M144.594 243.729a4.309 4.309 0 11-4.269 4.308 4.288 4.288 0 014.269-4.308z"/><path class="j" d="M159.758 292.405a3.8 3.8 0 11-3.761 3.8 3.78 3.78 0 013.761-3.8z"/><path class="j" d="M217.012 250.371a4.805 4.805 0 11-4.758 4.805 4.782 4.782 0 014.758-4.805z"/><path class="j" d="M237.746 261.79a4.8 4.8 0 11-4.758 4.8 4.782 4.782 0 014.758-4.8z"/><path class="j" d="M285.624 202.798a4.044 4.044 0 11-4.005 4.044 4.025 4.025 0 014.005-4.044z"/><path class="j" d="M160.61 18.396a4.366 4.366 0 11-4.321 4.369 4.345 4.345 0 014.323-4.366z"/><path class="j" d="M233.489 68.133a5.254 5.254 0 11-5.2 5.253 5.229 5.229 0 015.2-5.253z"/><path class="j" d="M245.525 43.327a5.591 5.591 0 11-5.539 5.59 5.565 5.565 0 015.539-5.59z"/><path class="j" d="M211.927 28.859a4.366 4.366 0 11-4.325 4.366 4.345 4.345 0 014.325-4.366z"/><path class="j" d="M153.589 100.241a4.366 4.366 0 11-4.324 4.366 4.345 4.345 0 014.324-4.366z"/><path class="j" d="M273.44 72.183a5.085 5.085 0 11-5.037 5.086 5.061 5.061 0 015.037-5.086z"/><path class="j" d="M139.548 18.988a5.967 5.967 0 11-5.911 5.966 5.938 5.938 0 015.911-5.966z"/><path class="j" d="M217.61 38.226a5.967 5.967 0 11-5.911 5.966 5.938 5.938 0 015.911-5.966z"/><path class="j" d="M176.99 85.646a5.967 5.967 0 11-5.909 5.966 5.938 5.938 0 015.909-5.966z"/><path class="j" d="M289.333 109.554a5.275 5.275 0 11-5.224 5.274 5.249 5.249 0 015.224-5.274z"/><path class="j" d="M268.783 182.056a5.275 5.275 0 11-5.226 5.274 5.25 5.25 0 015.226-5.274z"/><path class="j" d="M160.592 206.306a5.953 5.953 0 11-5.9 5.953 5.925 5.925 0 015.9-5.953z"/><path class="j" d="M197.947 280.985a5.335 5.335 0 11-5.283 5.334 5.309 5.309 0 015.283-5.334z"/><path class="j" d="M181.971 273.78a5.952 5.952 0 11-5.9 5.952 5.924 5.924 0 015.9-5.952z"/><path class="j" d="M144.656 287.197a5.953 5.953 0 11-5.9 5.952 5.923 5.923 0 015.9-5.952z"/><path class="j" d="M238.44 151.903a6.5 6.5 0 11-6.44 6.5 6.471 6.471 0 016.44-6.5z"/><path class="j" d="M195.275 219.459a6.5 6.5 0 11-6.44 6.5 6.47 6.47 0 016.44-6.5z"/><path class="j" d="M164.221 250.902a7.091 7.091 0 11-7.023 7.091 7.057 7.057 0 017.023-7.091z"/><path class="j" d="M191.506 233.544a6.5 6.5 0 11-6.441 6.5 6.471 6.471 0 016.441-6.5z"/><path class="j" d="M237.12 234.302a6.5 6.5 0 11-6.44 6.5 6.47 6.47 0 016.44-6.5z"/><path class="j" d="M257.1 173.683a6.036 6.036 0 11-5.978 6.035 6.007 6.007 0 015.978-6.035z"/><path class="j" d="M265.395 214.025a6.608 6.608 0 11-6.546 6.607 6.576 6.576 0 016.546-6.607z"/><path class="j" d="M237.31 198.801a6.8 6.8 0 11-6.734 6.8 6.765 6.765 0 016.734-6.8z"/><path class="j" d="M263.508 111.943a6.5 6.5 0 11-6.44 6.5 6.47 6.47 0 016.44-6.5z"/><path class="j" d="M285.752 140.275a7.094 7.094 0 11-7.028 7.094 7.06 7.06 0 017.028-7.094z"/><path class="j" d="M129.017 20.758a3.522 3.522 0 11-3.488 3.522 3.506 3.506 0 013.488-3.522z"/><path class="j" d="M118.008 43.917a3.522 3.522 0 11-3.49 3.522 3.506 3.506 0 013.49-3.522z"/><path class="j" d="M192.034 24.725a2.592 2.592 0 11-2.566 2.593 2.579 2.579 0 012.566-2.593z"/><path class="j" d="M211.259 48.52a2.592 2.592 0 11-2.568 2.591 2.579 2.579 0 012.568-2.591z"/><path class="j" d="M165.791 80.159a2.172 2.172 0 11-2.15 2.173 2.162 2.162 0 012.15-2.173z"/><path class="j" d="M184.678 94.165a2.172 2.172 0 11-2.152 2.171 2.162 2.162 0 012.152-2.171z"/><path class="j" d="M246.363 37.721a2.591 2.591 0 11-2.566 2.59 2.578 2.578 0 012.566-2.59z"/><path class="j" d="M259.232 88.683a2.592 2.592 0 11-2.568 2.591 2.58 2.58 0 012.568-2.591z"/><path class="j" d="M224.925 106.761a2.592 2.592 0 11-2.566 2.591 2.579 2.579 0 012.566-2.591z"/><path class="j" d="M228.506 156.428a2.592 2.592 0 11-2.566 2.591 2.579 2.579 0 012.566-2.591z"/><path class="j" d="M243.02 210.409a1.513 1.513 0 11-1.5 1.513 1.505 1.505 0 011.5-1.513z"/><path class="j" d="M234.538 257.428a1.877 1.877 0 11-1.859 1.877 1.869 1.869 0 011.859-1.877z"/><path class="j" d="M190.207 281.736a1.877 1.877 0 11-1.859 1.877 1.868 1.868 0 011.859-1.877z"/><path class="j" d="M183.907 269.014a1.877 1.877 0 11-1.859 1.877 1.868 1.868 0 011.859-1.877z"/><path class="j" d="M172.335 192.902a1.513 1.513 0 11-1.5 1.513 1.505 1.505 0 011.5-1.513z"/><path class="j" d="M269.409 108.665a2.592 2.592 0 11-2.566 2.591 2.578 2.578 0 012.566-2.591z"/><path class="j" d="M272.991 120.081a2.592 2.592 0 11-2.566 2.591 2.58 2.58 0 012.566-2.591z"/><path class="j" d="M283.359 155.789a2.274 2.274 0 11-2.252 2.274 2.264 2.264 0 012.252-2.274z"/><path class="j" d="M290.521 192.141a2.274 2.274 0 11-2.253 2.274 2.263 2.263 0 012.253-2.274z"/><path class="j" d="M275.516 203.178a2.273 2.273 0 11-2.252 2.272 2.261 2.261 0 012.252-2.272z"/><path class="j" d="M209.658 199.753a2.273 2.273 0 11-2.252 2.273 2.262 2.262 0 012.252-2.273z"/><path class="j" d="M283.169 105.619a2.592 2.592 0 11-2.566 2.591 2.58 2.58 0 012.566-2.591z"/><path class="j" d="M256.404 142.49a3.209 3.209 0 11-3.178 3.209 3.193 3.193 0 013.178-3.209z"/><path class="j" d="M211.919 162.09a3.21 3.21 0 11-3.179 3.209 3.194 3.194 0 013.179-3.209z"/><path class="j" d="M228.884 209.268a3.605 3.605 0 11-3.572 3.6 3.588 3.588 0 013.572-3.6z"/><path class="j" d="M214.181 263.502a3.035 3.035 0 11-3.006 3.034 3.019 3.019 0 013.006-3.034z"/><path class="j" d="M247.921 239.525a3.606 3.606 0 11-3.57 3.606 3.589 3.589 0 013.57-3.606z"/><path class="j" d="M169.697 203.368a3.035 3.035 0 11-3.006 3.035 3.022 3.022 0 013.006-3.035z"/><path class="j" d="M222.129 227.144a2.658 2.658 0 11-2.633 2.655 2.646 2.646 0 012.633-2.659z"/><path class="j" d="M126.042 262.889a3.035 3.035 0 11-3.006 3.035 3.022 3.022 0 013.006-3.035z"/><path class="j" d="M136.843 283.79a3.035 3.035 0 11-3.006 3.035 3.021 3.021 0 013.006-3.035z"/><path class="j" d="M258.854 225.268a2.829 2.829 0 11-2.8 2.828 2.815 2.815 0 012.8-2.828z"/><path class="j" d="M211.166 191.396a3.4 3.4 0 11-3.368 3.4 3.383 3.383 0 013.368-3.4z"/><path class="j" d="M210.422 13.757a2.592 2.592 0 11-2.566 2.591 2.579 2.579 0 012.566-2.591z"/><path class="j" d="M255.722 47.507a3.773 3.773 0 11-3.738 3.773 3.755 3.755 0 013.738-3.773z"/><path class="j" d="M204.905 12.616a1.71 1.71 0 11-1.693 1.71 1.7 1.7 0 011.693-1.71z"/><path class="j" d="M183.008 46.364a1.71 1.71 0 11-1.693 1.709 1.7 1.7 0 011.693-1.709z"/><path class="j" d="M213.598 61.383a1.71 1.71 0 11-1.693 1.71 1.7 1.7 0 011.693-1.71z"/><path class="j" d="M109.127 13.926a2.929 2.929 0 11-2.9 2.93 2.916 2.916 0 012.9-2.93z"/><path class="j" d="M89.072 13.926a2.929 2.929 0 11-2.9 2.93 2.916 2.916 0 012.9-2.93z"/><path class="j" d="M60.982 64.594a3.069 3.069 0 11-3.04 3.069 3.055 3.055 0 013.04-3.069z"/><path class="j" d="M20.267 77.916a3.069 3.069 0 11-3.04 3.069 3.054 3.054 0 013.04-3.069z"/><path class="j" d="M103.959 135.101a3.923 3.923 0 11-3.886 3.923 3.9 3.9 0 013.886-3.923z"/><path class="j" d="M76.062 118.638a4.592 4.592 0 11-4.548 4.592 4.57 4.57 0 014.548-4.592z"/><path class="j" d="M64.375 149.275a4.592 4.592 0 11-4.548 4.592 4.57 4.57 0 014.548-4.592z"/><path class="j" d="M70.676 211.977a4.591 4.591 0 11-4.549 4.592 4.571 4.571 0 014.549-4.592z"/><path class="j" d="M94.079 276.95a4.592 4.592 0 11-4.548 4.592 4.57 4.57 0 014.548-4.592z"/><path class="j" d="M59.874 210.615a4.591 4.591 0 11-4.548 4.591 4.57 4.57 0 014.548-4.591z"/><path class="j" d="M36.101 77.535a3.64 3.64 0 11-3.606 3.64 3.623 3.623 0 013.606-3.64z"/><path class="j" d="M157.491 86.288a3.069 3.069 0 11-3.04 3.069 3.055 3.055 0 013.04-3.069z"/><path class="j" d="M248.534 145.377a4.3 4.3 0 11-4.264 4.3 4.284 4.284 0 014.264-4.3z"/><path class="j" d="M218.94 156.034a4.3 4.3 0 11-4.264 4.3 4.283 4.283 0 014.264-4.3z"/><path class="j" d="M103.394 89.904a3.64 3.64 0 11-3.606 3.639 3.623 3.623 0 013.606-3.639z"/><path class="j" d="M59.285 71.445a4.021 4.021 0 11-3.983 4.02 4 4 0 013.983-4.02z"/><path class="j" d="M62.87 80.389a4.591 4.591 0 11-4.551 4.594 4.569 4.569 0 014.548-4.592z"/><path class="j" d="M30.069 102.273a4.591 4.591 0 11-4.548 4.591 4.569 4.569 0 014.548-4.591z"/><path class="j" d="M32.709 150.798a4.591 4.591 0 11-4.548 4.592 4.569 4.569 0 014.548-4.592z"/><path class="j" d="M11.974 186.48a5.446 5.446 0 11-5.395 5.446 5.421 5.421 0 015.395-5.446z"/><path class="j" d="M67.576 104.937a4.592 4.592 0 11-4.548 4.592 4.57 4.57 0 014.548-4.592z"/><path class="j" d="M44.96 116.925a4.972 4.972 0 11-4.926 4.973 4.949 4.949 0 014.926-4.973z"/><path class="j" d="M37.797 94.52a5.114 5.114 0 11-5.065 5.114 5.089 5.089 0 015.065-5.114z"/><path class="j" d="M95.853 127.631a5.685 5.685 0 11-5.63 5.684 5.658 5.658 0 015.63-5.684z"/><path class="j" d="M40.496 237.132a5.684 5.684 0 11-5.63 5.684 5.657 5.657 0 015.63-5.684z"/><path class="j" d="M23.618 191.989a6.527 6.527 0 11-6.463 6.526 6.5 6.5 0 016.463-6.526z"/><path class="j" d="M9.9 109.031a6.207 6.207 0 11-6.147 6.207 6.178 6.178 0 016.147-6.207z"/><path class="j" d="M97.738 80.341a5.211 5.211 0 11-5.162 5.211 5.186 5.186 0 015.162-5.211z"/><path class="j" d="M63.16 46.327a2.928 2.928 0 11-2.9 2.928 2.914 2.914 0 012.9-2.928z"/><path class="j" d="M120.837 88.824a2.487 2.487 0 11-2.462 2.487 2.476 2.476 0 012.462-2.487z"/><path class="j" d="M45.441 103.312a1.7 1.7 0 11-1.683 1.7 1.691 1.691 0 011.683-1.7z"/><path class="j" d="M92.187 159.259a1.7 1.7 0 11-1.683 1.7 1.692 1.692 0 011.683-1.7z"/><path class="j" d="M58.658 205.604a1.7 1.7 0 11-1.685 1.7 1.692 1.692 0 011.685-1.7z"/><path class="j" d="M153.169 294.204a1.7 1.7 0 11-1.683 1.7 1.69 1.69 0 011.683-1.7z"/><path class="j" d="M199.75 276.938a1.7 1.7 0 11-1.683 1.7 1.691 1.691 0 011.683-1.7z"/><path class="j" d="M154.07 271.029a1.7 1.7 0 11-1.683 1.7 1.692 1.692 0 011.683-1.7z"/><path class="j" d="M177.386 158.308a1.7 1.7 0 11-1.683 1.7 1.691 1.691 0 011.683-1.7z"/><path class="j" d="M206.979 113.398a1.7 1.7 0 11-1.683 1.7 1.692 1.692 0 011.683-1.7z"/><path class="j" d="M203.398 125.386a1.7 1.7 0 11-1.685 1.7 1.691 1.691 0 011.685-1.7z"/><path class="j" d="M100.67 100.077a1.7 1.7 0 11-1.683 1.7 1.692 1.692 0 011.683-1.7z"/><path class="j" d="M104.439 161.733a1.7 1.7 0 11-1.683 1.7 1.691 1.691 0 011.683-1.7z"/><path class="j" d="M2.841 136.246a2.067 2.067 0 11-2.049 2.067 2.058 2.058 0 012.049-2.067z"/><path class="j" d="M52.798 233.251a2.068 2.068 0 11-2.049 2.068 2.058 2.058 0 012.049-2.068z"/><path class="j" d="M21.124 155.997a2.678 2.678 0 11-2.652 2.678 2.666 2.666 0 012.652-2.678z"/><path class="j" d="M17.355 182.639a2.678 2.678 0 11-2.653 2.677 2.664 2.664 0 012.653-2.677z"/><path class="j" d="M74.288 234.89a2.678 2.678 0 11-2.653 2.678 2.666 2.666 0 012.653-2.678z"/><path class="j" d="M49.776 196.911a2.678 2.678 0 11-2.652 2.678 2.665 2.665 0 012.652-2.678z"/><path class="j" d="M74.091 169.509a2.678 2.678 0 11-2.652 2.677 2.665 2.665 0 012.652-2.677z"/><path class="j" d="M156.841 157.52a2.678 2.678 0 11-2.653 2.678 2.666 2.666 0 012.653-2.678z"/><path class="j" d="M188.695 137.907a2.309 2.309 0 11-2.287 2.309 2.3 2.3 0 012.287-2.309z"/><path class="j" d="M62.217 185.303a2.678 2.678 0 11-2.653 2.678 2.666 2.666 0 012.653-2.678z"/><path class="j" d="M137.824 261.725a3.042 3.042 0 11-3.013 3.043 3.028 3.028 0 013.013-3.043z"/><path class="j" d="M99.346 211.202a2.678 2.678 0 11-2.652 2.678 2.666 2.666 0 012.652-2.678z"/><path class="j" d="M114.994 183.59a2.678 2.678 0 11-2.652 2.677 2.666 2.666 0 012.652-2.677z"/><path class="j" d="M113.675 189.87a2.678 2.678 0 11-2.653 2.678 2.666 2.666 0 012.653-2.678z"/><path class="j" d="M94.323 258.535a2.165 2.165 0 11-2.145 2.164 2.154 2.154 0 012.145-2.164z"/><path class="j" d="M85.4 161.936a3.21 3.21 0 11-3.178 3.209 3.194 3.194 0 013.178-3.209z"/><path class="j" d="M68.749 255.302a3.21 3.21 0 11-3.179 3.21 3.194 3.194 0 013.179-3.21z"/><path class="j" d="M126.115 118.168a3.21 3.21 0 11-3.178 3.209 3.194 3.194 0 013.178-3.209z"/><path class="j" d="M132.902 151.279a3.21 3.21 0 11-3.179 3.21 3.194 3.194 0 013.179-3.21z"/><path class="j" d="M110.094 164.79a3.59 3.59 0 11-3.556 3.589 3.572 3.572 0 013.556-3.589z"/><path class="j" d="M168.433 106.179a4.827 4.827 0 11-4.782 4.827 4.8 4.8 0 014.782-4.827z"/><path class="j" d="M244.773 103.324a4.827 4.827 0 11-4.782 4.827 4.8 4.8 0 014.782-4.827z"/><path class="j" d="M137.049 182.107a3.59 3.59 0 11-3.556 3.59 3.572 3.572 0 013.556-3.59z"/><path class="j" d="M157.751 181.425a3.59 3.59 0 11-3.556 3.591 3.574 3.574 0 013.556-3.591z"/><path class="j" d="M107.709 205.563a3.9 3.9 0 11-3.866 3.9 3.884 3.884 0 013.866-3.9z"/><path class="j" d="M99.159 262.131a3.9 3.9 0 11-3.866 3.9 3.884 3.884 0 013.866-3.9z"/><path class="j" d="M130.661 220.783a3.9 3.9 0 11-3.866 3.9 3.885 3.885 0 013.866-3.9z"/><path class="j" d="M193.784 252.464a4.022 4.022 0 11-3.983 4.022 4 4 0 013.983-4.022z"/><path class="j" d="M3.026 144.009a3.058 3.058 0 11-3.029 3.059 3.045 3.045 0 013.029-3.059z"/></svg>
