<svg width="96px" height="56px" viewBox="0 0 96 57" fill="none" xmlns="http://www.w3.org/2000/svg" alt=""><path d="M48.2192 2.80247C68.1635 2.80247 85.8621 12.877 93.6366 28.5555C85.8728 44.2339 68.1635 54.3085 48.2192 54.3085C28.2749 54.3085 10.5657 44.2339 2.80183 28.5555C10.5657 12.877 28.2856 2.80247 48.2192 2.80247ZM48.2192 0.703613C26.5746 0.703613 8.06327 12.2159 0.449148 28.524C0.149716 29.1746 0 29.5 0 29.5C0 29.5 0.149716 29.1851 0.438454 28.5555C8.04189 44.8741 26.5639 56.4073 48.2192 56.4073C69.8746 56.4073 88.3966 44.8741 96 28.5555C88.3966 12.2368 69.8746 0.703613 48.2192 0.703613Z" fill="#32373E"></path><g clip-path="url(#clip0_2769_7305)"><path d="M48.1224 46.9294C38.0705 46.9294 29.8906 38.9022 29.8906 29.0381C29.8906 19.1739 38.0705 11.1467 48.1224 11.1467C58.1743 11.1467 66.3542 19.1739 66.3542 29.0381C66.3542 38.9022 58.1743 46.9294 48.1224 46.9294Z" fill="#3AD2A3"></path><path d="M48.1222 12.1452C57.6146 12.1452 65.3366 19.7231 65.3366 29.0382C65.3366 38.3532 57.6146 45.9311 48.1222 45.9311C38.6299 45.9311 30.9078 38.3532 30.9078 29.0382C30.9078 19.7231 38.6299 12.1452 48.1222 12.1452ZM48.1222 10.1484C37.4904 10.1484 28.873 18.6049 28.873 29.0382C28.873 39.4714 37.4904 47.9279 48.1222 47.9279C58.7541 47.9279 67.3714 39.4714 67.3714 29.0382C67.3714 18.6049 58.7439 10.1484 48.1222 10.1484Z" fill="#32373E"></path><path fill-rule="evenodd" clip-rule="evenodd" d="M42.5343 33.8133C43.8226 34.6153 45.7073 35.412 48.1219 35.412C50.5365 35.412 52.4211 34.6153 53.7095 33.8133C54.3541 33.412 54.8444 33.0122 55.1689 32.7178C55.3308 32.571 55.4504 32.4513 55.5262 32.3721C55.5641 32.3326 55.591 32.3033 55.6067 32.2859L55.6217 32.269L55.6209 32.27L55.6203 32.2706C55.62 32.271 55.6197 32.2714 56.5434 33.0278C57.4671 33.7842 57.4668 33.7846 57.4664 33.785L57.4657 33.7859L57.4639 33.788L57.4596 33.793L57.4474 33.807C57.4378 33.818 57.4251 33.8323 57.4095 33.8497C57.3781 33.8846 57.3346 33.9318 57.279 33.9898C57.168 34.1056 57.0087 34.2644 56.8022 34.4517C56.3899 34.8257 55.7854 35.3172 54.9984 35.8071C53.4236 36.7875 51.0974 37.7732 48.1219 37.7732C45.1463 37.7732 42.8202 36.7875 41.2454 35.8071C40.4583 35.3172 39.8539 34.8257 39.4416 34.4517C39.2351 34.2644 39.0758 34.1056 38.9648 33.9898C38.9092 33.9318 38.8657 33.8846 38.8343 33.8497C38.8186 33.8323 38.806 33.818 38.7964 33.807L38.7842 33.793L38.7799 33.788L38.7781 33.7859L38.7774 33.785C38.777 33.7846 38.7767 33.7842 39.7004 33.0278C40.6241 32.2714 40.6238 32.271 40.6235 32.2706L40.6229 32.27L40.622 32.2689L40.621 32.2677C40.6206 32.2673 40.621 32.2678 40.6221 32.269L40.6371 32.2859C40.6528 32.3033 40.6797 32.3326 40.7175 32.3721C40.7934 32.4513 40.913 32.571 41.0749 32.7178C41.3994 33.0122 41.8897 33.412 42.5343 33.8133ZM55.6217 32.269C55.6228 32.2678 55.6232 32.2673 55.6228 32.2677L55.6218 32.2689L55.6217 32.269Z" fill="#32373E"></path><path d="M53.0466 27.2509C54.1985 27.2509 55.1323 26.3346 55.1323 25.2042C55.1323 24.0738 54.1985 23.1575 53.0466 23.1575C51.8947 23.1575 50.9609 24.0738 50.9609 25.2042C50.9609 26.3346 51.8947 27.2509 53.0466 27.2509Z" fill="#32373E"></path><path d="M43.1872 27.2509C44.3391 27.2509 45.2729 26.3346 45.2729 25.2042C45.2729 24.0738 44.3391 23.1575 43.1872 23.1575C42.0353 23.1575 41.1016 24.0738 41.1016 25.2042C41.1016 26.3346 42.0353 27.2509 43.1872 27.2509Z" fill="#32373E"></path></g></svg>