<svg width="96px" height="56px" viewBox="0 0 96 56" fill="none" xmlns="http://www.w3.org/2000/svg" alt=""><path d="M48.2192 2.09886C68.1635 2.09886 85.8621 12.1734 93.6366 27.8519C85.8728 43.5303 68.1635 53.6048 48.2192 53.6048C28.2749 53.6048 10.5657 43.5303 2.80183 27.8519C10.5657 12.1734 28.2856 2.09886 48.2192 2.09886ZM48.2192 0C26.5746 0 8.06327 11.5122 0.449148 27.8204C0.149716 28.471 0 28.7963 0 28.7963C0 28.7963 0.149716 28.4815 0.438454 27.8519C8.04189 44.1705 26.5639 55.7037 48.2192 55.7037C69.8746 55.7037 88.3966 44.1705 96 27.8519C88.3966 11.5332 69.8746 0 48.2192 0Z" fill="#32373E"></path><g clip-path="url(#clip0_2769_6984)"><path d="M48.1224 46.058C38.0705 46.058 29.8906 38.0309 29.8906 28.1667C29.8906 18.3025 38.0705 10.2754 48.1224 10.2754C58.1743 10.2754 66.3542 18.3025 66.3542 28.1667C66.3542 38.0309 58.1743 46.058 48.1224 46.058Z" fill="#EC6E38"></path><path d="M48.1222 11.2738C57.6146 11.2738 65.3366 18.8516 65.3366 28.1667C65.3366 37.4818 57.6146 45.0596 48.1222 45.0596C38.6299 45.0596 30.9078 37.4818 30.9078 28.1667C30.9078 18.8516 38.6299 11.2738 48.1222 11.2738ZM48.1222 9.27698C37.4904 9.27698 28.873 17.7334 28.873 28.1667C28.873 38.6 37.4904 47.0564 48.1222 47.0564C58.7541 47.0564 67.3714 38.6 67.3714 28.1667C67.3714 17.7334 58.7439 9.27698 48.1222 9.27698Z" fill="#32373E"></path><path fill-rule="evenodd" clip-rule="evenodd" d="M40.0268 37.0057C40.0271 37.0053 40.0274 37.0049 39.0671 36.2937C38.1068 35.5825 38.1071 35.5821 38.1074 35.5817L38.1082 35.5807L38.1098 35.5786L38.1141 35.5731L38.1263 35.5576C38.1361 35.5452 38.1491 35.5289 38.1654 35.509C38.1979 35.469 38.2434 35.4143 38.3019 35.3469C38.4186 35.2122 38.5872 35.0264 38.8063 34.8066C39.2436 34.368 39.8874 33.7889 40.7277 33.2105C42.4077 32.0542 44.9057 30.8799 48.1117 30.8799C51.3178 30.8799 53.8158 32.0542 55.4958 33.2105C56.3361 33.7889 56.9799 34.368 57.4172 34.8066C57.6363 35.0264 57.8049 35.2122 57.9216 35.3469C57.98 35.4143 58.0256 35.469 58.0581 35.509C58.0744 35.5289 58.0874 35.5452 58.0972 35.5576L58.1094 35.5731L58.1137 35.5786L58.1153 35.5807L58.1161 35.5817C58.1164 35.5821 58.1167 35.5825 57.1564 36.2937C56.1961 37.0049 56.1964 37.0053 56.1967 37.0057L56.1972 37.0063L56.198 37.0073L56.1986 37.0081C56.1984 37.0078 56.1977 37.007 56.1966 37.0056L56.1788 36.9834C56.1608 36.9613 56.1307 36.9251 56.0888 36.8767C56.0049 36.7799 55.8739 36.635 55.6973 36.4579C55.3433 36.1028 54.8114 35.6236 54.1141 35.1437C52.719 34.1834 50.6947 33.2411 48.1117 33.2411C45.5288 33.2411 43.5045 34.1834 42.1094 35.1437C41.4121 35.6236 40.8802 36.1028 40.5262 36.4579C40.3496 36.635 40.2186 36.7799 40.1347 36.8767C40.0928 36.9251 40.0627 36.9613 40.0447 36.9834L40.0269 37.0056C40.0254 37.0074 40.0247 37.0083 40.0248 37.0082L40.0255 37.0073L40.0263 37.0063L40.0268 37.0057Z" fill="#32373E"></path><path d="M53.0466 26.3796C54.1985 26.3796 55.1323 25.4632 55.1323 24.3329C55.1323 23.2025 54.1985 22.2861 53.0466 22.2861C51.8947 22.2861 50.9609 23.2025 50.9609 24.3329C50.9609 25.4632 51.8947 26.3796 53.0466 26.3796Z" fill="#32373E"></path><path d="M43.1872 26.3796C44.3391 26.3796 45.2729 25.4632 45.2729 24.3329C45.2729 23.2025 44.3391 22.2861 43.1872 22.2861C42.0353 22.2861 41.1016 23.2025 41.1016 24.3329C41.1016 25.4632 42.0353 26.3796 43.1872 26.3796Z" fill="#32373E"></path></g></svg>