<svg xmlns="http://www.w3.org/2000/svg" width="80px" height="80px" viewBox="0 0 128 128"><path d="M64.001.005a64.007 64.007 0 11-53.375 28.7l23.585 23.6a31.956 31.956 0 1018.1-18.1l-23.6-23.6a63.613 63.613 0 0135.29-10.6z" fill="#e0e1dd"></path><path d="M39.101 122.964a63.982 63.982 0 01-28.473-94.269l23.583 23.6a31.984 31.984 0 0052.4 34.329c.236-.238.47-.477.7-.721l22.622 22.635c-.233.238-.466.477-.7.711a64.1 64.1 0 01-20.332 13.715 64.158 64.158 0 01-49.8 0z" fill="#8b8d8e"></path><path d="M64.001.005a64.007 64.007 0 11-53.375 28.7l23.585 23.6a31.956 31.956 0 1018.1-18.1l-23.6-23.6a63.613 63.613 0 0135.29-10.6z" fill="none"></path><path d="M64.003 2a61.594 61.594 0 00-24.12 4.869 62.542 62.542 0 00-7.981 4.086l20.927 20.93A33.962 33.962 0 1131.9 52.812L10.98 31.885a61.976 61.976 0 0087.672 83.52 62.148 62.148 0 0016.743-16.75 61.907 61.907 0 000-69.321A62.2 62.2 0 0088.126 6.868a61.589 61.589 0 00-24.12-4.87m0-2a63.616 63.616 0 0135.767 10.931 64.143 64.143 0 0117.279 17.286 63.921 63.921 0 010 71.561 64.187 64.187 0 01-28.147 23.188 64.162 64.162 0 01-49.8 0A63.939 63.939 0 01.032 63.995a63.669 63.669 0 0110.6-35.292l23.591 23.6a31.957 31.957 0 1018.1-18.1l-23.6-23.6A63.6 63.6 0 0164.002.003z"></path></svg>