<svg width="144px" height="121px" viewBox="0 0 144 121" fill="none" xmlns="http://www.w3.org/2000/svg" alt=""><g clip-path="url(#clip0_2769_8495)"><path d="M21.7051 115.907L24.4793 116.684L28.7915 106.331L24.697 105.184L21.7051 115.907Z" fill="#FFB8B8"></path><path d="M29.1094 120.764L20.39 118.322L21.3319 114.946L27.0196 116.539C27.8236 116.765 28.5054 117.301 28.915 118.03C29.3246 118.759 29.4284 119.621 29.2036 120.427L29.1094 120.764Z" fill="#2F2E41"></path><path d="M54.7997 118.084L57.6805 118.084L59.0504 106.949L54.7988 106.95L54.7997 118.084Z" fill="#FFB8B8"></path><path d="M63.2363 120.764L54.1826 120.764L54.1823 117.259L60.0881 117.259C60.5015 117.259 60.9108 117.34 61.2928 117.499C61.6747 117.657 62.0218 117.89 62.3141 118.182C62.6064 118.475 62.8383 118.823 62.9966 119.206C63.1548 119.588 63.2363 119.999 63.2363 120.413L63.2363 120.764Z" fill="#2F2E41"></path><path d="M33.3923 71.8586L26.7617 88.1354L53.8367 94.2304L54.182 85.1239L41.8878 72.002L33.3923 71.8586Z" fill="#B3B3B3"></path><path d="M48.0826 46.5027C51.0818 44.8598 52.1841 41.0917 50.5446 38.0863C48.905 35.0809 45.1446 33.9764 42.1454 35.6193C39.1462 37.2622 38.0439 41.0303 39.6835 44.0357C41.323 47.0411 45.0834 48.1456 48.0826 46.5027Z" fill="#FFB8B8"></path><path d="M49.535 70.9578L37.2798 65.9308L36.1886 58.7214C35.8673 56.6141 36.3691 54.4637 37.5896 52.7177C38.8101 50.9717 40.6553 49.7643 42.7415 49.3468L44.3625 49.0206C45.6942 48.7534 47.0708 48.8161 48.3728 49.203C49.6748 49.59 50.8629 50.2896 51.8338 51.2411C52.7848 52.1517 53.496 53.2841 53.9038 54.5373C54.3117 55.7904 54.4035 57.1252 54.171 58.4226C53.9879 59.5342 53.538 60.5847 52.86 61.4834C49.01 66.5283 49.5043 70.7221 49.5097 70.7639L49.535 70.9578Z" fill="#0072EF"></path><path d="M54.5261 89.7593L48.3842 79.9715L50.3187 62.167L47.6465 48.8511L47.7885 48.8546C49.3428 48.8931 50.8228 49.5291 51.9219 50.631C53.021 51.7328 53.6551 53.2161 53.6928 54.7736L56.2924 67.822L54.5261 89.7593Z" fill="#2F2E41"></path><path d="M54.6666 115.979C54.4077 115.979 54.1569 115.889 53.9567 115.724C53.7565 115.56 53.6192 115.331 53.5682 115.077L50.8774 101.669C50.3859 99.2127 49.4604 96.864 48.1445 94.7338L40.5521 82.4266C40.5143 82.3654 40.4604 82.3158 40.3963 82.2833C40.3322 82.2508 40.2604 82.2366 40.1888 82.2423C40.1172 82.248 40.0485 82.2735 39.9904 82.3158C39.9323 82.3581 39.8869 82.4156 39.8593 82.4821L27.3766 112.53C27.2763 112.771 27.0959 112.968 26.8664 113.09C26.6368 113.212 26.3721 113.251 26.1174 113.199L22.7828 112.518C22.4971 112.461 22.245 112.294 22.0803 112.053C21.9156 111.813 21.8514 111.517 21.9013 111.229L24.6215 95.1647C25.1765 91.8903 26.122 88.6946 27.4378 85.6462L36.6505 64.3108L50.2462 68.785L51.1433 78.3247L57.4252 93.567C57.8593 94.6196 58.1188 95.7363 58.1934 96.8728L59.3539 114.489C59.372 114.783 59.2746 115.072 59.0827 115.295C58.8907 115.518 58.6193 115.657 58.3265 115.683L54.759 115.975C54.728 115.978 54.6972 115.979 54.6666 115.979Z" fill="#2F2E41"></path><path d="M29.8649 94.1244L25.5547 90.0248L33.7004 58.5494C34.2172 56.5705 35.1861 54.739 36.5307 53.1998C37.8753 51.6606 39.5586 50.4557 41.4477 49.6805L41.6077 49.6152L41.1724 68.7718L29.8649 94.1244Z" fill="#2F2E41"></path><path d="M43.6714 47.2405C42.1424 45.9143 41.6774 43.4404 42.6142 41.6165C43.5511 39.7927 45.7913 38.8108 47.7069 39.3845C49.511 39.9248 51.5619 38.1225 51.3421 36.1899C51.1223 34.2573 48.7232 32.9984 47.0898 33.9585C45.8527 33.4611 44.4985 33.3322 43.1901 33.5876C41.8818 33.8429 40.6748 34.4716 39.7145 35.398C37.7954 37.2819 37.0673 40.3616 37.9289 42.9514C38.7904 45.5411 41.1953 47.5017 43.6714 47.2405Z" fill="#2F2E41"></path><path d="M38.2577 97.6439C38.1821 97.673 38.1035 97.6933 38.0233 97.7044L28.1829 99.0808C27.9449 99.115 27.7023 99.0669 27.4951 98.9446C27.288 98.8222 27.1285 98.6329 27.043 98.4076L18.5728 76.322C18.5179 76.179 18.4945 76.0258 18.504 75.873C18.5136 75.7201 18.5559 75.571 18.6282 75.436C18.7004 75.301 18.8008 75.1832 18.9226 75.0906C19.0444 74.998 19.1847 74.9328 19.3339 74.8994L19.3339 74.8994L28.5878 72.8301C28.6592 72.814 28.7283 72.7887 28.7932 72.7548L37.7939 68.0393C37.8634 68.0028 37.9368 67.9742 38.0127 67.954L47.9181 65.3079C48.1717 65.2396 48.4417 65.268 48.6756 65.3876C48.9096 65.5072 49.0911 65.7095 49.1848 65.9553L56.5704 85.2126C56.6353 85.3804 56.6565 85.5619 56.6321 85.7402C56.6076 85.9184 56.5383 86.0875 56.4307 86.2315L53.8765 89.6686C53.7563 89.8303 53.5928 89.9546 53.4049 90.0268L47.8229 92.1764C47.7829 92.1918 47.7441 92.2103 47.7069 92.2317L38.4053 97.5736C38.3579 97.6008 38.3086 97.6243 38.2577 97.6439Z" fill="white"></path><path d="M42.8347 68.2521L41.5769 68.5882L38.2435 69.4791L38.2376 69.4804L33.674 71.8715L31.9805 72.759L31.9797 72.7594L29.4361 74.0918L29.3663 74.1076L26.724 74.6981L25.4469 74.9842L20.2383 76.1488L28.4152 97.4696L33.7826 96.719L35.0987 96.5346L37.9038 96.1418L37.9363 96.1376L46.95 90.9609L52.4342 88.8489L54.9382 85.4797L47.8203 66.9204L42.8347 68.2521Z" fill="#E6E6E6"></path><path d="M48.9934 69.9779L21.877 80.4204L22.3413 81.6312L49.4578 71.1888L48.9934 69.9779Z" fill="white"></path><path d="M50.5422 74.0141L23.4258 84.4565L23.8901 85.6673L51.0066 75.2249L50.5422 74.0141Z" fill="white"></path><path d="M53.6672 82.1669L26.5508 92.6094L27.0151 93.8202L54.1316 83.3777L53.6672 82.1669Z" fill="white"></path><path d="M42.836 68.252L50.9541 89.4193L49.7459 89.8847L41.5781 68.5883L42.836 68.252Z" fill="white"></path><path d="M33.6749 71.8716L32.008 76.5193L31.43 78.1315L30.0816 81.8933L29.7927 82.6975L29.5036 83.5055L29.1229 84.5665L26.3901 92.1873L25.6797 90.3347L27.9079 84.1202L28.412 82.7132L28.4859 82.5078L29.0821 80.8442L29.8342 78.7462L30.4123 77.1338L31.9805 72.7594L31.9812 72.7591L33.6749 71.8716Z" fill="white"></path><path opacity="0.1" d="M47.1475 90.8852L46.9509 90.9609L37.9373 96.1376L37.9046 96.1417L29.3672 74.1075L29.437 74.0918L31.9806 72.7593L31.9813 72.7591L33.675 71.8715L38.2386 69.4804L38.2445 69.479L47.1475 90.8852Z" fill="black"></path><path d="M38.2984 97.7498C38.2148 97.782 38.1278 97.8045 38.0391 97.8169L28.1987 99.1934C27.9352 99.2311 27.6668 99.1779 27.4376 99.0425C27.2083 98.9071 27.0319 98.6975 26.9373 98.4483L18.467 76.3626C18.4063 76.2044 18.3804 76.0349 18.391 75.8657C18.4016 75.6966 18.4484 75.5316 18.5283 75.3822C18.6083 75.2329 18.7194 75.1025 18.8542 75C18.9889 74.8975 19.1441 74.8254 19.3093 74.7884L28.5631 72.7191C28.6249 72.7052 28.6846 72.6833 28.7407 72.654L37.7415 67.9384C37.8184 67.8981 37.8996 67.8664 37.9835 67.844L47.889 65.198C48.1697 65.1225 48.4684 65.1539 48.7273 65.2862C48.9862 65.4186 49.187 65.6424 49.2908 65.9145L56.6763 85.1718C56.7481 85.3574 56.7716 85.5583 56.7445 85.7556C56.7175 85.9528 56.6408 86.1399 56.5217 86.2993L53.9675 89.7363C53.8346 89.9153 53.6536 90.0528 53.4457 90.1327L47.8637 92.2824C47.829 92.2957 47.7955 92.3117 47.7633 92.3302L38.4617 97.6721C38.4093 97.7022 38.3547 97.7281 38.2984 97.7498ZM19.3059 75.2629C19.1269 75.3319 18.9826 75.4694 18.9046 75.645C18.8267 75.8207 18.8216 76.0202 18.8904 76.1996L27.3606 98.2852C27.4188 98.4385 27.5272 98.5673 27.6681 98.6505C27.8091 98.7338 27.9741 98.7664 28.136 98.7432L37.9765 97.3667C38.0679 97.3539 38.1561 97.3237 38.2363 97.2777L47.5379 91.9358C47.5902 91.9058 47.6447 91.8798 47.7009 91.8582L53.283 89.7085C53.4108 89.6594 53.522 89.5749 53.6038 89.4648L56.158 86.0279C56.2312 85.9299 56.2783 85.8149 56.2949 85.6936C56.3116 85.5724 56.2971 85.4489 56.253 85.3348L48.8674 66.0775C48.8036 65.9102 48.6802 65.7727 48.5211 65.6913C48.362 65.61 48.1784 65.5906 48.0058 65.637L38.1004 68.2831C38.0489 68.2971 37.9991 68.3165 37.9517 68.3411L28.9509 73.0568C28.8595 73.1044 28.7625 73.14 28.662 73.1627L19.4081 75.232C19.3733 75.2398 19.3392 75.2501 19.3059 75.2629Z" fill="#E6E6E6"></path><path d="M26.7244 74.698L35.099 96.5346L33.7831 96.7189L25.4473 74.9841L26.7244 74.698Z" fill="white"></path><path d="M29.1334 83.5122C29.467 83.5122 29.7375 83.2412 29.7375 82.9068C29.7375 82.5725 29.467 82.3015 29.1334 82.3015C28.7998 82.3015 28.5293 82.5725 28.5293 82.9068C28.5293 83.2412 28.7998 83.5122 29.1334 83.5122Z" fill="#3F3D56"></path><path d="M50.5514 84.1574C50.885 84.1574 51.1555 83.8864 51.1555 83.5521C51.1555 83.2178 50.885 82.9468 50.5514 82.9468C50.2177 82.9468 49.9473 83.2178 49.9473 83.5521C49.9473 83.8864 50.2177 84.1574 50.5514 84.1574Z" fill="#0072EF"></path><path d="M50.7961 72.6189C51.4817 74.4065 50.6566 80.3308 50.3665 82.2325C50.3573 82.2928 50.3324 82.3497 50.2942 82.3972C50.2561 82.4447 50.206 82.4813 50.1492 82.5032C50.0924 82.5251 50.0308 82.5315 49.9707 82.5218C49.9106 82.5121 49.8541 82.4867 49.807 82.448C48.3205 81.2305 43.7484 77.3846 43.0628 75.5969C42.8677 75.0881 42.7745 74.5458 42.7885 74.0008C42.8025 73.4559 42.9235 72.9191 43.1446 72.4211C43.3656 71.923 43.6824 71.4734 44.0769 71.0981C44.4713 70.7227 44.9357 70.4289 45.4435 70.2333C45.9513 70.0378 46.4925 69.9444 47.0363 69.9584C47.5801 69.9725 48.1158 70.0937 48.6128 70.3152C49.1099 70.5368 49.5585 70.8542 49.9331 71.2495C50.3077 71.6447 50.601 72.11 50.7961 72.6189V72.6189Z" fill="#0072EF"></path><path d="M46.9293 76.3561C48.1685 76.3561 49.1731 75.3495 49.1731 74.1078C49.1731 72.866 48.1685 71.8594 46.9293 71.8594C45.6901 71.8594 44.6855 72.866 44.6855 74.1078C44.6855 75.3495 45.6901 76.3561 46.9293 76.3561Z" fill="white"></path><path d="M44.0486 69.2565C44.1394 68.9226 44.3022 68.6126 44.5255 68.3485C44.7487 68.0844 45.0271 67.8725 45.3409 67.7279C45.6547 67.5832 45.9964 67.5093 46.3418 67.5113C46.6873 67.5133 47.0281 67.5911 47.3402 67.7394L51.3457 64.1111L54.1398 66.0125L48.4114 71.0567C48.1281 71.5657 47.6684 71.9528 47.1193 72.1448C46.5701 72.3368 45.9698 72.3203 45.4321 72.0984C44.8943 71.8765 44.4564 71.4647 44.2014 70.9409C43.9465 70.4171 43.8921 69.8178 44.0486 69.2565Z" fill="#FFB8B8"></path><path d="M50.5011 70.4406L47.3613 66.1707L54.5194 61.58L49.389 54.2441C48.9698 53.6447 48.786 52.9114 48.8728 52.1847C48.9596 51.458 49.3109 50.7889 49.8595 50.3056C50.408 49.8223 51.1152 49.5588 51.8456 49.5656C52.576 49.5723 53.2782 49.8488 53.8178 50.3421L60.2417 56.2152C60.8536 56.7746 61.3284 57.468 61.629 58.2414C61.9296 59.0148 62.048 59.8474 61.975 60.6741C61.9019 61.5009 61.6393 62.2996 61.2077 63.0081C60.7761 63.7165 60.1872 64.3155 59.4867 64.7585L50.5011 70.4406Z" fill="#2F2E41"></path><path d="M25.9024 81.6438C26.1863 81.4466 26.4235 81.1893 26.5974 80.8902C26.7713 80.5911 26.8776 80.2575 26.9089 79.9128C26.9401 79.568 26.8956 79.2206 26.7784 78.895C26.6612 78.5694 26.4742 78.2735 26.2305 78.0282L28.3061 73.0333L25.5845 71.0291L22.7523 78.1241C22.3681 78.5616 22.1574 79.1251 22.1602 79.7079C22.1629 80.2907 22.3789 80.8522 22.7672 81.286C23.1555 81.7199 23.6891 81.996 24.267 82.0619C24.8448 82.1279 25.4267 81.9791 25.9024 81.6439V81.6438Z" fill="#FFB8B8"></path><path d="M27.3051 76.5722L22.3965 75.4268L26.0544 64.8571C26.6847 63.0334 27.6147 61.328 28.8058 59.8114L34.7734 52.2073C35.3192 51.5117 36.1178 51.0613 36.9943 50.9546C37.8709 50.8479 38.7539 51.0937 39.4499 51.6381C40.146 52.1826 40.5983 52.9812 40.7079 53.8592C40.8174 54.7372 40.5752 55.6229 40.0344 56.3223L33.4126 64.8862L27.3051 76.5722Z" fill="#2F2E41"></path><path d="M87.1238 121H0.726764C0.666622 121 0.60894 120.976 0.566414 120.934C0.523888 120.891 0.5 120.833 0.5 120.773C0.5 120.713 0.523888 120.655 0.566414 120.612C0.60894 120.57 0.666622 120.546 0.726764 120.546H87.1238C87.184 120.546 87.2417 120.57 87.2842 120.612C87.3267 120.655 87.3506 120.713 87.3506 120.773C87.3506 120.833 87.3267 120.891 87.2842 120.934C87.2417 120.976 87.184 121 87.1238 121Z" fill="#CCCCCC"></path><path d="M120.637 120.886H118.596V1.02254C118.596 0.751342 118.703 0.491257 118.895 0.299495C119.086 0.107732 119.346 0 119.616 0C119.887 0 120.146 0.107732 120.338 0.299495C120.529 0.491257 120.637 0.751342 120.637 1.02254V120.886Z" fill="#E6E6E6"></path><path d="M135.425 121H103.678C103.618 121 103.56 120.976 103.518 120.934C103.475 120.891 103.451 120.833 103.451 120.773C103.451 120.713 103.475 120.655 103.518 120.612C103.56 120.57 103.618 120.546 103.678 120.546H135.425C135.485 120.546 135.543 120.57 135.585 120.612C135.628 120.655 135.652 120.713 135.652 120.773C135.652 120.833 135.628 120.891 135.585 120.934C135.543 120.976 135.485 121 135.425 121Z" fill="#CCCCCC"></path><path d="M134.797 15.6788H105.102C104.832 15.6785 104.573 15.5707 104.381 15.379C104.19 15.1873 104.082 14.9274 104.082 14.6563V6.02156C104.082 5.75046 104.19 5.49055 104.381 5.29885C104.573 5.10716 104.832 4.99933 105.102 4.99902H134.799C134.973 4.99914 135.145 5.04379 135.297 5.12873L142.976 9.42313C143.134 9.51164 143.266 9.6408 143.358 9.79733C143.45 9.95387 143.499 10.1321 143.499 10.3138C143.5 10.4954 143.452 10.6739 143.36 10.8308C143.269 10.9877 143.138 11.1175 142.98 11.2067L135.298 15.547C135.145 15.6333 134.973 15.6787 134.797 15.6788Z" fill="#0072EF"></path><path d="M132.088 34.3116H102.393C102.218 34.3115 102.045 34.2661 101.892 34.1798L94.2107 29.8395C94.0528 29.7503 93.9214 29.6205 93.8302 29.4636C93.7389 29.3067 93.691 29.1282 93.6914 28.9466C93.6918 28.7649 93.7405 28.5867 93.8324 28.4301C93.9244 28.2736 94.0563 28.1445 94.2146 28.0559L101.894 23.7615C102.046 23.6766 102.217 23.632 102.391 23.6318H132.088C132.359 23.6321 132.618 23.74 132.809 23.9317C133.001 24.1234 133.108 24.3833 133.108 24.6544V33.2891C133.108 33.5602 133.001 33.8201 132.809 34.0118C132.618 34.2035 132.359 34.3113 132.088 34.3116Z" fill="#E6E6E6"></path><path d="M132.201 52.6036H102.507C102.331 52.6035 102.158 52.5581 102.005 52.4718L94.3239 48.1315C94.166 48.0423 94.0347 47.9125 93.9434 47.7556C93.8522 47.5987 93.8043 47.4202 93.8047 47.2386C93.8051 47.0569 93.8538 46.8787 93.9457 46.7221C94.0377 46.5656 94.1696 46.4364 94.3279 46.3479L102.007 42.0535C102.159 41.9686 102.33 41.9239 102.504 41.9238H132.201C132.472 41.9241 132.731 42.032 132.923 42.2237C133.114 42.4154 133.221 42.6753 133.222 42.9464V51.5811C133.221 51.8522 133.114 52.1121 132.923 52.3038C132.731 52.4955 132.472 52.6033 132.201 52.6036Z" fill="#E6E6E6"></path></g><defs><clipPath id="clip0_2769_8495"><rect width="143" height="121" fill="white" transform="translate(0.5)"></rect></clipPath></defs></svg>