<svg xmlns="http://www.w3.org/2000/svg" width="300" height="300.001" viewBox="0 0 300 300.001"><defs><style>.a{fill:#f88c4f}.a,.b,.c,.d,.e{fill-rule:evenodd}.b{fill:#eb4825}.c{fill:#444329}.d{fill:#aaa35f}.e{fill:#928237}</style></defs><path class="a" d="M152.747 50.177a5.632 5.632 0 11-5.565 5.631 5.6 5.6 0 015.565-5.631z"/><path class="a" d="M179.464 48.889a6.275 6.275 0 11-6.2 6.275 6.238 6.238 0 016.2-6.275z"/><path class="a" d="M201.569 61.762a8.046 8.046 0 11-7.952 8.045 8 8 0 017.952-8.045z"/><path class="a" d="M193.777 108.585a8.046 8.046 0 11-7.952 8.045 8 8 0 017.952-8.045z"/><path class="a" d="M168.492 125.158a8.046 8.046 0 11-7.951 8.046 8 8 0 017.951-8.046z"/><path class="a" d="M96.135 148.33a8.045 8.045 0 11-7.951 8.045 8 8 0 017.951-8.045z"/><path class="a" d="M132.711 70.128a5.632 5.632 0 11-5.565 5.633 5.6 5.6 0 015.565-5.633z"/><path class="a" d="M128.098 108.102a5.632 5.632 0 11-5.565 5.633 5.6 5.6 0 015.565-5.633z"/><path class="a" d="M116.173 100.539a5.149 5.149 0 11-5.09 5.149 5.119 5.119 0 015.09-5.149z"/><path class="a" d="M120.227 72.702a3.46 3.46 0 11-3.419 3.459 3.438 3.438 0 013.419-3.459z"/><path class="a" d="M131.2 91.206a3.46 3.46 0 11-3.419 3.459 3.438 3.438 0 013.419-3.459z"/><path class="a" d="M202.761 108.422a2.334 2.334 0 11-2.306 2.334 2.321 2.321 0 012.306-2.334z"/><path class="a" d="M135.89 117.756a5.149 5.149 0 11-5.089 5.149 5.119 5.119 0 015.089-5.149z"/><path class="a" d="M126.43 126.928a4.264 4.264 0 11-4.214 4.263 4.239 4.239 0 014.214-4.263z"/><path class="a" d="M128.338 121.616a2.334 2.334 0 11-2.306 2.334 2.321 2.321 0 012.306-2.334z"/><path class="a" d="M182.327 146.881a5.632 5.632 0 11-5.567 5.631 5.6 5.6 0 015.567-5.631z"/><path class="a" d="M195.367 171.661a8.046 8.046 0 11-7.952 8.045 8 8 0 017.952-8.045z"/><path class="a" d="M181.61 173.269a4.265 4.265 0 11-4.214 4.264 4.239 4.239 0 014.214-4.264z"/><path class="a" d="M116.411 146.396a2.334 2.334 0 11-2.306 2.334 2.321 2.321 0 012.306-2.334z"/><path class="a" d="M174.852 208.347a6.437 6.437 0 11-6.362 6.437 6.4 6.4 0 016.362-6.437z"/><path class="a" d="M187.813 196.761a4.265 4.265 0 11-4.214 4.264 4.24 4.24 0 014.214-4.264z"/><path class="a" d="M178.907 197.565a2.334 2.334 0 11-2.306 2.333 2.321 2.321 0 012.306-2.333z"/><path class="a" d="M78.64 179.705a5.149 5.149 0 11-5.09 5.149 5.119 5.119 0 015.09-5.149z"/><path class="a" d="M88.264 177.774a3.943 3.943 0 11-3.9 3.942 3.919 3.919 0 013.9-3.942z"/><path class="a" d="M101.145 209.151a3.943 3.943 0 11-3.9 3.942 3.919 3.919 0 013.9-3.942z"/><path class="a" d="M98.441 193.059a3.3 3.3 0 11-3.26 3.3 3.28 3.28 0 013.26-3.3z"/><path class="a" d="M92.557 198.852a3.3 3.3 0 11-3.26 3.3 3.279 3.279 0 013.26-3.3z"/><path class="a" d="M90.727 206.417a5.632 5.632 0 11-5.565 5.631 5.6 5.6 0 015.565-5.631z"/><path class="a" d="M120.465 227.817a6.436 6.436 0 11-6.359 6.437 6.4 6.4 0 016.359-6.437z"/><path class="a" d="M157.439 224.277a6.034 6.034 0 11-5.963 6.034 6 6 0 015.963-6.034z"/><path class="a" d="M184.633 217.839a3.3 3.3 0 11-3.262 3.3 3.279 3.279 0 013.262-3.3z"/><path class="a" d="M167.139 224.275a3.3 3.3 0 11-3.26 3.3 3.28 3.28 0 013.26-3.3z"/><path class="a" d="M138.515 236.986a3.3 3.3 0 11-3.26 3.3 3.28 3.28 0 013.26-3.3z"/><path class="b" d="M191.488 49.574a4.4 4.4 0 11-4.345 4.4 4.372 4.372 0 014.345-4.4z"/><path class="b" d="M188.837 60.009a3.95 3.95 0 11-3.9 3.95 3.926 3.926 0 013.9-3.95z"/><path class="b" d="M212.924 69.847a2.982 2.982 0 11-2.947 2.981 2.963 2.963 0 012.947-2.981z"/><path class="b" d="M196.645 57.475a1.863 1.863 0 11-1.842 1.864 1.852 1.852 0 011.842-1.864z"/><path class="b" d="M165.855 47.04a6.187 6.187 0 11-6.113 6.185 6.15 6.15 0 016.113-6.185z"/><path class="b" d="M142.138 52.852a3.5 3.5 0 11-3.462 3.5 3.483 3.483 0 013.462-3.5z"/><path class="b" d="M151.788 62.393a2.981 2.981 0 11-2.946 2.981 2.965 2.965 0 012.946-2.981z"/><path class="b" d="M145.378 60.456a2.609 2.609 0 11-2.578 2.609 2.594 2.594 0 012.578-2.609z"/><path class="b" d="M141.991 66.269a3.95 3.95 0 11-3.9 3.95 3.927 3.927 0 013.9-3.95z"/><path class="b" d="M133.741 56.728a6.187 6.187 0 11-6.114 6.187 6.151 6.151 0 016.113-6.187z"/><path class="b" d="M125.197 64.779a3.95 3.95 0 11-3.9 3.95 3.926 3.926 0 013.9-3.95z"/><path class="b" d="M121.959 80.725a6.187 6.187 0 11-6.113 6.185 6.151 6.151 0 016.113-6.185z"/><path class="b" d="M132.121 83.858a2.609 2.609 0 11-2.578 2.608 2.592 2.592 0 012.578-2.608z"/><path class="b" d="M127.334 100.254a2.981 2.981 0 11-2.947 2.981 2.963 2.963 0 012.947-2.981z"/><path class="b" d="M114.59 92.205a3.95 3.95 0 11-3.9 3.95 3.927 3.927 0 013.9-3.95z"/><path class="b" d="M117.905 110.986a2.982 2.982 0 11-2.946 2.982 2.965 2.965 0 012.946-2.982z"/><path class="b" d="M122.62 119.185a2.981 2.981 0 11-2.947 2.981 2.963 2.963 0 012.947-2.981z"/><path class="b" d="M143.465 123.656a1.864 1.864 0 11-1.842 1.864 1.853 1.853 0 011.842-1.864z"/><path class="b" d="M129.248 135.283a2.981 2.981 0 11-2.945 2.983 2.965 2.965 0 012.946-2.981z"/><path class="b" d="M110.539 148.848a2.981 2.981 0 11-2.946 2.981 2.965 2.965 0 012.946-2.981z"/><path class="b" d="M118.127 132.898a6.187 6.187 0 11-6.115 6.185 6.15 6.15 0 016.115-6.185z"/><path class="b" d="M105.31 138.561a5.293 5.293 0 11-5.23 5.292 5.261 5.261 0 015.23-5.292z"/><path class="b" d="M137.865 129.021a5.889 5.889 0 11-5.819 5.888 5.854 5.854 0 015.819-5.888z"/><path class="b" d="M151.418 125.295a6.187 6.187 0 11-6.113 6.187 6.151 6.151 0 016.113-6.187z"/><path class="b" d="M198.706 95.632a6.187 6.187 0 11-6.113 6.187 6.151 6.151 0 016.113-6.187z"/><path class="b" d="M198.707 79.534a5.293 5.293 0 11-5.23 5.292 5.261 5.261 0 015.23-5.292z"/><path class="b" d="M211.819 76.255a6.187 6.187 0 11-6.115 6.187 6.151 6.151 0 016.115-6.187z"/><path class="b" d="M206.736 89.82a2.981 2.981 0 11-2.946 2.981 2.965 2.965 0 012.946-2.981z"/><path class="b" d="M215.501 88.925a3.951 3.951 0 11-3.9 3.951 3.927 3.927 0 013.9-3.951z"/><path class="b" d="M210.934 97.87a3.95 3.95 0 11-3.9 3.95 3.927 3.927 0 013.9-3.95z"/><path class="b" d="M209.461 108.6a3.5 3.5 0 11-3.462 3.5 3.484 3.484 0 013.462-3.5z"/><path class="b" d="M206.956 117.097a1.864 1.864 0 11-1.842 1.864 1.852 1.852 0 011.842-1.864z"/><path class="b" d="M179.704 136.922a3.95 3.95 0 11-3.9 3.95 3.928 3.928 0 013.9-3.95z"/><path class="b" d="M172.485 143.332a3.95 3.95 0 11-3.9 3.95 3.927 3.927 0 013.9-3.95z"/><path class="b" d="M188.985 124.401a3.95 3.95 0 11-3.9 3.95 3.927 3.927 0 013.9-3.95z"/><path class="b" d="M179.703 116.948a5.293 5.293 0 11-5.23 5.293 5.262 5.262 0 015.23-5.293z"/><path class="b" d="M180.735 129.023a2.609 2.609 0 11-2.577 2.608 2.594 2.594 0 012.577-2.608z"/><path class="b" d="M188.542 139.903a3.951 3.951 0 11-3.9 3.951 3.926 3.926 0 013.9-3.951z"/><path class="b" d="M197.234 188.944a5.739 5.739 0 11-5.671 5.739 5.7 5.7 0 015.671-5.739z"/><path class="b" d="M184.565 159.579a6.187 6.187 0 11-6.115 6.185 6.15 6.15 0 016.115-6.185z"/><path class="b" d="M183.828 184.174a6.187 6.187 0 11-6.113 6.187 6.15 6.15 0 016.113-6.187z"/><path class="b" d="M93.967 166.436a6.186 6.186 0 11-6.115 6.185 6.15 6.15 0 016.115-6.185z"/><path class="b" d="M88.81 185.968a6.187 6.187 0 11-6.113 6.185 6.15 6.15 0 016.113-6.185z"/><path class="b" d="M194.582 149.144a6.187 6.187 0 11-6.115 6.187 6.15 6.15 0 016.115-6.187z"/><path class="b" d="M195.688 163.157a2.981 2.981 0 11-2.947 2.981 2.963 2.963 0 012.947-2.981z"/><path class="b" d="M204.084 165.988a2.982 2.982 0 11-2.946 2.982 2.965 2.965 0 012.946-2.982z"/><path class="b" d="M201.506 160.028a1.863 1.863 0 11-1.842 1.862 1.852 1.852 0 011.842-1.862z"/><path class="b" d="M101.843 164.349a2.981 2.981 0 11-2.946 2.981 2.965 2.965 0 012.946-2.981z"/><path class="b" d="M97.944 180.149a3.95 3.95 0 11-3.9 3.95 3.927 3.927 0 013.9-3.95z"/><path class="b" d="M81.738 168.821a5.441 5.441 0 11-5.377 5.442 5.41 5.41 0 015.377-5.442z"/><path class="b" d="M108.109 215.924a3.95 3.95 0 11-3.9 3.95 3.926 3.926 0 013.9-3.95z"/><path class="b" d="M98.313 202.806a2.981 2.981 0 11-2.947 2.981 2.963 2.963 0 012.947-2.981z"/><path class="b" d="M83.503 197.738a5.441 5.441 0 11-5.377 5.442 5.408 5.408 0 015.377-5.442z"/><path class="b" d="M95.733 216.668a6.187 6.187 0 11-6.113 6.187 6.151 6.151 0 016.113-6.187z"/><path class="b" d="M189.723 205.489a6.187 6.187 0 11-6.113 6.185 6.15 6.15 0 016.113-6.185z"/><path class="b" d="M176.463 221.439a5.441 5.441 0 11-5.377 5.44 5.408 5.408 0 015.377-5.44z"/><path class="b" d="M144.206 225.462a5.442 5.442 0 11-5.378 5.442 5.41 5.41 0 015.378-5.442z"/><path class="b" d="M107.078 224.867a5.441 5.441 0 11-5.378 5.44 5.409 5.409 0 015.378-5.44z"/><path class="b" d="M128.218 237.984a2.981 2.981 0 11-2.946 2.981 2.965 2.965 0 012.946-2.981z"/><path class="b" d="M151.493 235.152a2.982 2.982 0 11-2.947 2.981 2.963 2.963 0 012.947-2.981z"/><path class="b" d="M167.694 231.574a2.982 2.982 0 11-2.947 2.982 2.965 2.965 0 012.947-2.982z"/><path class="b" d="M164.53 216.818a3.355 3.355 0 11-3.315 3.354 3.334 3.334 0 013.315-3.354z"/><path class="b" d="M181.03 203.403a3.354 3.354 0 11-3.315 3.353 3.334 3.334 0 013.315-3.353z"/><path class="b" d="M195.318 201.166a2.759 2.759 0 11-2.723 2.762 2.742 2.742 0 012.725-2.759z"/><path class="b" d="M132.71 227.549a5.441 5.441 0 11-5.378 5.442 5.409 5.409 0 015.378-5.442z"/><path class="b" d="M115.365 222.436a2.982 2.982 0 11-2.946 2.982 2.965 2.965 0 012.946-2.982z"/><path class="b" d="M111.816 236.135a1.864 1.864 0 11-1.84 1.864 1.853 1.853 0 011.84-1.864z"/><path class="b" d="M122.367 93.866a2.982 2.982 0 11-2.947 2.982 2.964 2.964 0 012.947-2.982z"/><path class="c" d="M150.503 0a5.955 5.955 0 11-5.884 5.955A5.921 5.921 0 01150.503 0z"/><path class="c" d="M154.442 12.803a1.611 1.611 0 11-1.593 1.612 1.6 1.6 0 011.593-1.612z"/><path class="c" d="M178.681 5.056a2.555 2.555 0 11-2.524 2.555 2.54 2.54 0 012.524-2.555z"/><path class="c" d="M107.514 23.63a5.955 5.955 0 11-5.885 5.955 5.92 5.92 0 015.885-5.955z"/><path class="c" d="M102.379 35.449a3.091 3.091 0 11-3.055 3.091 3.073 3.073 0 013.055-3.091z"/><path class="c" d="M96.358 23.045a4.034 4.034 0 11-3.985 4.033 4.01 4.01 0 013.985-4.033z"/><path class="c" d="M107.686 5.861a4.032 4.032 0 11-3.985 4.032 4.009 4.009 0 013.985-4.032z"/><path class="c" d="M124.318 7.472a4.033 4.033 0 11-3.985 4.032 4.009 4.009 0 013.985-4.032z"/><path class="c" d="M125.733 18.081a3.09 3.09 0 11-3.054 3.09 3.073 3.073 0 013.054-3.09z"/><path class="c" d="M90.703 11.279a5.955 5.955 0 11-5.885 5.955 5.919 5.919 0 015.885-5.955z"/><path class="c" d="M148.557 23.045a4.034 4.034 0 11-3.985 4.033 4.01 4.01 0 013.985-4.033z"/><path class="c" d="M156.872 17.902a3.091 3.091 0 11-3.053 3.09 3.072 3.072 0 013.053-3.09z"/><path class="c" d="M138.119 19.284a5.465 5.465 0 11-5.4 5.465 5.433 5.433 0 015.4-5.465z"/><path class="c" d="M173.504 31.866a7.745 7.745 0 11-7.658 7.739 7.7 7.7 0 017.654-7.743z"/><path class="c" d="M161.872 32.626a2.376 2.376 0 11-2.347 2.375 2.362 2.362 0 012.347-2.375z"/><path class="c" d="M182.927 30.299a2.376 2.376 0 11-2.347 2.375 2.361 2.361 0 012.347-2.375z"/><path class="c" d="M185.76 44.441a2.376 2.376 0 11-2.349 2.375 2.363 2.363 0 012.349-2.375z"/><path class="c" d="M184.165 14.773a1.611 1.611 0 11-1.592 1.611 1.6 1.6 0 011.592-1.611z"/><path class="c" d="M132.279 41.48a4.033 4.033 0 11-3.985 4.032 4.009 4.009 0 013.985-4.032z"/><path class="c" d="M128.917 50.3a3.091 3.091 0 11-3.053 3.09 3.072 3.072 0 013.053-3.09z"/><path class="c" d="M141.88 46.59a2.376 2.376 0 11-2.347 2.375 2.362 2.362 0 012.347-2.375z"/><path class="c" d="M161.295 60.103a4.033 4.033 0 11-3.985 4.032 4.009 4.009 0 013.985-4.032z"/><path class="c" d="M167.311 67.494a3.091 3.091 0 11-3.054 3.09 3.073 3.073 0 013.054-3.09z"/><path class="c" d="M200.219 32.403a3.091 3.091 0 11-3.054 3.09 3.072 3.072 0 013.054-3.09z"/><path class="c" d="M190.841 16.065a4.033 4.033 0 11-3.985 4.032 4.008 4.008 0 013.985-4.032z"/><path class="c" d="M213.665 19.284a4.033 4.033 0 11-3.985 4.032 4.009 4.009 0 013.985-4.032z"/><path class="c" d="M221.32 20.68a1.611 1.611 0 11-1.592 1.611 1.6 1.6 0 011.592-1.611z"/><path class="c" d="M238.612 31.508a4.344 4.344 0 11-4.294 4.344 4.319 4.319 0 014.294-4.344z"/><path class="c" d="M237.55 41.306a5.466 5.466 0 11-5.4 5.465 5.435 5.435 0 015.4-5.465z"/><path class="c" d="M250.289 44.349a4.033 4.033 0 11-3.985 4.033 4.01 4.01 0 013.985-4.033z"/><path class="c" d="M214.373 60.868a3.091 3.091 0 11-3.053 3.09 3.072 3.072 0 013.053-3.09z"/><path class="c" d="M204.868 39.967a2.376 2.376 0 11-2.347 2.375 2.361 2.361 0 012.347-2.375z"/><path class="c" d="M213.134 40.278a4.345 4.345 0 11-4.292 4.344 4.319 4.319 0 014.292-4.344z"/><path class="c" d="M73.363 36.161a3.091 3.091 0 11-3.055 3.091 3.074 3.074 0 013.055-3.091z"/><path class="c" d="M66.462 37.594a3.091 3.091 0 11-3.053 3.09 3.072 3.072 0 013.053-3.09z"/><path class="c" d="M55.139 34.552a3.09 3.09 0 11-3.054 3.09 3.072 3.072 0 013.054-3.09z"/><path class="c" d="M82.033 44.887a5.286 5.286 0 11-5.226 5.281 5.256 5.256 0 015.226-5.286z"/><path class="c" d="M100.964 55.138a7.745 7.745 0 11-7.654 7.745 7.7 7.7 0 017.654-7.745z"/><path class="c" d="M110.164 45.602a4.033 4.033 0 11-3.986 4.032 4.009 4.009 0 013.986-4.032z"/><path class="c" d="M114.586 64.985a3.09 3.09 0 11-3.055 3.09 3.073 3.073 0 013.055-3.09z"/><path class="c" d="M71.241 74.245a5.287 5.287 0 11-5.226 5.286 5.256 5.256 0 015.226-5.286z"/><path class="c" d="M80.439 69.95a4.033 4.033 0 11-3.985 4.032 4.009 4.009 0 013.985-4.032z"/><path class="c" d="M74.778 89.691a3.091 3.091 0 11-3.054 3.09 3.073 3.073 0 013.054-3.09z"/><path class="c" d="M97.071 79.796a5.286 5.286 0 11-5.224 5.286 5.255 5.255 0 015.224-5.286z"/><path class="c" d="M41.162 45.96a5.287 5.287 0 11-5.224 5.286 5.255 5.255 0 015.224-5.286z"/><path class="c" d="M45.808 68.301a1.611 1.611 0 11-1.592 1.611 1.6 1.6 0 011.592-1.611z"/><path class="c" d="M47.708 73.351a4.032 4.032 0 11-3.986 4.032 4.009 4.009 0 013.986-4.032z"/><path class="c" d="M32.139 72.638a4.033 4.033 0 11-3.986 4.033 4.01 4.01 0 013.986-4.033z"/><path class="c" d="M150.503 87.135a5.287 5.287 0 11-5.224 5.286 5.255 5.255 0 015.224-5.286z"/><path class="c" d="M222.512 65.831a5.466 5.466 0 11-5.4 5.465 5.434 5.434 0 015.4-5.465z"/><path class="c" d="M233.304 70.307a4.033 4.033 0 11-3.985 4.033 4.01 4.01 0 013.985-4.033z"/><path class="c" d="M267.982 61.175a5.466 5.466 0 11-5.4 5.467 5.434 5.434 0 015.4-5.467z"/><path class="c" d="M259.843 69.591a4.033 4.033 0 11-3.985 4.032 4.009 4.009 0 013.985-4.032z"/><path class="c" d="M189.604 72.418a4.608 4.608 0 11-4.554 4.608 4.582 4.582 0 014.554-4.608z"/><path class="c" d="M221.85 78.634a2.376 2.376 0 11-2.347 2.375 2.362 2.362 0 012.347-2.375z"/><path class="c" d="M239.189 85.975a2.376 2.376 0 11-2.347 2.375 2.361 2.361 0 012.347-2.375z"/><path class="c" d="M265.905 87.764a2.376 2.376 0 11-2.347 2.375 2.362 2.362 0 012.347-2.375z"/><path class="c" d="M275.283 69.503a3.272 3.272 0 11-3.232 3.272 3.252 3.252 0 013.232-3.272z"/><path class="c" d="M248.519 81.812a4.344 4.344 0 11-4.292 4.344 4.319 4.319 0 014.292-4.344z"/><path class="c" d="M193.012 89.734a2.376 2.376 0 11-2.347 2.375 2.362 2.362 0 012.347-2.375z"/><path class="c" d="M178.68 84.721a2.376 2.376 0 11-2.347 2.375 2.362 2.362 0 012.347-2.375z"/><path class="c" d="M171.781 98.327a2.376 2.376 0 11-2.347 2.375 2.362 2.362 0 012.347-2.375z"/><path class="c" d="M180.758 91.252a5.465 5.465 0 11-5.4 5.465 5.434 5.434 0 015.4-5.465z"/><path class="c" d="M160.989 84.364a2.375 2.375 0 11-2.349 2.374 2.361 2.361 0 012.349-2.374z"/><path class="c" d="M153.735 107.099a2.376 2.376 0 11-2.347 2.375 2.361 2.361 0 012.347-2.375z"/><path class="c" d="M169.964 114.168a4.032 4.032 0 11-3.985 4.032 4.009 4.009 0 013.985-4.032z"/><path class="c" d="M160.588 115.957a5.287 5.287 0 11-5.224 5.286 5.255 5.255 0 015.224-5.286z"/><path class="c" d="M139.179 109.025a3.09 3.09 0 11-3.054 3.09 3.073 3.073 0 013.054-3.09z"/><path class="c" d="M138.649 89.869a3.091 3.091 0 11-3.054 3.09 3.073 3.073 0 013.054-3.09z"/><path class="c" d="M140.948 79.975a4.033 4.033 0 11-3.985 4.032 4.009 4.009 0 013.985-4.032z"/><path class="c" d="M25.286 93.721a1.611 1.611 0 11-1.592 1.611 1.6 1.6 0 011.592-1.611z"/><path class="c" d="M9.138 100.43a3.091 3.091 0 11-3.054 3.091 3.073 3.073 0 013.054-3.091z"/><path class="c" d="M21.169 98.819a7.745 7.745 0 11-7.652 7.743 7.7 7.7 0 017.652-7.743z"/><path class="c" d="M55.67 133.371a7.745 7.745 0 11-7.652 7.743 7.7 7.7 0 017.652-7.743z"/><path class="c" d="M93.178 133.333a5.813 5.813 0 11-5.744 5.812 5.78 5.78 0 015.744-5.812z"/><path class="c" d="M160.586 146.891a6.577 6.577 0 11-6.5 6.576 6.539 6.539 0 016.5-6.576z"/><path class="c" d="M32.316 93.76a4.033 4.033 0 11-3.985 4.032 4.009 4.009 0 013.985-4.032z"/><path class="c" d="M27.188 115.289a4.523 4.523 0 11-4.469 4.521 4.5 4.5 0 014.469-4.521z"/><path class="c" d="M37.801 121.735a4.522 4.522 0 11-4.469 4.523 4.5 4.5 0 014.469-4.523z"/><path class="c" d="M46.469 119.945a3.09 3.09 0 11-3.055 3.09 3.072 3.072 0 013.055-3.09z"/><path class="c" d="M57.439 104.549a3.09 3.09 0 11-3.055 3.09 3.072 3.072 0 013.055-3.09z"/><path class="c" d="M58.323 113.321a3.09 3.09 0 11-3.053 3.09 3.072 3.072 0 013.053-3.09z"/><path class="c" d="M68.232 103.295a5.776 5.776 0 11-5.708 5.775 5.741 5.741 0 015.708-5.775z"/><path class="c" d="M82.209 128.311a4.032 4.032 0 11-3.985 4.032 4.008 4.008 0 013.985-4.032z"/><path class="c" d="M91.944 123.298a4.033 4.033 0 11-3.985 4.033 4.009 4.009 0 013.985-4.033z"/><path class="c" d="M79.025 110.946a4.57 4.57 0 11-4.517 4.57 4.544 4.544 0 014.517-4.57z"/><path class="c" d="M73.587 119.678a1.611 1.611 0 11-1.592 1.611 1.6 1.6 0 011.592-1.611z"/><path class="c" d="M100.433 113.858a3.09 3.09 0 11-3.054 3.09 3.072 3.072 0 013.054-3.09z"/><path class="c" d="M97.248 104.143a4.033 4.033 0 11-3.985 4.032 4.009 4.009 0 013.985-4.032z"/><path class="c" d="M228.174 91.301a7.745 7.745 0 11-7.654 7.743 7.7 7.7 0 017.654-7.743z"/><path class="c" d="M283.199 92.192a7.745 7.745 0 11-7.654 7.743 7.7 7.7 0 017.654-7.743z"/><path class="c" d="M78.493 147.513a3.091 3.091 0 11-3.053 3.091 3.072 3.072 0 013.053-3.091z"/><path class="c" d="M69.293 137.314a3.091 3.091 0 11-3.053 3.09 3.072 3.072 0 013.053-3.09z"/><path class="c" d="M43.462 135.16a3.091 3.091 0 11-3.054 3.091 3.073 3.073 0 013.054-3.091z"/><path class="c" d="M36.562 138.693a4.033 4.033 0 11-3.986 4.033 4.01 4.01 0 013.986-4.033z"/><path class="c" d="M50.186 150.151a4.033 4.033 0 11-3.985 4.032 4.009 4.009 0 013.985-4.032z"/><path class="c" d="M2.108 128.824A2.133 2.133 0 110 130.957a2.121 2.121 0 012.108-2.133z"/><path class="c" d="M2.282 147.444a2.133 2.133 0 11-2.108 2.133 2.121 2.121 0 012.108-2.133z"/><path class="c" d="M8.786 117.08a6.134 6.134 0 11-6.062 6.132 6.1 6.1 0 016.062-6.132z"/><path class="c" d="M15.331 149.124a3.091 3.091 0 11-3.054 3.091 3.073 3.073 0 013.054-3.091z"/><path class="c" d="M27.008 160.223a3.091 3.091 0 11-3.053 3.09 3.072 3.072 0 013.053-3.09z"/><path class="c" d="M8.608 165.951a6.134 6.134 0 11-6.062 6.134 6.1 6.1 0 016.062-6.134z"/><path class="c" d="M61.332 162.011a3.091 3.091 0 11-3.054 3.09 3.072 3.072 0 013.054-3.09z"/><path class="c" d="M67.394 161.57a1.611 1.611 0 11-1.592 1.611 1.6 1.6 0 011.592-1.611z"/><path class="c" d="M75.84 155.211a5.776 5.776 0 11-5.708 5.775 5.742 5.742 0 015.708-5.775z"/><path class="c" d="M132.633 149.303a3.091 3.091 0 11-3.053 3.09 3.072 3.072 0 013.053-3.09z"/><path class="c" d="M132.456 141.605a3.09 3.09 0 11-3.054 3.09 3.073 3.073 0 013.054-3.09z"/><path class="c" d="M158.111 137.441a4.033 4.033 0 11-3.985 4.032 4.009 4.009 0 013.985-4.032z"/><path class="c" d="M186.242 133.191a3.09 3.09 0 11-3.054 3.09 3.072 3.072 0 013.054-3.09z"/><path class="c" d="M197.034 139.947a4.033 4.033 0 11-3.985 4.032 4.01 4.01 0 013.985-4.032z"/><path class="c" d="M212.427 122.763a5.287 5.287 0 11-5.224 5.287 5.256 5.256 0 015.224-5.287z"/><path class="c" d="M222.512 120.302a3.09 3.09 0 11-3.054 3.09 3.073 3.073 0 013.054-3.09z"/><path class="c" d="M217.558 104.727a3.091 3.091 0 11-3.055 3.09 3.073 3.073 0 013.055-3.09z"/><path class="c" d="M203.627 121.648a1.612 1.612 0 11-1.592 1.611 1.6 1.6 0 011.592-1.611z"/><path class="c" d="M130.863 158.255a3.09 3.09 0 11-3.053 3.09 3.072 3.072 0 013.053-3.09z"/><path class="c" d="M225.165 153.192a5.286 5.286 0 11-5.224 5.286 5.255 5.255 0 015.224-5.286z"/><path class="c" d="M215.788 152.884a3.09 3.09 0 11-3.055 3.09 3.073 3.073 0 013.055-3.09z"/><path class="c" d="M222.866 146.438a3.091 3.091 0 11-3.054 3.09 3.073 3.073 0 013.054-3.09z"/><path class="c" d="M236.489 129.967a3.091 3.091 0 11-3.055 3.091 3.074 3.074 0 013.055-3.091z"/><path class="c" d="M228.881 125.804a4.033 4.033 0 11-3.985 4.033 4.008 4.008 0 013.985-4.033z"/><path class="c" d="M255.773 108.307a4.344 4.344 0 11-4.292 4.344 4.319 4.319 0 014.292-4.344z"/><path class="c" d="M247.459 115.11a3.09 3.09 0 11-3.054 3.09 3.072 3.072 0 013.054-3.09z"/><path class="c" d="M261.613 102.398a3.091 3.091 0 11-3.055 3.091 3.074 3.074 0 013.055-3.091z"/><path class="c" d="M246.75 107.233a3.091 3.091 0 11-3.055 3.09 3.073 3.073 0 013.055-3.09z"/><path class="c" d="M277.182 115.112a6.312 6.312 0 11-6.238 6.31 6.275 6.275 0 016.238-6.31z"/><path class="c" d="M291.369 108.067a4.345 4.345 0 11-4.294 4.345 4.319 4.319 0 014.294-4.345z"/><path class="c" d="M273.995 88.934a2.376 2.376 0 11-2.347 2.375 2.361 2.361 0 012.347-2.375z"/><path class="c" d="M274.954 135.436a4.344 4.344 0 11-4.294 4.344 4.318 4.318 0 014.294-4.344z"/><path class="c" d="M289.51 119.862a3.09 3.09 0 11-3.054 3.09 3.073 3.073 0 013.054-3.09z"/><path class="c" d="M276.075 128.692a2.376 2.376 0 11-2.347 2.375 2.362 2.362 0 012.347-2.375z"/><path class="c" d="M294.334 127.76a2.376 2.376 0 11-2.347 2.375 2.361 2.361 0 012.347-2.375z"/><path class="c" d="M295.88 117.653a1.611 1.611 0 11-1.592 1.611 1.6 1.6 0 011.592-1.611z"/><path class="c" d="M293.218 152.064a5.023 5.023 0 11-4.964 5.023 4.994 4.994 0 014.964-5.023z"/><path class="c" d="M295.997 143.639a3.091 3.091 0 11-3.054 3.09 3.073 3.073 0 013.054-3.09z"/><path class="c" d="M276.581 152.53a3.09 3.09 0 11-3.053 3.09 3.072 3.072 0 013.053-3.09z"/><path class="c" d="M275.844 146.233a2.376 2.376 0 11-2.347 2.375 2.362 2.362 0 012.347-2.375z"/><path class="c" d="M257.122 153.951a2.376 2.376 0 11-2.347 2.375 2.361 2.361 0 012.347-2.375z"/><path class="c" d="M242.56 146.466a2.376 2.376 0 11-2.347 2.375 2.362 2.362 0 012.347-2.375z"/><path class="c" d="M252.209 136.25a6.092 6.092 0 11-6.021 6.093 6.057 6.057 0 016.021-6.093z"/><path class="c" d="M265.614 158.105a5.287 5.287 0 11-5.224 5.286 5.255 5.255 0 015.224-5.286z"/><path class="c" d="M291.501 175.775a6.092 6.092 0 11-6.021 6.091 6.056 6.056 0 016.021-6.091z"/><path class="c" d="M281.319 178.225a1.612 1.612 0 11-1.592 1.612 1.6 1.6 0 011.592-1.612z"/><path class="c" d="M253.424 191.135a2.376 2.376 0 11-2.347 2.375 2.362 2.362 0 012.347-2.375z"/><path class="c" d="M292.299 189.48a3.091 3.091 0 11-3.055 3.091 3.073 3.073 0 013.055-3.091z"/><path class="c" d="M283.516 190.884a3.091 3.091 0 11-3.054 3.09 3.072 3.072 0 013.054-3.09z"/><path class="c" d="M258.277 172.193a2.376 2.376 0 11-2.347 2.375 2.362 2.362 0 012.347-2.375z"/><path class="c" d="M227.695 179.395a1.611 1.611 0 11-1.592 1.611 1.6 1.6 0 011.592-1.611z"/><path class="c" d="M239.052 167.502a7.745 7.745 0 11-7.654 7.743 7.7 7.7 0 017.654-7.743z"/><path class="c" d="M169.696 160.993a7.745 7.745 0 11-7.652 7.745 7.7 7.7 0 017.652-7.745z"/><path class="c" d="M177.308 158.581a1.611 1.611 0 11-1.592 1.611 1.6 1.6 0 011.592-1.611z"/><path class="c" d="M115.918 117.832a3.091 3.091 0 11-3.055 3.091 3.073 3.073 0 013.055-3.091z"/><path class="c" d="M147.711 170.371a3.09 3.09 0 11-3.054 3.09 3.072 3.072 0 013.054-3.09z"/><path class="c" d="M144.244 186.274a3.091 3.091 0 11-3.053 3.09 3.072 3.072 0 013.053-3.09z"/><path class="c" d="M172.673 201.241a3.091 3.091 0 11-3.055 3.091 3.073 3.073 0 013.055-3.091z"/><path class="c" d="M150.801 198.854a2.376 2.376 0 11-2.347 2.375 2.362 2.362 0 012.347-2.375z"/><path class="c" d="M147.333 204.933a2.376 2.376 0 11-2.347 2.375 2.361 2.361 0 012.347-2.375z"/><path class="c" d="M141.324 219.434a2.376 2.376 0 11-2.347 2.375 2.362 2.362 0 012.347-2.375z"/><path class="c" d="M121.13 189.08a3.091 3.091 0 11-3.054 3.09 3.073 3.073 0 013.054-3.09z"/><path class="c" d="M104.951 188.847a3.091 3.091 0 11-3.054 3.09 3.073 3.073 0 013.054-3.09z"/><path class="c" d="M148.405 219.25a3.091 3.091 0 11-3.054 3.09 3.073 3.073 0 013.054-3.09z"/><path class="c" d="M155.799 174.446a5.286 5.286 0 11-5.224 5.286 5.255 5.255 0 015.224-5.286z"/><path class="c" d="M164.133 178.227a1.611 1.611 0 11-1.592 1.611 1.6 1.6 0 011.592-1.611z"/><path class="c" d="M133.626 181.277a5.813 5.813 0 11-5.744 5.812 5.779 5.779 0 015.744-5.812z"/><path class="c" d="M169.915 188.526a5.813 5.813 0 11-5.744 5.812 5.78 5.78 0 015.744-5.812z"/><path class="c" d="M110.496 165.09a5.287 5.287 0 11-5.224 5.287 5.255 5.255 0 015.224-5.287z"/><path class="c" d="M38.399 169.854a4.911 4.911 0 11-4.854 4.91 4.881 4.881 0 014.854-4.91z"/><path class="c" d="M46.929 176.088a3.091 3.091 0 11-3.054 3.09 3.073 3.073 0 013.054-3.09z"/><path class="c" d="M55.25 176.088a3.091 3.091 0 11-3.054 3.09 3.072 3.072 0 013.054-3.09z"/><path class="c" d="M33.186 179.579a1.611 1.611 0 11-1.592 1.611 1.6 1.6 0 011.592-1.611z"/><path class="c" d="M10.2 188.272a4.033 4.033 0 11-3.987 4.034 4.009 4.009 0 013.985-4.032z"/><path class="c" d="M251.996 239.3a7.745 7.745 0 11-7.654 7.745 7.7 7.7 0 017.654-7.745z"/><path class="c" d="M276.015 198.226a6.092 6.092 0 11-6.022 6.093 6.057 6.057 0 016.022-6.093z"/><path class="c" d="M268.723 210.296a3.09 3.09 0 11-3.055 3.09 3.072 3.072 0 013.055-3.09z"/><path class="c" d="M262.121 187.957a4.033 4.033 0 11-3.986 4.032 4.009 4.009 0 013.986-4.032z"/><path class="c" d="M252.038 198.62a2.376 2.376 0 11-2.347 2.375 2.361 2.361 0 012.347-2.375z"/><path class="c" d="M228.693 194.41a2.376 2.376 0 11-2.347 2.375 2.361 2.361 0 012.347-2.375z"/><path class="c" d="M228.693 208.085a3.2 3.2 0 11-3.163 3.2 3.182 3.182 0 013.163-3.2z"/><path class="c" d="M236.089 209.722a3.2 3.2 0 11-3.163 3.2 3.183 3.183 0 013.163-3.2z"/><path class="c" d="M249.654 224.533a1.611 1.611 0 11-1.593 1.611 1.6 1.6 0 011.593-1.611z"/><path class="c" d="M268.485 229.687a4.344 4.344 0 11-4.292 4.344 4.318 4.318 0 014.292-4.344z"/><path class="c" d="M212.671 201.145a1.611 1.611 0 11-1.592 1.611 1.6 1.6 0 011.592-1.611z"/><path class="c" d="M210.347 183.099a5.286 5.286 0 11-5.224 5.286 5.255 5.255 0 015.224-5.286z"/><path class="c" d="M208.772 172.578a4.033 4.033 0 11-3.986 4.032 4.009 4.009 0 013.986-4.032z"/><path class="c" d="M104.04 237.618a4.033 4.033 0 11-3.986 4.032 4.009 4.009 0 013.986-4.032z"/><path class="c" d="M106.581 196.442a5.238 5.238 0 11-5.176 5.237 5.206 5.206 0 015.176-5.237z"/><path class="c" d="M121.159 207.066a7.745 7.745 0 11-7.654 7.745 7.7 7.7 0 017.654-7.745z"/><path class="c" d="M18.29 203.297a4.911 4.911 0 11-4.854 4.909 4.881 4.881 0 014.854-4.909z"/><path class="c" d="M47.889 201.454a7.745 7.745 0 11-7.654 7.743 7.7 7.7 0 017.654-7.743z"/><path class="c" d="M30.308 195.288a4.033 4.033 0 11-3.985 4.032 4.009 4.009 0 013.985-4.032z"/><path class="c" d="M46.328 195.111a2.376 2.376 0 11-2.347 2.375 2.362 2.362 0 012.347-2.375z"/><path class="c" d="M58.03 198.473a3.521 3.521 0 11-3.479 3.52 3.5 3.5 0 013.479-3.52z"/><path class="c" d="M66.366 188.293a5.813 5.813 0 11-5.744 5.812 5.779 5.779 0 015.744-5.812z"/><path class="c" d="M75.84 206.031a5.237 5.237 0 11-5.176 5.236 5.206 5.206 0 015.176-5.236z"/><path class="c" d="M60.195 209.145a2.376 2.376 0 11-2.347 2.375 2.361 2.361 0 012.347-2.375z"/><path class="c" d="M27.303 219.143a4.033 4.033 0 11-3.986 4.032 4.009 4.009 0 013.986-4.032z"/><path class="c" d="M40.721 228.302a4.911 4.911 0 11-4.854 4.911 4.882 4.882 0 014.854-4.911z"/><path class="c" d="M41.868 239.043a5.813 5.813 0 11-5.746 5.812 5.779 5.779 0 015.746-5.812z"/><path class="c" d="M47.854 224.499a3.091 3.091 0 11-3.055 3.09 3.072 3.072 0 013.055-3.09z"/><path class="c" d="M65.441 224.542a5.813 5.813 0 11-5.744 5.814 5.78 5.78 0 015.744-5.814z"/><path class="c" d="M194.647 218.457a5.812 5.812 0 11-5.744 5.812 5.778 5.778 0 015.744-5.812z"/><path class="c" d="M243.63 228.236a5.286 5.286 0 11-5.224 5.286 5.255 5.255 0 015.224-5.286z"/><path class="c" d="M235.554 226.872a1.611 1.611 0 11-1.593 1.611 1.6 1.6 0 011.593-1.611z"/><path class="c" d="M219.835 211.968a6.55 6.55 0 11-6.473 6.55 6.511 6.511 0 016.473-6.55z"/><path class="c" d="M212.196 236.134a4.033 4.033 0 11-3.985 4.033 4.011 4.011 0 013.985-4.033z"/><path class="c" d="M216.717 226.666a3.091 3.091 0 11-3.054 3.09 3.072 3.072 0 013.054-3.09z"/><path class="c" d="M220.877 233.448a3.091 3.091 0 11-3.053 3.091 3.073 3.073 0 013.053-3.091z"/><path class="c" d="M185.468 227.153a2.376 2.376 0 11-2.347 2.375 2.361 2.361 0 012.347-2.375z"/><path class="c" d="M189.439 233.194a4.344 4.344 0 11-4.294 4.344 4.318 4.318 0 014.294-4.344z"/><path class="c" d="M211.864 249.117a3.091 3.091 0 11-3.054 3.091 3.074 3.074 0 013.054-3.091z"/><path class="c" d="M197.533 255.666a3.091 3.091 0 11-3.055 3.09 3.073 3.073 0 013.055-3.09z"/><path class="c" d="M204.005 268.529a3.091 3.091 0 11-3.054 3.09 3.072 3.072 0 013.054-3.09z"/><path class="c" d="M228.863 260.54a5.287 5.287 0 11-5.224 5.287 5.256 5.256 0 015.224-5.287z"/><path class="c" d="M224.216 271.448a4.033 4.033 0 11-3.985 4.033 4.009 4.009 0 013.985-4.033z"/><path class="c" d="M236.783 266.442a2.376 2.376 0 11-2.347 2.375 2.362 2.362 0 012.347-2.375z"/><path class="c" d="M150.513 275.824a7.745 7.745 0 11-7.654 7.745 7.7 7.7 0 017.654-7.745z"/><path class="c" d="M123.688 252.607a5.813 5.813 0 11-5.744 5.814 5.779 5.779 0 015.744-5.814z"/><path class="c" d="M138.713 286.752a5.813 5.813 0 11-5.746 5.813 5.78 5.78 0 015.746-5.813z"/><path class="c" d="M170.254 290.025a4.344 4.344 0 11-4.292 4.344 4.319 4.319 0 014.292-4.344z"/><path class="c" d="M180.762 287.406a5.286 5.286 0 11-5.226 5.286 5.255 5.255 0 015.226-5.286z"/><path class="c" d="M160.316 237.17a4.344 4.344 0 11-4.294 4.344 4.318 4.318 0 014.294-4.344z"/><path class="c" d="M159.728 261.913a5.286 5.286 0 11-5.224 5.286 5.255 5.255 0 015.224-5.286z"/><path class="c" d="M153.721 255.733a3.091 3.091 0 11-3.054 3.09 3.072 3.072 0 013.054-3.09z"/><path class="c" d="M140.777 272.573a3.09 3.09 0 11-3.054 3.09 3.072 3.072 0 013.054-3.09z"/><path class="c" d="M130.376 283.331a3.09 3.09 0 11-3.054 3.09 3.072 3.072 0 013.054-3.09z"/><path class="c" d="M193.243 262.147a5.287 5.287 0 11-5.224 5.286 5.255 5.255 0 015.224-5.286z"/><path class="c" d="M176.956 246.992a4.344 4.344 0 11-4.292 4.345 4.319 4.319 0 014.292-4.345z"/><path class="c" d="M84.609 239.462a5.286 5.286 0 11-5.224 5.286 5.255 5.255 0 015.224-5.286z"/><path class="c" d="M131.617 248.903a2.376 2.376 0 11-2.347 2.375 2.361 2.361 0 012.347-2.375z"/><path class="c" d="M132.237 260.549a1.611 1.611 0 11-1.593 1.611 1.6 1.6 0 011.593-1.611z"/><path class="c" d="M67.501 241.806a3.09 3.09 0 11-3.054 3.09 3.073 3.073 0 013.054-3.09z"/><path class="c" d="M86.012 265.507a4.911 4.911 0 11-4.854 4.911 4.883 4.883 0 014.854-4.911z"/><path class="c" d="M73.531 268.782a4.911 4.911 0 11-4.854 4.91 4.883 4.883 0 014.854-4.91z"/><path class="c" d="M75.222 242.588a2.376 2.376 0 11-2.347 2.375 2.361 2.361 0 012.347-2.375z"/><path class="c" d="M104.951 248.249a3.091 3.091 0 11-3.054 3.091 3.074 3.074 0 013.054-3.091z"/><path class="c" d="M94.174 261.998a2.376 2.376 0 11-2.347 2.375 2.362 2.362 0 012.347-2.375z"/><path class="c" d="M93.017 284.919a2.376 2.376 0 11-2.347 2.375 2.36 2.36 0 012.347-2.375z"/><path class="c" d="M119.406 272.485a4.344 4.344 0 11-4.294 4.344 4.318 4.318 0 014.294-4.344z"/><path class="c" d="M87.739 276.249a3.854 3.854 0 11-3.807 3.853 3.831 3.831 0 013.807-3.853z"/><path class="c" d="M110.199 274.215a3.091 3.091 0 11-3.054 3.091 3.074 3.074 0 013.054-3.091z"/><path class="c" d="M106.173 82.965a2.376 2.376 0 11-2.347 2.376 2.362 2.362 0 012.347-2.375z"/><path class="d" d="M77.736 18.414a8.457 8.457 0 11-8.358 8.456 8.407 8.407 0 018.358-8.456z"/><path class="d" d="M104.383 15.472a3.309 3.309 0 11-3.269 3.309 3.29 3.29 0 013.269-3.309z"/><path class="d" d="M147.503 13.755a4.045 4.045 0 11-4 4.045 4.021 4.021 0 014-4.045z"/><path class="d" d="M99.537 8.848a2.819 2.819 0 11-2.781 2.824 2.8 2.8 0 012.785-2.819z"/><path class="d" d="M137.572.275a5.76 5.76 0 11-5.693 5.759 5.726 5.726 0 015.693-5.759z"/><path class="d" d="M128.366 1.99a2.328 2.328 0 11-2.3 2.328 2.315 2.315 0 012.3-2.328z"/><path class="d" d="M125.217 25.277a8.457 8.457 0 11-8.358 8.456 8.408 8.408 0 018.358-8.456z"/><path class="d" d="M178.751 17.923a5.761 5.761 0 11-5.693 5.761 5.727 5.727 0 015.693-5.761z"/><path class="d" d="M186.504 7.138a3.309 3.309 0 11-3.271 3.309 3.29 3.29 0 013.271-3.309z"/><path class="d" d="M200.799 10.318a4.045 4.045 0 11-4 4.045 4.022 4.022 0 014-4.045z"/><path class="d" d="M193.289 10.318a2.329 2.329 0 11-2.3 2.33 2.316 2.316 0 012.3-2.33z"/><path class="d" d="M224.782 24.296a8.457 8.457 0 11-8.358 8.456 8.407 8.407 0 018.358-8.456z"/><path class="d" d="M157.678 38.757a4.78 4.78 0 11-4.724 4.78 4.753 4.753 0 014.724-4.78z"/><path class="d" d="M99.054 43.414a4.78 4.78 0 11-4.724 4.78 4.753 4.753 0 014.724-4.78z"/><path class="d" d="M113.347 35.572a4.045 4.045 0 11-4 4.044 4.022 4.022 0 014-4.044z"/><path class="d" d="M120.13 53.465a5.761 5.761 0 11-5.693 5.761 5.727 5.727 0 015.693-5.761z"/><path class="d" d="M111.652 55.67a2.329 2.329 0 11-2.3 2.33 2.317 2.317 0 012.3-2.33z"/><path class="d" d="M195.47 38.268a5.76 5.76 0 11-5.693 5.761 5.727 5.727 0 015.693-5.761z"/><path class="d" d="M210.489 29.933a4.78 4.78 0 11-4.724 4.78 4.751 4.751 0 014.724-4.78z"/><path class="d" d="M233.019 56.896a5.761 5.761 0 11-5.693 5.761 5.726 5.726 0 015.693-5.761z"/><path class="d" d="M259.665 50.524a5.76 5.76 0 11-5.693 5.759 5.726 5.726 0 015.693-5.759z"/><path class="d" d="M245.61 38.757a2.329 2.329 0 11-2.3 2.33 2.316 2.316 0 012.3-2.33z"/><path class="d" d="M232.413 52.976a1.715 1.715 0 11-1.7 1.715 1.7 1.7 0 011.7-1.715z"/><path class="d" d="M215.333 51.994a3.8 3.8 0 11-3.754 3.8 3.778 3.778 0 013.754-3.8z"/><path class="d" d="M268.386 72.83a3.8 3.8 0 11-3.754 3.8 3.778 3.778 0 013.754-3.8z"/><path class="d" d="M253.124 60.083a2.329 2.329 0 11-2.3 2.33 2.316 2.316 0 012.3-2.33z"/><path class="d" d="M259.182 63.515a2.819 2.819 0 11-2.787 2.819 2.8 2.8 0 012.787-2.819z"/><path class="d" d="M91.302 51.259a3.31 3.31 0 11-3.271 3.309 3.29 3.29 0 013.271-3.309z"/><path class="d" d="M74.829 63.515a3.309 3.309 0 11-3.271 3.309 3.29 3.29 0 013.271-3.309z"/><path class="d" d="M69.015 60.818a2.329 2.329 0 11-2.3 2.33 2.316 2.316 0 012.3-2.33z"/><path class="d" d="M81.128 36.061a4.045 4.045 0 11-4 4.045 4.021 4.021 0 014-4.045z"/><path class="d" d="M74.586 52.974a4.78 4.78 0 11-4.726 4.779 4.753 4.753 0 014.724-4.78z"/><path class="d" d="M58.355 42.68a5.76 5.76 0 11-5.694 5.761 5.727 5.727 0 015.693-5.761z"/><path class="d" d="M33.889 57.387a5.761 5.761 0 11-5.693 5.761 5.727 5.727 0 015.693-5.761z"/><path class="d" d="M48.184 40.719a3.309 3.309 0 11-3.271 3.309 3.291 3.291 0 013.271-3.309z"/><path class="d" d="M39.703 67.682a4.045 4.045 0 11-4 4.044 4.019 4.019 0 014-4.044z"/><path class="d" d="M58.598 78.225a5.76 5.76 0 11-5.693 5.759 5.726 5.726 0 015.693-5.759z"/><path class="d" d="M52.3 89.742A2.328 2.328 0 1150 92.07a2.315 2.315 0 012.3-2.328z"/><path class="d" d="M61.506 91.703a5.761 5.761 0 11-5.693 5.761 5.727 5.727 0 015.693-5.761z"/><path class="d" d="M91.06 69.396a5.026 5.026 0 11-4.967 5.027 5 5 0 014.967-5.027z"/><path class="d" d="M178.512 63.515a5.271 5.271 0 11-5.208 5.27 5.24 5.24 0 015.208-5.27z"/><path class="d" d="M186.264 67.926a2.329 2.329 0 11-2.3 2.33 2.315 2.315 0 012.3-2.33z"/><path class="d" d="M169.548 75.525a5.761 5.761 0 11-5.693 5.761 5.727 5.727 0 015.693-5.761z"/><path class="d" d="M110.44 72.093a4.78 4.78 0 11-4.724 4.78 4.753 4.753 0 014.724-4.78z"/><path class="d" d="M94.693 92.684a2.328 2.328 0 11-2.3 2.328 2.315 2.315 0 012.3-2.328z"/><path class="d" d="M90.575 111.557a5.026 5.026 0 11-4.967 5.026 5 5 0 014.967-5.026z"/><path class="d" d="M85.246 93.419a8.458 8.458 0 11-8.358 8.456 8.408 8.408 0 018.358-8.456z"/><path class="d" d="M112.62 83.37a2.329 2.329 0 11-2.3 2.328 2.315 2.315 0 012.3-2.328z"/><path class="d" d="M162.281 90.721a5.271 5.271 0 11-5.208 5.27 5.24 5.24 0 015.208-5.27z"/><path class="d" d="M163.977 103.468a5.271 5.271 0 11-5.208 5.271 5.241 5.241 0 015.208-5.271z"/><path class="d" d="M136.845 98.072a4.78 4.78 0 11-4.724 4.779 4.751 4.751 0 014.724-4.779z"/><path class="d" d="M190.988 82.388a1.716 1.716 0 11-1.7 1.717 1.707 1.707 0 011.7-1.717z"/><path class="d" d="M190.138 95.625a2.329 2.329 0 11-2.3 2.328 2.315 2.315 0 012.3-2.328z"/><path class="d" d="M189.172 101.753a2.819 2.819 0 11-2.787 2.819 2.8 2.8 0 012.787-2.819z"/><path class="d" d="M231.323 79.938a4.535 4.535 0 11-4.479 4.535 4.508 4.508 0 014.482-4.535z"/><path class="d" d="M222.598 84.351a2.819 2.819 0 11-2.785 2.818 2.8 2.8 0 012.785-2.818z"/><path class="d" d="M278.081 77.732a5.515 5.515 0 11-5.45 5.515 5.484 5.484 0 015.45-5.515z"/><path class="d" d="M284.856 86.31a2.329 2.329 0 11-2.3 2.33 2.315 2.315 0 012.3-2.33z"/><path class="d" d="M268.872 81.9a2.329 2.329 0 11-2.3 2.328 2.315 2.315 0 012.3-2.328z"/><path class="d" d="M257.243 89.742a5.76 5.76 0 11-5.693 5.765 5.727 5.727 0 015.693-5.765z"/><path class="d" d="M250.944 101.264a2.819 2.819 0 11-2.785 2.818 2.8 2.8 0 012.785-2.818z"/><path class="d" d="M271.777 104.449a5.516 5.516 0 11-5.45 5.517 5.485 5.485 0 015.45-5.517z"/><path class="d" d="M281.226 109.106a2.329 2.329 0 11-2.3 2.33 2.316 2.316 0 012.3-2.33z"/><path class="d" d="M295.52 122.097a2.329 2.329 0 11-2.3 2.33 2.316 2.316 0 012.3-2.33z"/><path class="d" d="M294.312 135.335a3.8 3.8 0 11-3.754 3.8 3.778 3.778 0 013.754-3.8z"/><path class="d" d="M285.102 140.973a5.515 5.515 0 11-5.45 5.514 5.482 5.482 0 015.45-5.514z"/><path class="d" d="M284.374 153.717a2.329 2.329 0 11-2.3 2.33 2.316 2.316 0 012.3-2.33z"/><path class="d" d="M264.025 122.833a8.457 8.457 0 11-8.356 8.456 8.407 8.407 0 018.356-8.456z"/><path class="d" d="M237.136 107.146a5.76 5.76 0 11-5.693 5.759 5.726 5.726 0 015.693-5.759z"/><path class="d" d="M241.618 103.468a1.716 1.716 0 11-1.695 1.717 1.707 1.707 0 011.695-1.717z"/><path class="d" d="M236.41 119.892a3.8 3.8 0 11-3.756 3.8 3.776 3.776 0 013.756-3.8z"/><path class="d" d="M216.061 113.518a3.8 3.8 0 11-3.756 3.8 3.779 3.779 0 013.756-3.8z"/><path class="d" d="M146.776 99.057a2.329 2.329 0 11-2.3 2.328 2.315 2.315 0 012.3-2.328z"/><path class="d" d="M108.018 108.616a4.78 4.78 0 11-4.724 4.78 4.753 4.753 0 014.724-4.78z"/><path class="d" d="M118.675 125.039a2.819 2.819 0 11-2.786 2.819 2.8 2.8 0 012.786-2.819z"/><path class="d" d="M199.587 126.509a5.761 5.761 0 11-5.693 5.761 5.727 5.727 0 015.693-5.761z"/><path class="d" d="M241.251 137.54a3.8 3.8 0 11-3.756 3.8 3.779 3.779 0 013.756-3.8z"/><path class="d" d="M220.905 131.904a2.819 2.819 0 11-2.786 2.818 2.8 2.8 0 012.786-2.818z"/><path class="d" d="M229.383 137.05a5.515 5.515 0 11-5.45 5.517 5.483 5.483 0 015.45-5.517z"/><path class="d" d="M35.585 82.878a4.78 4.78 0 11-4.724 4.78 4.753 4.753 0 014.724-4.78z"/><path class="d" d="M11.845 93.419a3.31 3.31 0 11-3.271 3.31 3.29 3.29 0 013.271-3.31z"/><path class="d" d="M38.249 109.107a5.76 5.76 0 11-5.693 5.761 5.726 5.726 0 015.693-5.761z"/><path class="d" d="M34.372 103.958a2.329 2.329 0 11-2.3 2.33 2.316 2.316 0 012.3-2.33z"/><path class="d" d="M66.593 117.196a3.309 3.309 0 11-3.271 3.309 3.29 3.29 0 013.271-3.309z"/><path class="d" d="M70.226 124.548a5.761 5.761 0 11-5.693 5.761 5.727 5.727 0 015.693-5.761z"/><path class="d" d="M9.18 131.902a8.458 8.458 0 11-8.358 8.456 8.407 8.407 0 018.358-8.456z"/><path class="d" d="M67.319 167.448a8.457 8.457 0 11-8.358 8.456 8.408 8.408 0 018.358-8.456z"/><path class="d" d="M79.189 137.54a4.78 4.78 0 11-4.723 4.782 4.752 4.752 0 014.723-4.782z"/><path class="d" d="M61.023 151.022a4.78 4.78 0 11-4.724 4.78 4.753 4.753 0 014.724-4.78z"/><path class="d" d="M19.112 116.46a2.329 2.329 0 11-2.3 2.33 2.316 2.316 0 012.3-2.33z"/><path class="d" d="M37.763 132.637a2.329 2.329 0 11-2.3 2.33 2.316 2.316 0 012.3-2.33z"/><path class="d" d="M46.971 127.735a3.31 3.31 0 11-3.271 3.309 3.291 3.291 0 013.271-3.309z"/><path class="d" d="M40.915 152.493a2.819 2.819 0 11-2.785 2.819 2.8 2.8 0 012.785-2.819z"/><path class="d" d="M33.404 153.717a3.31 3.31 0 11-3.271 3.309 3.29 3.29 0 013.271-3.309z"/><path class="d" d="M35.341 147.835a2.329 2.329 0 11-2.3 2.328 2.315 2.315 0 012.3-2.328z"/><path class="d" d="M22.987 154.207a2.329 2.329 0 11-2.3 2.33 2.316 2.316 0 012.3-2.33z"/><path class="d" d="M20.323 166.713a3.309 3.309 0 11-3.271 3.307 3.29 3.29 0 013.271-3.307z"/><path class="d" d="M28.556 168.425a3.8 3.8 0 11-3.754 3.8 3.778 3.778 0 013.754-3.8z"/><path class="d" d="M7.483 151.512a4.78 4.78 0 11-4.724 4.78 4.753 4.753 0 014.724-4.78z"/><path class="d" d="M3.366 162.541a2.329 2.329 0 11-2.3 2.33 2.316 2.316 0 012.3-2.33z"/><path class="d" d="M11.357 197.103a3.8 3.8 0 11-3.756 3.8 3.779 3.779 0 013.756-3.8z"/><path class="d" d="M20.08 192.447a4.78 4.78 0 11-4.724 4.78 4.753 4.753 0 014.724-4.78z"/><path class="d" d="M30.497 189.014a2.819 2.819 0 11-2.785 2.819 2.8 2.8 0 012.785-2.819z"/><path class="d" d="M40.43 182.397a6.251 6.251 0 11-6.178 6.25 6.214 6.214 0 016.178-6.25z"/><path class="d" d="M50.845 183.133a2.819 2.819 0 11-2.785 2.818 2.8 2.8 0 012.785-2.818z"/><path class="d" d="M113.589 176.514a5.761 5.761 0 11-5.693 5.761 5.727 5.727 0 015.693-5.761z"/><path class="d" d="M122.552 150.287a5.761 5.761 0 11-5.693 5.761 5.727 5.727 0 015.693-5.761z"/><path class="d" d="M118.191 161.317a2.82 2.82 0 11-2.785 2.819 2.8 2.8 0 012.785-2.819z"/><path class="d" d="M146.533 139.011a8.457 8.457 0 11-8.356 8.456 8.407 8.407 0 018.356-8.456z"/><path class="d" d="M155.013 161.073a5.515 5.515 0 11-5.45 5.515 5.483 5.483 0 015.45-5.515z"/><path class="d" d="M139.509 171.858a3.8 3.8 0 11-3.754 3.8 3.777 3.777 0 013.754-3.8z"/><path class="d" d="M145.565 179.209a2.819 2.819 0 11-2.785 2.819 2.8 2.8 0 012.785-2.819z"/><path class="d" d="M165.429 183.377a2.819 2.819 0 11-2.785 2.819 2.8 2.8 0 012.785-2.819z"/><path class="d" d="M173.91 179.209a3.8 3.8 0 11-3.756 3.8 3.779 3.779 0 013.756-3.8z"/><path class="d" d="M215.333 161.071a5.761 5.761 0 11-5.693 5.761 5.727 5.727 0 015.693-5.761z"/><path class="d" d="M225.024 165.242a3.8 3.8 0 11-3.756 3.8 3.778 3.778 0 013.756-3.8z"/><path class="d" d="M227.326 173.328a1.716 1.716 0 11-1.7 1.715 1.705 1.705 0 011.7-1.715z"/><path class="d" d="M252.883 160.336a5.515 5.515 0 11-5.452 5.515 5.483 5.483 0 015.452-5.515z"/><path class="d" d="M250.459 172.347a2.329 2.329 0 11-2.3 2.328 2.315 2.315 0 012.3-2.328z"/><path class="d" d="M267.66 169.897a4.78 4.78 0 11-4.724 4.779 4.751 4.751 0 014.724-4.779z"/><path class="d" d="M294.792 167.936a3.8 3.8 0 11-3.756 3.8 3.776 3.776 0 013.756-3.8z"/><path class="d" d="M297.7 161.806a2.329 2.329 0 11-2.3 2.33 2.315 2.315 0 012.3-2.33z"/><path class="d" d="M282.195 183.867a2.329 2.329 0 11-2.3 2.33 2.316 2.316 0 012.3-2.33z"/><path class="d" d="M268.39 195.388a2.329 2.329 0 11-2.3 2.328 2.315 2.315 0 012.3-2.328z"/><path class="d" d="M266.207 204.212a2.329 2.329 0 11-2.3 2.33 2.316 2.316 0 012.3-2.33z"/><path class="d" d="M242.951 211.566a2.329 2.329 0 11-2.3 2.328 2.316 2.316 0 012.3-2.328z"/><path class="d" d="M220.905 202.987a3.8 3.8 0 11-3.754 3.8 3.778 3.778 0 013.754-3.8z"/><path class="d" d="M207.097 194.653a3.8 3.8 0 11-3.754 3.8 3.778 3.778 0 013.754-3.8z"/><path class="d" d="M275.413 178.23a3.8 3.8 0 11-3.756 3.8 3.778 3.778 0 013.756-3.8z"/><path class="d" d="M222.36 184.355a3.8 3.8 0 11-3.756 3.8 3.778 3.778 0 013.756-3.8z"/><path class="d" d="M244.405 185.339a5.515 5.515 0 11-5.452 5.514 5.482 5.482 0 015.452-5.514z"/><path class="d" d="M266.448 180.436a3.8 3.8 0 11-3.754 3.8 3.778 3.778 0 013.754-3.8z"/><path class="d" d="M274.442 186.809a4.78 4.78 0 11-4.724 4.78 4.753 4.753 0 014.724-4.78z"/><path class="d" d="M287.525 198.329a3.8 3.8 0 11-3.756 3.8 3.779 3.779 0 013.756-3.8z"/><path class="d" d="M278.318 213.528a5.515 5.515 0 11-5.45 5.514 5.483 5.483 0 015.45-5.514z"/><path class="d" d="M275.17 224.804a2.819 2.819 0 11-2.787 2.818 2.8 2.8 0 012.787-2.818z"/><path class="d" d="M255.061 205.438a8.457 8.457 0 11-8.357 8.456 8.408 8.408 0 018.357-8.456z"/><path class="d" d="M160.586 199.555a7.477 7.477 0 11-7.389 7.477 7.432 7.432 0 017.389-7.477z"/><path class="d" d="M141.205 193.183a5.515 5.515 0 11-5.45 5.515 5.483 5.483 0 015.45-5.515z"/><path class="d" d="M118.434 197.349a3.8 3.8 0 11-3.756 3.8 3.779 3.779 0 013.756-3.8z"/><path class="d" d="M112.377 190.235a2.819 2.819 0 11-2.785 2.819 2.8 2.8 0 012.785-2.819z"/><path class="d" d="M104.625 183.132a2.329 2.329 0 11-2.3 2.328 2.316 2.316 0 012.3-2.328z"/><path class="d" d="M77.01 190.486a3.8 3.8 0 11-3.756 3.8 3.777 3.777 0 013.756-3.8z"/><path class="d" d="M73.86 199.311a2.819 2.819 0 11-2.785 2.818 2.8 2.8 0 012.785-2.818z"/><path class="d" d="M68.287 217.45a2.819 2.819 0 11-2.786 2.818 2.8 2.8 0 012.786-2.818z"/><path class="d" d="M67.561 211.076a2.819 2.819 0 11-2.785 2.818 2.8 2.8 0 012.785-2.818z"/><path class="d" d="M133.212 217.694a4.536 4.536 0 11-4.483 4.535 4.508 4.508 0 014.483-4.535z"/><path class="d" d="M149.201 210.341a3.8 3.8 0 11-3.756 3.8 3.777 3.777 0 013.756-3.8z"/><path class="d" d="M39.46 216.957a5.271 5.271 0 11-5.208 5.271 5.24 5.24 0 015.208-5.271z"/><path class="d" d="M57.629 215.487a4.78 4.78 0 11-4.724 4.78 4.753 4.753 0 014.724-4.78z"/><path class="d" d="M55.933 226.027a2.329 2.329 0 11-2.3 2.33 2.316 2.316 0 012.3-2.33z"/><path class="d" d="M33.404 235.097a3.309 3.309 0 11-3.271 3.309 3.29 3.29 0 013.271-3.309z"/><path class="d" d="M45.996 250.539a2.329 2.329 0 11-2.3 2.33 2.316 2.316 0 012.3-2.33z"/><path class="d" d="M56.418 260.099a2.329 2.329 0 11-2.3 2.328 2.315 2.315 0 012.3-2.328z"/><path class="d" d="M57.629 244.412a7.476 7.476 0 11-7.389 7.476 7.432 7.432 0 017.389-7.476z"/><path class="d" d="M73.132 248.579a5.515 5.515 0 11-5.45 5.515 5.484 5.484 0 015.45-5.515z"/><path class="d" d="M209.036 220.635a3.8 3.8 0 11-3.756 3.8 3.777 3.777 0 013.756-3.8z"/><path class="d" d="M77.008 261.817a2.819 2.819 0 11-2.785 2.819 2.8 2.8 0 012.785-2.819z"/><path class="d" d="M94.693 229.706a5.515 5.515 0 11-5.45 5.515 5.484 5.484 0 015.45-5.515z"/><path class="d" d="M85.489 234.361a2.329 2.329 0 11-2.3 2.33 2.316 2.316 0 012.3-2.33z"/><path class="d" d="M69.5 235.832a2.329 2.329 0 11-2.3 2.328 2.315 2.315 0 012.3-2.328z"/><path class="d" d="M95.421 242.941a2.329 2.329 0 11-2.3 2.328 2.315 2.315 0 012.3-2.328z"/><path class="d" d="M112.863 251.274a2.329 2.329 0 11-2.3 2.33 2.316 2.316 0 012.3-2.33z"/><path class="d" d="M108.502 255.442a8.457 8.457 0 11-8.358 8.456 8.407 8.407 0 018.358-8.456z"/><path class="d" d="M163.734 248.334a5.515 5.515 0 11-5.45 5.515 5.483 5.483 0 015.45-5.515z"/><path class="d" d="M144.596 259.12a5.515 5.515 0 11-5.45 5.515 5.483 5.483 0 015.45-5.515z"/><path class="d" d="M114.319 281.425a6.5 6.5 0 11-6.421 6.5 6.457 6.457 0 016.421-6.5z"/><path class="d" d="M96.627 267.698a2.819 2.819 0 11-2.785 2.818 2.8 2.8 0 012.785-2.818z"/><path class="d" d="M81.125 275.541a2.329 2.329 0 11-2.3 2.33 2.316 2.316 0 012.3-2.33z"/><path class="d" d="M149.684 292.209a3.8 3.8 0 11-3.754 3.8 3.779 3.779 0 013.754-3.8z"/><path class="d" d="M130.304 276.518a2.819 2.819 0 11-2.786 2.818 2.8 2.8 0 012.786-2.818z"/><path class="d" d="M137.572 280.194a2.819 2.819 0 11-2.787 2.819 2.8 2.8 0 012.787-2.819z"/><path class="d" d="M136.605 253.971a2.819 2.819 0 11-2.785 2.819 2.8 2.8 0 012.785-2.819z"/><path class="d" d="M125.215 244.658a2.819 2.819 0 11-2.786 2.818 2.8 2.8 0 012.786-2.818z"/><path class="d" d="M39.217 196.368a3.8 3.8 0 11-3.754 3.8 3.778 3.778 0 013.754-3.8z"/><path class="d" d="M201.284 238.774a7.477 7.477 0 11-7.388 7.477 7.435 7.435 0 017.388-7.477z"/><path class="d" d="M206.371 230.93a2.819 2.819 0 11-2.786 2.819 2.8 2.8 0 012.786-2.819z"/><path class="d" d="M257.243 226.763a5.515 5.515 0 11-5.45 5.515 5.484 5.484 0 015.45-5.515z"/><path class="d" d="M231.566 216.222a3.8 3.8 0 11-3.756 3.8 3.779 3.779 0 013.756-3.8z"/><path class="d" d="M228.17 235.832a3.8 3.8 0 11-3.756 3.8 3.778 3.778 0 013.756-3.8z"/><path class="d" d="M236.653 236.813a2.329 2.329 0 11-2.3 2.328 2.315 2.315 0 012.3-2.328z"/><path class="d" d="M241.983 255.201a5.515 5.515 0 11-5.452 5.515 5.484 5.484 0 015.452-5.515z"/><path class="d" d="M212.671 273.336a5.515 5.515 0 11-5.45 5.515 5.484 5.484 0 015.45-5.515z"/><path class="d" d="M167.853 277.503a5.515 5.515 0 11-5.45 5.515 5.483 5.483 0 015.45-5.515z"/><path class="d" d="M160.827 274.313a2.819 2.819 0 11-2.786 2.819 2.8 2.8 0 012.786-2.819z"/><path class="d" d="M177.3 281.179a2.819 2.819 0 11-2.785 2.819 2.8 2.8 0 012.785-2.819z"/><path class="d" d="M220.18 255.201a3.8 3.8 0 11-3.756 3.8 3.776 3.776 0 013.756-3.8z"/><path class="d" d="M241.86 240.489a1.716 1.716 0 11-1.7 1.717 1.707 1.707 0 011.7-1.717z"/><path class="d" d="M210.613 268.679a1.716 1.716 0 11-1.695 1.715 1.706 1.706 0 011.695-1.715z"/><path class="d" d="M180.449 232.402a3.8 3.8 0 11-3.754 3.8 3.777 3.777 0 013.754-3.8z"/><path class="d" d="M189.655 242.942a2.819 2.819 0 11-2.786 2.818 2.8 2.8 0 012.786-2.818z"/><path class="d" d="M182.388 261.325a2.819 2.819 0 11-2.786 2.819 2.8 2.8 0 012.786-2.819z"/><path class="d" d="M190.383 290.494a2.329 2.329 0 11-2.3 2.328 2.316 2.316 0 012.3-2.328z"/><path class="e" d="M115.71 5.937a2.93 2.93 0 11-2.9 2.93 2.912 2.912 0 012.9-2.93z"/><path class="e" d="M131.489 14.462a2.93 2.93 0 11-2.894 2.93 2.912 2.912 0 012.894-2.93z"/><path class="e" d="M138.978 13.192a2.575 2.575 0 11-2.544 2.575 2.56 2.56 0 012.544-2.575z"/><path class="e" d="M115.175 13.463a5.553 5.553 0 11-5.487 5.552 5.521 5.521 0 015.487-5.552z"/><path class="e" d="M165.725 21.176a5.553 5.553 0 11-5.487 5.553 5.521 5.521 0 015.487-5.553z"/><path class="e" d="M63.018 25.912a5.553 5.553 0 11-5.489 5.552 5.52 5.52 0 015.489-5.552z"/><path class="e" d="M91.371 32.678a5.553 5.553 0 11-5.487 5.552 5.519 5.519 0 015.487-5.552z"/><path class="e" d="M89.766 46.043a2.2 2.2 0 11-2.174 2.2 2.187 2.187 0 012.174-2.2z"/><path class="e" d="M70.241 44.625a4.159 4.159 0 11-4.11 4.158 4.135 4.135 0 014.11-4.158z"/><path class="e" d="M166.126 3.354a8.355 8.355 0 11-8.255 8.353 8.306 8.306 0 018.255-8.353z"/><path class="e" d="M201.658 20.086a5.553 5.553 0 11-5.487 5.553 5.522 5.522 0 015.487-5.553z"/><path class="e" d="M178.141 12.103a2.575 2.575 0 11-2.546 2.575 2.561 2.561 0 012.546-2.575z"/><path class="e" d="M207.619 15.369a2.575 2.575 0 11-2.544 2.575 2.56 2.56 0 012.544-2.575z"/><path class="e" d="M156.624 26.719a1.895 1.895 0 11-1.873 1.895 1.883 1.883 0 011.873-1.895z"/><path class="e" d="M154.084 31.662a2.93 2.93 0 11-2.9 2.93 2.912 2.912 0 012.9-2.93z"/><path class="e" d="M141.626 31.212a7.056 7.056 0 11-6.973 7.056 7.014 7.014 0 016.973-7.056z"/><path class="e" d="M148.273 43.418a2.93 2.93 0 11-2.894 2.93 2.913 2.913 0 012.894-2.93z"/><path class="e" d="M120.539 43.506a4.777 4.777 0 11-4.72 4.776 4.748 4.748 0 014.72-4.776z"/><path class="e" d="M84.486 57.279a5.553 5.553 0 11-5.489 5.553 5.52 5.52 0 015.489-5.553z"/><path class="e" d="M57.678 60.834a8.354 8.354 0 11-8.255 8.354 8.305 8.305 0 018.255-8.354z"/><path class="e" d="M69.109 69.339a2.2 2.2 0 11-2.174 2.2 2.188 2.188 0 012.174-2.2z"/><path class="e" d="M64.139 55.176a2.93 2.93 0 11-2.894 2.93 2.912 2.912 0 012.894-2.93z"/><path class="e" d="M50.8 54.306a2.929 2.929 0 11-2.9 2.928 2.912 2.912 0 012.9-2.928z"/><path class="e" d="M44.99 60.184a2.929 2.929 0 11-2.9 2.928 2.912 2.912 0 012.9-2.928z"/><path class="e" d="M25.797 67.839a2.576 2.576 0 11-2.546 2.577 2.562 2.562 0 012.546-2.577z"/><path class="e" d="M21.536 74.038a3.88 3.88 0 11-3.835 3.879 3.858 3.858 0 013.835-3.879z"/><path class="e" d="M26.442 81.121a2.575 2.575 0 11-2.544 2.575 2.56 2.56 0 012.544-2.575z"/><path class="e" d="M27.087 88.333a1.9 1.9 0 11-1.874 1.9 1.886 1.886 0 011.874-1.9z"/><path class="e" d="M17.567 82.872a5.87 5.87 0 11-5.8 5.869 5.836 5.836 0 015.8-5.869z"/><path class="e" d="M39.826 77.166a2.93 2.93 0 11-2.9 2.93 2.912 2.912 0 012.9-2.93z"/><path class="e" d="M45.712 83.379a4.159 4.159 0 11-4.111 4.16 4.135 4.135 0 014.111-4.16z"/><path class="e" d="M83.959 79.109a7.056 7.056 0 11-6.972 7.056 7.016 7.016 0 016.972-7.056z"/><path class="e" d="M99.86 73.9a2.93 2.93 0 11-2.9 2.93 2.912 2.912 0 012.9-2.93z"/><path class="e" d="M135.967 50.205a2.575 2.575 0 11-2.546 2.575 2.56 2.56 0 012.546-2.575z"/><path class="e" d="M191.331 26.184a5.553 5.553 0 11-5.487 5.553 5.52 5.52 0 015.487-5.553z"/><path class="e" d="M186.107 37.794a2.576 2.576 0 11-2.546 2.575 2.561 2.561 0 012.546-2.575z"/><path class="e" d="M152.785 69.11a8.355 8.355 0 11-8.255 8.355 8.307 8.307 0 018.255-8.355z"/><path class="e" d="M203.81 47.759a6.4 6.4 0 11-6.326 6.4 6.365 6.365 0 016.326-6.4z"/><path class="e" d="M224.036 44.058a6.4 6.4 0 11-6.326 6.4 6.366 6.366 0 016.326-6.4z"/><path class="e" d="M219.67 40.652a1.895 1.895 0 11-1.873 1.895 1.883 1.883 0 011.873-1.895z"/><path class="e" d="M229.568 41.304a1.9 1.9 0 11-1.873 1.9 1.886 1.886 0 011.873-1.9z"/><path class="e" d="M247.111 53.552A4.159 4.159 0 11243 57.71a4.135 4.135 0 014.111-4.158z"/><path class="e" d="M269.493 94.048a4.159 4.159 0 11-4.111 4.158 4.135 4.135 0 014.111-4.158z"/><path class="e" d="M222.293 58.225a2.929 2.929 0 11-2.894 2.928 2.912 2.912 0 012.894-2.928z"/><path class="e" d="M240.369 78.906a2.93 2.93 0 11-2.9 2.93 2.913 2.913 0 012.9-2.93z"/><path class="e" d="M260.188 78.436a5.554 5.554 0 11-5.489 5.553 5.522 5.522 0 015.489-5.553z"/><path class="e" d="M246.386 63.446a8.355 8.355 0 11-8.255 8.354 8.306 8.306 0 018.255-8.354z"/><path class="e" d="M244.049 91.283a5.553 5.553 0 11-5.489 5.552 5.52 5.52 0 015.489-5.552z"/><path class="e" d="M179.98 75.105a4.16 4.16 0 11-4.11 4.16 4.136 4.136 0 014.11-4.16z"/><path class="e" d="M170.218 59.747a2.93 2.93 0 11-2.9 2.93 2.913 2.913 0 012.9-2.93z"/><path class="e" d="M171.728 88.922a2.93 2.93 0 11-2.9 2.93 2.912 2.912 0 012.9-2.93z"/><path class="e" d="M186.574 86.31a2.93 2.93 0 11-2.894 2.928 2.912 2.912 0 012.894-2.928z"/><path class="e" d="M178.421 103.065a6.4 6.4 0 11-6.328 6.4 6.364 6.364 0 016.328-6.4z"/><path class="e" d="M153.653 99.362a3.377 3.377 0 11-3.337 3.376 3.357 3.357 0 013.337-3.376z"/><path class="e" d="M146.341 104.587a3.377 3.377 0 11-3.337 3.376 3.356 3.356 0 013.337-3.376z"/><path class="e" d="M148.511 111.77a6.4 6.4 0 11-6.328 6.4 6.365 6.365 0 016.328-6.4z"/><path class="e" d="M104.184 93.045a6.4 6.4 0 11-6.327 6.4 6.365 6.365 0 016.327-6.4z"/><path class="e" d="M107.994 88.306a2.575 2.575 0 11-2.546 2.575 2.56 2.56 0 012.546-2.575z"/><path class="e" d="M45.628 92.838a8.355 8.355 0 11-8.255 8.359 8.307 8.307 0 018.256-8.355z"/><path class="e" d="M71.881 97.414a2.93 2.93 0 11-2.9 2.93 2.913 2.913 0 012.9-2.93z"/><path class="e" d="M67.584 85.359a3.88 3.88 0 11-3.835 3.879 3.858 3.858 0 013.835-3.879z"/><path class="e" d="M49.37 110.812a4.159 4.159 0 11-4.111 4.16 4.135 4.135 0 014.111-4.16z"/><path class="e" d="M20.578 124.456a5.871 5.871 0 11-5.8 5.869 5.835 5.835 0 015.8-5.869z"/><path class="e" d="M29.496 132.61a3.88 3.88 0 11-3.833 3.881 3.858 3.858 0 013.833-3.881z"/><path class="e" d="M8.195 108.438a3.88 3.88 0 11-3.835 3.879 3.858 3.858 0 013.835-3.879z"/><path class="e" d="M56.514 121.507a5.554 5.554 0 11-5.489 5.553 5.522 5.522 0 015.489-5.553z"/><path class="e" d="M83.505 120.493a2.929 2.929 0 11-2.894 2.93 2.913 2.913 0 012.894-2.93z"/><path class="e" d="M78.085 123.603a1.9 1.9 0 11-1.873 1.895 1.884 1.884 0 011.873-1.895z"/><path class="e" d="M105.447 120.707a8.354 8.354 0 11-8.255 8.353 8.305 8.305 0 018.255-8.353z"/><path class="e" d="M23.925 139.639a6.4 6.4 0 11-6.327 6.4 6.365 6.365 0 016.327-6.4z"/><path class="e" d="M7.549 179.851a3.88 3.88 0 11-3.835 3.881 3.858 3.858 0 013.835-3.881z"/><path class="e" d="M20.668 174.484a8.354 8.354 0 11-8.255 8.354 8.305 8.305 0 018.255-8.354z"/><path class="e" d="M15.372 158.276a4.159 4.159 0 11-4.111 4.158 4.135 4.135 0 014.111-4.158z"/><path class="e" d="M50.177 161.627a7.056 7.056 0 11-6.973 7.056 7.015 7.015 0 016.973-7.056z"/><path class="e" d="M41.547 159.028a2.93 2.93 0 11-2.9 2.931 2.914 2.914 0 012.9-2.931z"/><path class="e" d="M34.66 163.601a2.93 2.93 0 11-2.894 2.93 2.912 2.912 0 012.894-2.93z"/><path class="e" d="M43.269 144.877a2.93 2.93 0 11-2.9 2.93 2.912 2.912 0 012.9-2.93z"/><path class="e" d="M69.165 145.648a4.159 4.159 0 11-4.11 4.16 4.136 4.136 0 014.11-4.16z"/><path class="e" d="M85.873 143.994a3.377 3.377 0 11-3.338 3.376 3.358 3.358 0 013.338-3.376z"/><path class="e" d="M85.443 161.63a3.377 3.377 0 11-3.337 3.376 3.357 3.357 0 013.337-3.376z"/><path class="e" d="M84.371 153.15a2.93 2.93 0 11-2.9 2.93 2.913 2.913 0 012.9-2.93z"/><path class="e" d="M110.479 155.662a4.159 4.159 0 11-4.11 4.16 4.136 4.136 0 014.11-4.16z"/><path class="e" d="M125.25 143.122a3.377 3.377 0 11-3.337 3.378 3.359 3.359 0 013.337-3.378z"/><path class="e" d="M126.101 164.905a8.354 8.354 0 11-8.255 8.353 8.305 8.305 0 018.255-8.353z"/><path class="e" d="M103.517 175.14a2.93 2.93 0 11-2.894 2.931 2.914 2.914 0 012.894-2.931z"/><path class="e" d="M140.764 158.145a6.4 6.4 0 11-6.328 6.4 6.366 6.366 0 016.328-6.4z"/><path class="e" d="M138.548 153.65a1.895 1.895 0 11-1.873 1.895 1.885 1.885 0 011.873-1.895z"/><path class="e" d="M150.208 155.983a2.93 2.93 0 11-2.894 2.93 2.913 2.913 0 012.894-2.93z"/><path class="e" d="M171.943 153.15a2.93 2.93 0 11-2.9 2.93 2.913 2.913 0 012.9-2.93z"/><path class="e" d="M165.23 143.418a1.895 1.895 0 11-1.873 1.895 1.885 1.885 0 011.873-1.895z"/><path class="e" d="M192.127 136.668a1.895 1.895 0 11-1.874 1.895 1.884 1.884 0 011.874-1.895z"/><path class="e" d="M211.528 135.511a8.355 8.355 0 11-8.256 8.355 8.306 8.306 0 018.256-8.355z"/><path class="e" d="M202.24 149.076a1.9 1.9 0 11-1.874 1.9 1.886 1.886 0 011.874-1.9z"/><path class="e" d="M225.114 108.047a5.553 5.553 0 11-5.489 5.552 5.519 5.519 0 015.489-5.552z"/><path class="e" d="M206.878 153.046a4.159 4.159 0 11-4.111 4.16 4.135 4.135 0 014.111-4.16z"/><path class="e" d="M239.529 153.137a6.4 6.4 0 11-6.326 6.4 6.365 6.365 0 016.326-6.4z"/><path class="e" d="M265.351 142.251a6.4 6.4 0 11-6.328 6.4 6.365 6.365 0 016.328-6.4z"/><path class="e" d="M247.275 123.309a6.4 6.4 0 11-6.326 6.4 6.366 6.366 0 016.326-6.4z"/><path class="e" d="M255.022 177.3a6.4 6.4 0 11-6.326 6.4 6.364 6.364 0 016.326-6.4z"/><path class="e" d="M241.681 197.116a6.4 6.4 0 11-6.326 6.4 6.366 6.366 0 016.326-6.4z"/><path class="e" d="M204.642 203.441a8.354 8.354 0 11-8.255 8.354 8.305 8.305 0 018.255-8.354z"/><path class="e" d="M218.973 172.672a5.554 5.554 0 11-5.487 5.553 5.522 5.522 0 015.487-5.553z"/><path class="e" d="M285.243 128.257a5.553 5.553 0 11-5.487 5.553 5.521 5.521 0 015.487-5.553z"/><path class="e" d="M281.89 160.332a8.354 8.354 0 11-8.256 8.353 8.3 8.3 0 018.256-8.353z"/><path class="e" d="M265.189 113.859a4.16 4.16 0 11-4.111 4.16 4.135 4.135 0 014.111-4.16z"/><path class="e" d="M249.482 149.349a4.159 4.159 0 11-4.111 4.158 4.135 4.135 0 014.111-4.158z"/><path class="e" d="M260.671 197.465a4.159 4.159 0 11-4.11 4.16 4.136 4.136 0 014.11-4.16z"/><path class="e" d="M255 118.75a2.93 2.93 0 11-2.9 2.93 2.912 2.912 0 012.9-2.93z"/><path class="e" d="M229.394 119.404a2.929 2.929 0 11-2.9 2.93 2.913 2.913 0 012.9-2.93z"/><path class="e" d="M236.279 146.619a2.929 2.929 0 11-2.894 2.93 2.912 2.912 0 012.894-2.93z"/><path class="e" d="M231.76 162.729a2.93 2.93 0 11-2.894 2.93 2.912 2.912 0 012.894-2.93z"/><path class="e" d="M230.47 200.613a2.93 2.93 0 11-2.9 2.93 2.912 2.912 0 012.9-2.93z"/><path class="e" d="M285.771 207.798a2.93 2.93 0 11-2.9 2.93 2.913 2.913 0 012.9-2.93z"/><path class="e" d="M229.137 148.637a1.895 1.895 0 11-1.873 1.895 1.883 1.883 0 011.873-1.895z"/><path class="e" d="M235.812 193.493a1.895 1.895 0 11-1.873 1.895 1.883 1.883 0 011.873-1.895z"/><path class="e" d="M232.096 182.47a5.553 5.553 0 11-5.487 5.552 5.519 5.519 0 015.487-5.552z"/><path class="e" d="M218.474 191.964a5.269 5.269 0 11-5.206 5.27 5.238 5.238 0 015.206-5.27z"/><path class="e" d="M155.181 186.448a6.4 6.4 0 11-6.327 6.4 6.367 6.367 0 016.327-6.4z"/><path class="e" d="M128.34 193.762a4.16 4.16 0 11-4.111 4.16 4.136 4.136 0 014.111-4.16z"/><path class="e" d="M139.14 207.286a5.554 5.554 0 11-5.487 5.553 5.522 5.522 0 015.487-5.553z"/><path class="e" d="M132.566 202.79a2.93 2.93 0 11-2.9 2.93 2.912 2.912 0 012.9-2.93z"/><path class="e" d="M123.529 182.326a2.93 2.93 0 11-2.9 2.93 2.912 2.912 0 012.9-2.93z"/><path class="e" d="M53.458 189.627a4.159 4.159 0 11-4.11 4.158 4.135 4.135 0 014.11-4.158z"/><path class="e" d="M58.33 182.76a2.93 2.93 0 11-2.894 2.931 2.914 2.914 0 012.894-2.931z"/><path class="e" d="M70.984 184.784a1.895 1.895 0 11-1.873 1.895 1.883 1.883 0 011.873-1.895z"/><path class="e" d="M125.639 202.42a1.895 1.895 0 11-1.874 1.895 1.883 1.883 0 011.874-1.895z"/><path class="e" d="M80.271 217.157a8.354 8.354 0 11-8.256 8.353 8.306 8.306 0 018.256-8.353z"/><path class="e" d="M76.835 235.449a2.93 2.93 0 11-2.894 2.93 2.913 2.913 0 012.894-2.93z"/><path class="e" d="M30.989 205.029a6.364 6.364 0 11-6.29 6.365 6.326 6.326 0 016.29-6.365z"/><path class="e" d="M52.291 230.938a6.365 6.365 0 11-6.29 6.365 6.328 6.328 0 016.29-6.365z"/><path class="e" d="M22.395 213.897a2.93 2.93 0 11-2.894 2.931 2.914 2.914 0 012.894-2.931z"/><path class="e" d="M30.789 227.314a3.88 3.88 0 11-3.835 3.879 3.857 3.857 0 013.835-3.879z"/><path class="e" d="M47.96 219.188a1.895 1.895 0 11-1.873 1.895 1.884 1.884 0 011.873-1.895z"/><path class="e" d="M66.153 202.473a4.16 4.16 0 11-4.111 4.16 4.135 4.135 0 014.111-4.16z"/><path class="e" d="M108.466 208.452a2.93 2.93 0 11-2.894 2.93 2.912 2.912 0 012.894-2.93z"/><path class="e" d="M124.993 223.538a1.895 1.895 0 11-1.873 1.895 1.883 1.883 0 011.873-1.895z"/><path class="e" d="M156.526 215.536a4.16 4.16 0 11-4.11 4.16 4.136 4.136 0 014.11-4.16z"/><path class="e" d="M187.672 249.151a6.4 6.4 0 11-6.327 6.4 6.367 6.367 0 016.327-6.4z"/><path class="e" d="M208.114 255.248a6.4 6.4 0 11-6.328 6.4 6.365 6.365 0 016.328-6.4z"/><path class="e" d="M171.135 237.687a5.269 5.269 0 11-5.206 5.268 5.237 5.237 0 015.206-5.268z"/><path class="e" d="M145.685 241.324a8.355 8.355 0 11-8.256 8.353 8.3 8.3 0 018.256-8.353z"/><path class="e" d="M197.538 275.289a8.354 8.354 0 11-8.256 8.353 8.305 8.305 0 018.256-8.353z"/><path class="e" d="M115.472 240.166a5.553 5.553 0 11-5.485 5.553 5.521 5.521 0 015.487-5.553z"/><path class="e" d="M93.308 249.092a5.553 5.553 0 11-5.487 5.553 5.52 5.52 0 015.487-5.553z"/><path class="e" d="M64.477 260.199a5.553 5.553 0 11-5.489 5.553 5.521 5.521 0 015.489-5.553z"/><path class="e" d="M99.765 274.784a5.553 5.553 0 11-5.489 5.553 5.52 5.52 0 015.489-5.553z"/><path class="e" d="M129.889 264.987a5.553 5.553 0 11-5.489 5.552 5.519 5.519 0 015.489-5.552z"/><path class="e" d="M182.605 268.469a5.554 5.554 0 11-5.487 5.553 5.522 5.522 0 015.487-5.553z"/><path class="e" d="M221.123 241.255a5.553 5.553 0 11-5.489 5.552 5.52 5.52 0 015.489-5.552z"/><path class="e" d="M227.727 224.405a5.269 5.269 0 11-5.206 5.27 5.238 5.238 0 015.206-5.27z"/><path class="e" d="M242.358 217.003a5.269 5.269 0 11-5.206 5.268 5.238 5.238 0 015.206-5.268z"/><path class="e" d="M266.243 218.309a5.269 5.269 0 11-5.206 5.268 5.238 5.238 0 015.206-5.268z"/><path class="e" d="M236.55 243.564a5.269 5.269 0 11-5.208 5.268 5.238 5.238 0 015.208-5.268z"/><path class="e" d="M263.683 237.743a4.159 4.159 0 11-4.11 4.158 4.135 4.135 0 014.11-4.158z"/><path class="e" d="M217.636 264.087a4.16 4.16 0 11-4.111 4.16 4.135 4.135 0 014.111-4.16z"/><path class="e" d="M169.437 268.007a4.159 4.159 0 11-4.11 4.158 4.135 4.135 0 014.11-4.158z"/><path class="e" d="M159.54 290.053a4.975 4.975 0 11-4.917 4.974 4.946 4.946 0 014.917-4.974z"/><path class="e" d="M103.302 286.396a2.93 2.93 0 11-2.894 2.93 2.912 2.912 0 012.894-2.93z"/><path class="e" d="M123.745 281.17a2.93 2.93 0 11-2.9 2.93 2.912 2.912 0 012.9-2.93z"/><path class="e" d="M124.606 290.315a2.93 2.93 0 11-2.9 2.93 2.912 2.912 0 012.9-2.93z"/><path class="e" d="M168.5 261.14a2.93 2.93 0 11-2.894 2.93 2.913 2.913 0 012.894-2.93z"/><path class="e" d="M175.387 257.221a2.93 2.93 0 11-2.9 2.93 2.913 2.913 0 012.9-2.93z"/><path class="e" d="M175.172 264.188a2.93 2.93 0 11-2.9 2.93 2.912 2.912 0 012.9-2.93z"/><path class="e" d="M198.625 231.302a3.593 3.593 0 11-3.55 3.594 3.573 3.573 0 013.55-3.594z"/><path class="e" d="M182.487 240.882a3.593 3.593 0 11-3.55 3.594 3.572 3.572 0 013.55-3.594z"/><path class="e" d="M228.749 251.55a3.593 3.593 0 11-3.55 3.592 3.571 3.571 0 013.55-3.592z"/><path class="e" d="M83.507 256.993a3.593 3.593 0 11-3.551 3.594 3.572 3.572 0 013.551-3.594z"/><path class="e" d="M151.245 269.352a2.456 2.456 0 11-2.428 2.456 2.442 2.442 0 012.428-2.456z"/><path class="e" d="M120.259 265.869a2.456 2.456 0 11-2.427 2.456 2.441 2.441 0 012.427-2.456z"/><path class="e" d="M83.678 251.408a1.895 1.895 0 11-1.873 1.895 1.883 1.883 0 011.873-1.895z"/><path class="e" d="M184.638 280.953a2.93 2.93 0 11-2.894 2.93 2.913 2.913 0 012.894-2.93z"/><path class="e" d="M174.483 276.224a1.9 1.9 0 11-1.876 1.9 1.883 1.883 0 011.873-1.895z"/><path class="e" d="M234.946 231.812a1.895 1.895 0 11-1.873 1.895 1.885 1.885 0 011.873-1.895z"/><path class="e" d="M134.202 242.901a2.93 2.93 0 11-2.9 2.93 2.912 2.912 0 012.9-2.93z"/></svg>
