<svg xmlns="http://www.w3.org/2000/svg" width="80px" height="80px" viewBox="0 0 128 128"><path d="M30 78a28.914 28.914 0 1111.287-2.279A28.814 28.814 0 0130 78z" fill="#8b8d8e"></path><path d="M30 21a27.913 27.913 0 1010.9 2.2A27.819 27.819 0 0030 21m0-2A30 30 0 110 49a30 30 0 0130-30z"></path><path d="M30 87a17 17 0 11-17 17 17 17 0 0117-17z" fill="none"></path><path d="M30 89a15 15 0 1010.606 4.393A14.9 14.9 0 0030 89m0-2a17 17 0 11-17 17 17 17 0 0117-17z"></path><path d="M93 58a35 35 0 11-35 35 35 35 0 0135-35z" fill="none"></path><path d="M93 60a32.887 32.887 0 1012.844 2.592A32.8 32.8 0 0093 60m0-2a35 35 0 11-35 35 35 35 0 0135-35z"></path><path d="M90 0a24 24 0 11-24 24A24 24 0 0190 0z" fill="none"></path><path d="M90 2a21.925 21.925 0 108.562 1.728A21.855 21.855 0 0090 2m0-2a24 24 0 11-24 24A24 24 0 0190 0z"></path></svg>