<svg xmlns="http://www.w3.org/2000/svg" width="80px" height="80px" viewBox="0 0 128 128"><path d="M127 127H1V1h126zM64 43a20.917 20.917 0 108.174 1.648A20.919 20.919 0 0064 43z" fill="none"></path><path fill="none" d="M0 0h128v128H0z"></path><path d="M128 128H0V0h128zM2 126h124V2H2z"></path><path d="M63 1h2v126h-2z"></path><path d="M94 1h2v126h-2z"></path><path d="M1 63h126v2H1z"></path><path d="M32 1h2v126h-2z"></path><path d="M1 32h126v2H1z"></path><path d="M1 94h126v2H1z"></path><path d="M64 85a20.93 20.93 0 118.174-1.65A20.868 20.868 0 0164 85z" fill="#8b8d8e"></path><path d="M64 44a19.933 19.933 0 107.784 1.571A19.876 19.876 0 0064 44m0-2a22 22 0 11-22 22 22 22 0 0122-22z"></path></svg>