<svg xmlns="http://www.w3.org/2000/svg" width="80px" height="80px" viewBox="0 0 128.002 128.004"><path d="M64 127.004a62.66 62.66 0 01-35.223-10.76 63.188 63.188 0 01-17.021-17.018 62.911 62.911 0 010-70.447A63.217 63.217 0 0139.479 5.95a63.211 63.211 0 0149.042 0 63.193 63.193 0 0133.53 33.53 62.911 62.911 0 01-4.821 58.236L94.961 75.447a32.974 32.974 0 10-19.525 19.515l22.277 22.271a63.318 63.318 0 01-9.193 4.822A62.622 62.622 0 0164 127.004z" fill="#8b8d8e"></path><path d="M64 126.004a61.645 61.645 0 0024.131-4.869 62.566 62.566 0 007.984-4.086L75.18 96.117a33.968 33.968 0 1120.937-20.929l20.93 20.929a61.9 61.9 0 00-1.631-66.778A62.236 62.236 0 0088.133 6.871a62.208 62.208 0 00-48.262 0 62.327 62.327 0 00-10.535 5.718 62.127 62.127 0 00-16.75 16.751 61.894 61.894 0 000 69.326 62.221 62.221 0 0027.281 22.468 61.636 61.636 0 0024.131 4.87m0 2a63.659 63.659 0 01-35.783-10.932 64.122 64.122 0 01-17.287-17.287 63.9 63.9 0 010-71.566 64.213 64.213 0 0128.16-23.19 64.213 64.213 0 0149.822 0 64.218 64.218 0 0134.063 34.062 63.894 63.894 0 01-5.577 60.206l-23.6-23.6a31.973 31.973 0 10-18.109 18.1l23.607 23.6a63.641 63.641 0 01-35.295 10.605z"></path></svg>