<svg width="96px" height="56px" viewBox="0 0 96 56" fill="none" xmlns="http://www.w3.org/2000/svg" alt=""><path d="M48.2192 2.09886C68.1635 2.09886 85.8621 12.1734 93.6366 27.8519C85.8728 43.5303 68.1635 53.6048 48.2192 53.6048C28.2749 53.6048 10.5657 43.5303 2.80183 27.8519C10.5657 12.1734 28.2856 2.09886 48.2192 2.09886ZM48.2192 0C26.5746 0 8.06327 11.5122 0.449148 27.8204C0.149716 28.471 0 28.7963 0 28.7963C0 28.7963 0.149716 28.4815 0.438454 27.8519C8.04189 44.1705 26.5639 55.7037 48.2192 55.7037C69.8746 55.7037 88.3966 44.1705 96 27.8519C88.3966 11.5332 69.8746 0 48.2192 0Z" fill="#32373E"></path><g clip-path="url(#clip0_2769_6972)"><path d="M48.1224 46.2259C38.0705 46.2259 29.8906 38.1988 29.8906 28.3346C29.8906 18.4704 38.0705 10.4432 48.1224 10.4432C58.1743 10.4432 66.3542 18.4704 66.3542 28.3346C66.3542 38.1988 58.1743 46.2259 48.1224 46.2259Z" fill="#FDCA3F"></path><path d="M48.1222 11.4416C57.6146 11.4416 65.3366 19.0195 65.3366 28.3346C65.3366 37.6496 57.6146 45.2275 48.1222 45.2275C38.6299 45.2275 30.9078 37.6496 30.9078 28.3346C30.9078 19.0195 38.6299 11.4416 48.1222 11.4416ZM48.1222 9.44482C37.4904 9.44482 28.873 17.9013 28.873 28.3346C28.873 38.7678 37.4904 47.2243 48.1222 47.2243C58.7541 47.2243 67.3714 38.7678 67.3714 28.3346C67.3714 17.9013 58.7439 9.44482 48.1222 9.44482Z" fill="#32373E"></path><path fill-rule="evenodd" clip-rule="evenodd" d="M56.5442 35.5855H39.7012V33.2242H56.5442V35.5855Z" fill="#32373E"></path><path d="M53.0466 26.5474C54.1985 26.5474 55.1323 25.6311 55.1323 24.5007C55.1323 23.3703 54.1985 22.454 53.0466 22.454C51.8947 22.454 50.9609 23.3703 50.9609 24.5007C50.9609 25.6311 51.8947 26.5474 53.0466 26.5474Z" fill="#32373E"></path><path d="M43.1872 26.5474C44.3391 26.5474 45.2729 25.6311 45.2729 24.5007C45.2729 23.3703 44.3391 22.454 43.1872 22.454C42.0353 22.454 41.1016 23.3703 41.1016 24.5007C41.1016 25.6311 42.0353 26.5474 43.1872 26.5474Z" fill="#32373E"></path></g></svg>