<svg _ngcontent-ng-c4051089400="" xmlns="http://www.w3.org/2000/svg" width="335" height="177.5" viewBox="0 0 335 177.5" alt="astigmatism image" class="ng-tns-c4051089400-20" style="transform: scale(0.574918);"><g _ngcontent-ng-c4051089400="" transform="translate(-707 -1705.5)" class="ng-tns-c4051089400-20"><rect _ngcontent-ng-c4051089400="" width="110" height="4" transform="translate(707 1879)" class="ng-tns-c4051089400-20"></rect><rect _ngcontent-ng-c4051089400="" width="110" height="4" transform="translate(707 1871)" class="ng-tns-c4051089400-20"></rect><rect _ngcontent-ng-c4051089400="" width="110" height="4" transform="translate(707 1863)" class="ng-tns-c4051089400-20"></rect></g><g _ngcontent-ng-c4051089400="" transform="translate(-482 -1705.5)" class="ng-tns-c4051089400-20"><rect _ngcontent-ng-c4051089400="" width="110" height="4" transform="translate(707 1879)" class="ng-tns-c4051089400-20"></rect><rect _ngcontent-ng-c4051089400="" width="110" height="4" transform="translate(707 1871)" class="ng-tns-c4051089400-20"></rect><rect _ngcontent-ng-c4051089400="" width="110" height="4" transform="translate(707 1863)" class="ng-tns-c4051089400-20"></rect></g><g _ngcontent-ng-c4051089400="" transform="rotate(22.5 4808.063 -756.916)" class="ng-tns-c4051089400-20"><rect _ngcontent-ng-c4051089400="" width="110" height="4" transform="translate(707 1879)" class="ng-tns-c4051089400-20"></rect><rect _ngcontent-ng-c4051089400="" width="110" height="4" transform="translate(707 1871)" class="ng-tns-c4051089400-20"></rect><rect _ngcontent-ng-c4051089400="" width="110" height="4" transform="translate(707 1863)" class="ng-tns-c4051089400-20"></rect></g><g _ngcontent-ng-c4051089400="" transform="rotate(45 2579.72 166.825)" class="ng-tns-c4051089400-20"><rect _ngcontent-ng-c4051089400="" width="110" height="4" transform="translate(707 1879)" class="ng-tns-c4051089400-20"></rect><rect _ngcontent-ng-c4051089400="" width="110" height="4" transform="translate(707 1871)" class="ng-tns-c4051089400-20"></rect><rect _ngcontent-ng-c4051089400="" width="110" height="4" transform="translate(707 1863)" class="ng-tns-c4051089400-20"></rect></g><g _ngcontent-ng-c4051089400="" transform="rotate(90 1373.75 666.75)" class="ng-tns-c4051089400-20"><rect _ngcontent-ng-c4051089400="" width="110" height="4" transform="translate(707 1879)" class="ng-tns-c4051089400-20"></rect><rect _ngcontent-ng-c4051089400="" width="110" height="4" transform="translate(707 1871)" class="ng-tns-c4051089400-20"></rect><rect _ngcontent-ng-c4051089400="" width="110" height="4" transform="translate(707 1863)" class="ng-tns-c4051089400-20"></rect></g><g _ngcontent-ng-c4051089400="" transform="rotate(67.5 1797.23 491.2)" class="ng-tns-c4051089400-20"><rect _ngcontent-ng-c4051089400="" width="110" height="4" transform="translate(707 1879)" class="ng-tns-c4051089400-20"></rect><rect _ngcontent-ng-c4051089400="" width="110" height="4" transform="translate(707 1871)" class="ng-tns-c4051089400-20"></rect><rect _ngcontent-ng-c4051089400="" width="110" height="4" transform="translate(707 1863)" class="ng-tns-c4051089400-20"></rect></g><g _ngcontent-ng-c4051089400="" transform="rotate(-22.5 -3878.565 2231.839)" class="ng-tns-c4051089400-20"><rect _ngcontent-ng-c4051089400="" width="110" height="4" transform="translate(707 1879)" class="ng-tns-c4051089400-20"></rect><rect _ngcontent-ng-c4051089400="" width="110" height="4" transform="translate(707 1871)" class="ng-tns-c4051089400-20"></rect><rect _ngcontent-ng-c4051089400="" width="110" height="4" transform="translate(707 1863)" class="ng-tns-c4051089400-20"></rect></g><g _ngcontent-ng-c4051089400="" transform="rotate(-45 -1650.221 1602.077)" class="ng-tns-c4051089400-20"><rect _ngcontent-ng-c4051089400="" width="110" height="4" transform="translate(707 1879)" class="ng-tns-c4051089400-20"></rect><rect _ngcontent-ng-c4051089400="" width="110" height="4" transform="translate(707 1871)" class="ng-tns-c4051089400-20"></rect><rect _ngcontent-ng-c4051089400="" width="110" height="4" transform="translate(707 1863)" class="ng-tns-c4051089400-20"></rect></g><g _ngcontent-ng-c4051089400="" transform="rotate(-67.5 -867.731 1380.931)" class="ng-tns-c4051089400-20"><rect _ngcontent-ng-c4051089400="" width="110" height="4" transform="translate(707 1879)" class="ng-tns-c4051089400-20"></rect><rect _ngcontent-ng-c4051089400="" width="110" height="4" transform="translate(707 1871)" class="ng-tns-c4051089400-20"></rect><rect _ngcontent-ng-c4051089400="" width="110" height="4" transform="translate(707 1863)" class="ng-tns-c4051089400-20"></rect></g></svg>